G04 EAGLE Gerber RS-274X export*
G75*
%MOMM*%
%FSLAX34Y34*%
%LPD*%
%IN*%
%IPPOS*%
%AMOC8*
5,1,8,0,0,1.08239X$1,22.5*%
G01*
%ADD10R,15.176500X0.063500*%
%ADD11R,3.365500X0.063500*%
%ADD12R,0.317500X0.063500*%
%ADD13R,0.127000X0.063500*%
%ADD14R,10.350500X0.063500*%
%ADD15R,0.190500X0.063500*%
%ADD16R,0.063500X0.063500*%
%ADD17R,3.238500X0.063500*%
%ADD18R,0.444500X0.063500*%
%ADD19R,8.636000X0.063500*%
%ADD20R,1.778000X0.063500*%
%ADD21R,3.175000X0.063500*%
%ADD22R,0.254000X0.063500*%
%ADD23R,8.128000X0.063500*%
%ADD24R,0.508000X0.063500*%
%ADD25R,3.111500X0.063500*%
%ADD26R,0.571500X0.063500*%
%ADD27R,3.048000X0.063500*%
%ADD28R,8.064500X0.063500*%
%ADD29R,0.635000X0.063500*%
%ADD30R,4.254500X0.063500*%
%ADD31R,3.556000X0.063500*%
%ADD32R,4.191000X0.063500*%
%ADD33R,3.492500X0.063500*%
%ADD34R,2.984500X0.063500*%
%ADD35R,4.064000X0.063500*%
%ADD36R,3.746500X0.063500*%
%ADD37R,0.889000X0.063500*%
%ADD38R,3.302000X0.063500*%
%ADD39R,1.079500X0.063500*%
%ADD40R,3.429000X0.063500*%
%ADD41R,1.460500X0.063500*%
%ADD42R,2.667000X0.063500*%
%ADD43R,1.587500X0.063500*%
%ADD44R,2.603500X0.063500*%
%ADD45R,2.730500X0.063500*%
%ADD46R,1.968500X0.063500*%
%ADD47R,2.540000X0.063500*%
%ADD48R,2.159000X0.063500*%
%ADD49R,2.413000X0.063500*%
%ADD50R,1.333500X0.063500*%
%ADD51R,2.349500X0.063500*%
%ADD52R,0.381000X0.063500*%
%ADD53R,2.794000X0.063500*%
%ADD54R,2.286000X0.063500*%
%ADD55R,2.222500X0.063500*%
%ADD56R,0.698500X0.063500*%
%ADD57R,0.762000X0.063500*%
%ADD58R,2.095500X0.063500*%
%ADD59R,2.857500X0.063500*%
%ADD60R,2.032000X0.063500*%
%ADD61R,0.952500X0.063500*%
%ADD62R,1.016000X0.063500*%
%ADD63R,1.524000X0.063500*%
%ADD64R,1.905000X0.063500*%
%ADD65R,2.921000X0.063500*%
%ADD66R,1.397000X0.063500*%
%ADD67R,1.143000X0.063500*%
%ADD68R,2.476500X0.063500*%
%ADD69R,0.825500X0.063500*%
%ADD70R,1.206500X0.063500*%
%ADD71R,1.270000X0.063500*%
%ADD72R,1.841500X0.063500*%
%ADD73R,1.714500X0.063500*%
%ADD74R,1.651000X0.063500*%
%ADD75R,5.397500X0.063500*%
%ADD76R,5.461000X0.063500*%
%ADD77R,5.524500X0.063500*%
%ADD78R,5.905500X0.063500*%
%ADD79R,6.096000X0.063500*%
%ADD80R,6.159500X0.063500*%
%ADD81R,8.572500X0.063500*%
%ADD82R,7.429500X0.063500*%
%ADD83R,7.175500X0.063500*%
%ADD84R,6.794500X0.063500*%
%ADD85R,6.604000X0.063500*%
%ADD86R,6.350000X0.063500*%
%ADD87R,5.969000X0.063500*%
%ADD88R,4.635500X0.063500*%
%ADD89R,5.651500X0.063500*%
%ADD90R,4.826000X0.063500*%
%ADD91R,5.080000X0.063500*%
%ADD92R,5.207000X0.063500*%
%ADD93R,4.762500X0.063500*%
%ADD94R,6.032500X0.063500*%
%ADD95R,4.445000X0.063500*%
%ADD96R,3.937000X0.063500*%
%ADD97R,6.858000X0.063500*%
%ADD98R,3.873500X0.063500*%
%ADD99R,8.191500X0.063500*%
%ADD100R,3.619500X0.063500*%
%ADD101R,8.382000X0.063500*%
%ADD102R,8.699500X0.063500*%
%ADD103R,8.826500X0.063500*%
%ADD104R,8.953500X0.063500*%
%ADD105R,9.080500X0.063500*%
%ADD106R,9.207500X0.063500*%
%ADD107R,9.271000X0.063500*%
%ADD108R,9.334500X0.063500*%
%ADD109R,9.461500X0.063500*%
%ADD110R,9.842500X0.063500*%
%ADD111R,9.906000X0.063500*%
%ADD112R,9.969500X0.063500*%
%ADD113R,6.477000X0.063500*%
%ADD114R,6.413500X0.063500*%
%ADD115R,6.540500X0.063500*%
%ADD116R,8.509000X0.063500*%
%ADD117R,7.937500X0.063500*%
%ADD118R,4.699000X0.063500*%
%ADD119R,5.715000X0.063500*%
%ADD120R,5.143500X0.063500*%
%ADD121R,5.334000X0.063500*%
%ADD122R,5.270500X0.063500*%
%ADD123R,5.016500X0.063500*%
%ADD124R,5.778500X0.063500*%
%ADD125R,4.572000X0.063500*%
%ADD126R,4.508500X0.063500*%
%ADD127R,6.223000X0.063500*%
%ADD128R,6.286500X0.063500*%
%ADD129R,4.381500X0.063500*%
%ADD130R,4.318000X0.063500*%
%ADD131R,4.127500X0.063500*%
%ADD132R,4.889500X0.063500*%
%ADD133R,4.953000X0.063500*%
%ADD134R,7.366000X0.063500*%
%ADD135R,7.493000X0.063500*%
%ADD136R,7.556500X0.063500*%
%ADD137R,7.620000X0.063500*%
%ADD138R,7.683500X0.063500*%
%ADD139R,7.747000X0.063500*%
%ADD140R,7.810500X0.063500*%
%ADD141R,7.874000X0.063500*%
%ADD142R,8.001000X0.063500*%
%ADD143R,8.255000X0.063500*%
%ADD144R,8.318500X0.063500*%
%ADD145R,8.445500X0.063500*%
%ADD146R,9.144000X0.063500*%
%ADD147R,3.683000X0.063500*%
%ADD148R,10.858500X0.063500*%
%ADD149C,0.000000*%
%ADD150C,0.450000*%


D10*
X75565Y0D03*
X75565Y635D03*
X75565Y1270D03*
X75565Y1905D03*
X75565Y2540D03*
X75565Y3175D03*
X75565Y3810D03*
X75565Y4445D03*
X75565Y5080D03*
X75565Y5715D03*
X75565Y6350D03*
X75565Y6985D03*
X75565Y7620D03*
X75565Y8255D03*
X75565Y8890D03*
X75565Y9525D03*
X75565Y10160D03*
X75565Y10795D03*
X75565Y11430D03*
D11*
X16510Y12065D03*
D12*
X38100Y12065D03*
D13*
X42228Y12065D03*
D12*
X45720Y12065D03*
D14*
X99695Y12065D03*
D12*
X34925Y12065D03*
D15*
X40640Y12065D03*
D13*
X43498Y12065D03*
D16*
X47625Y12065D03*
D17*
X15875Y12700D03*
D12*
X38100Y12700D03*
D18*
X59690Y12700D03*
D19*
X108268Y12700D03*
D18*
X34290Y12700D03*
D20*
X48578Y12700D03*
D12*
X63500Y12700D03*
D21*
X15558Y13335D03*
D22*
X37783Y13335D03*
D23*
X110808Y13335D03*
D24*
X33973Y13335D03*
D25*
X54610Y13335D03*
X15240Y13970D03*
D22*
X37783Y13970D03*
D23*
X110808Y13970D03*
D26*
X33655Y13970D03*
D25*
X54610Y13970D03*
X15240Y14605D03*
D22*
X37783Y14605D03*
D23*
X110808Y14605D03*
D26*
X33655Y14605D03*
D25*
X54610Y14605D03*
D27*
X14923Y15240D03*
D22*
X37783Y15240D03*
D28*
X111125Y15240D03*
D29*
X33338Y15240D03*
D21*
X54928Y15240D03*
D27*
X14923Y15875D03*
D15*
X37465Y15875D03*
D23*
X110808Y15875D03*
D29*
X33338Y15875D03*
D21*
X54293Y15875D03*
D27*
X14923Y16510D03*
D15*
X37465Y16510D03*
D28*
X111125Y16510D03*
D29*
X33338Y16510D03*
D17*
X54610Y16510D03*
D27*
X14923Y17145D03*
D15*
X37465Y17145D03*
D30*
X92075Y17145D03*
D31*
X133668Y17145D03*
D29*
X33338Y17145D03*
D17*
X54610Y17145D03*
D22*
X114618Y17145D03*
D27*
X14923Y17780D03*
D15*
X36830Y17780D03*
D32*
X91123Y17780D03*
D33*
X133985Y17780D03*
D26*
X33020Y17780D03*
D17*
X53975Y17780D03*
D18*
X114300Y17780D03*
D34*
X14605Y18415D03*
D15*
X36830Y18415D03*
D35*
X90488Y18415D03*
D33*
X133985Y18415D03*
D29*
X32703Y18415D03*
D17*
X53975Y18415D03*
D26*
X113665Y18415D03*
D34*
X14605Y19050D03*
D15*
X36830Y19050D03*
D36*
X88900Y19050D03*
D33*
X133985Y19050D03*
D29*
X32703Y19050D03*
D17*
X53975Y19050D03*
D37*
X112078Y19050D03*
D34*
X14605Y19685D03*
D15*
X36830Y19685D03*
D38*
X86678Y19685D03*
D13*
X105093Y19685D03*
D33*
X133985Y19685D03*
D29*
X32703Y19685D03*
D17*
X53975Y19685D03*
D13*
X103823Y19685D03*
D39*
X111125Y19685D03*
D34*
X14605Y20320D03*
D15*
X36195Y20320D03*
D17*
X86360Y20320D03*
D40*
X134303Y20320D03*
D26*
X32385Y20320D03*
D38*
X53658Y20320D03*
D41*
X109855Y20320D03*
D42*
X13018Y20955D03*
D22*
X28258Y20955D03*
D15*
X36195Y20955D03*
D25*
X85725Y20955D03*
D40*
X134303Y20955D03*
D16*
X26670Y20955D03*
D26*
X32385Y20955D03*
D38*
X53658Y20955D03*
D43*
X109220Y20955D03*
D44*
X12700Y21590D03*
D15*
X27940Y21590D03*
D22*
X35878Y21590D03*
D45*
X83820Y21590D03*
D40*
X134303Y21590D03*
D13*
X26353Y21590D03*
D26*
X31750Y21590D03*
D38*
X53658Y21590D03*
D46*
X107315Y21590D03*
D47*
X12383Y22225D03*
D15*
X27940Y22225D03*
D22*
X35878Y22225D03*
D44*
X83185Y22225D03*
D11*
X134620Y22225D03*
D15*
X26035Y22225D03*
D26*
X31750Y22225D03*
D38*
X53658Y22225D03*
D48*
X106998Y22225D03*
D49*
X11748Y22860D03*
D15*
X27940Y22860D03*
D22*
X35878Y22860D03*
D26*
X71755Y22860D03*
D16*
X76200Y22860D03*
D50*
X84455Y22860D03*
D16*
X92075Y22860D03*
D11*
X134620Y22860D03*
D12*
X25400Y22860D03*
D26*
X31750Y22860D03*
D21*
X53023Y22860D03*
D13*
X75248Y22860D03*
X77153Y22860D03*
D16*
X91440Y22860D03*
D47*
X105093Y22860D03*
D51*
X11430Y23495D03*
D15*
X27305Y23495D03*
D22*
X35878Y23495D03*
D52*
X70803Y23495D03*
D39*
X84455Y23495D03*
D11*
X134620Y23495D03*
D12*
X24765Y23495D03*
D29*
X31433Y23495D03*
D21*
X53023Y23495D03*
D29*
X75883Y23495D03*
D53*
X103823Y23495D03*
D51*
X11430Y24130D03*
D22*
X27623Y24130D03*
D15*
X35560Y24130D03*
D18*
X70485Y24130D03*
D37*
X83503Y24130D03*
D38*
X134938Y24130D03*
D12*
X24765Y24130D03*
D26*
X31750Y24130D03*
D21*
X52388Y24130D03*
D29*
X75883Y24130D03*
D27*
X103188Y24130D03*
D54*
X11113Y24765D03*
D15*
X27305Y24765D03*
D22*
X35243Y24765D03*
D18*
X70485Y24765D03*
D29*
X82233Y24765D03*
D38*
X134938Y24765D03*
D52*
X24448Y24765D03*
D26*
X31115Y24765D03*
D21*
X52388Y24765D03*
D29*
X75883Y24765D03*
D38*
X101918Y24765D03*
D55*
X10795Y25400D03*
D15*
X27305Y25400D03*
D22*
X35243Y25400D03*
D18*
X70485Y25400D03*
X81915Y25400D03*
D38*
X134938Y25400D03*
D18*
X24130Y25400D03*
D26*
X31115Y25400D03*
D21*
X52388Y25400D03*
D56*
X76200Y25400D03*
D40*
X101283Y25400D03*
D55*
X10795Y26035D03*
D15*
X27305Y26035D03*
D22*
X35243Y26035D03*
D52*
X70168Y26035D03*
D18*
X81915Y26035D03*
D38*
X134938Y26035D03*
D18*
X24130Y26035D03*
D26*
X31115Y26035D03*
D21*
X52388Y26035D03*
D57*
X75883Y26035D03*
D40*
X101283Y26035D03*
D48*
X10478Y26670D03*
D13*
X26988Y26670D03*
D15*
X34925Y26670D03*
D52*
X70168Y26670D03*
D24*
X82233Y26670D03*
D38*
X134938Y26670D03*
D24*
X23813Y26670D03*
D29*
X30798Y26670D03*
D17*
X52070Y26670D03*
D57*
X75883Y26670D03*
D11*
X101600Y26670D03*
D48*
X10478Y27305D03*
D15*
X26670Y27305D03*
D16*
X33655Y27305D03*
X66675Y27305D03*
D22*
X69533Y27305D03*
D24*
X82233Y27305D03*
D38*
X134938Y27305D03*
D18*
X23495Y27305D03*
D26*
X30480Y27305D03*
D17*
X50165Y27305D03*
D13*
X67628Y27305D03*
D37*
X75248Y27305D03*
D11*
X101600Y27305D03*
D58*
X10160Y27940D03*
D15*
X26670Y27940D03*
X33655Y27940D03*
D57*
X66993Y27940D03*
D26*
X82550Y27940D03*
D38*
X134938Y27940D03*
D24*
X23178Y27940D03*
X30163Y27940D03*
D59*
X48895Y27940D03*
D37*
X75248Y27940D03*
D38*
X101918Y27940D03*
D60*
X9843Y28575D03*
D15*
X26670Y28575D03*
D12*
X33655Y28575D03*
D61*
X67310Y28575D03*
D29*
X82233Y28575D03*
D17*
X135255Y28575D03*
D26*
X22860Y28575D03*
D18*
X29845Y28575D03*
D45*
X48895Y28575D03*
D56*
X75565Y28575D03*
D11*
X102235Y28575D03*
D46*
X9525Y29210D03*
D15*
X26670Y29210D03*
D22*
X33338Y29210D03*
D62*
X67628Y29210D03*
D56*
X82550Y29210D03*
D17*
X135255Y29210D03*
D29*
X22543Y29210D03*
D18*
X29845Y29210D03*
D53*
X48578Y29210D03*
D29*
X75883Y29210D03*
D38*
X102553Y29210D03*
D43*
X7620Y29845D03*
D22*
X17463Y29845D03*
X26353Y29845D03*
X33338Y29845D03*
D12*
X63500Y29845D03*
D52*
X71438Y29845D03*
D56*
X82550Y29845D03*
D17*
X135255Y29845D03*
D16*
X15875Y29845D03*
D29*
X21908Y29845D03*
D18*
X29845Y29845D03*
D45*
X48260Y29845D03*
D18*
X67310Y29845D03*
D26*
X76200Y29845D03*
D38*
X102553Y29845D03*
D43*
X7620Y30480D03*
D13*
X17463Y30480D03*
D22*
X26353Y30480D03*
X33338Y30480D03*
X63183Y30480D03*
X72073Y30480D03*
D56*
X83185Y30480D03*
D17*
X135255Y30480D03*
D13*
X16193Y30480D03*
D56*
X21590Y30480D03*
D18*
X29845Y30480D03*
D45*
X48260Y30480D03*
D29*
X67628Y30480D03*
X76518Y30480D03*
D17*
X102870Y30480D03*
D63*
X7303Y31115D03*
D22*
X26353Y31115D03*
X33338Y31115D03*
D15*
X62865Y31115D03*
D13*
X72073Y31115D03*
D24*
X84138Y31115D03*
D17*
X135255Y31115D03*
D62*
X20003Y31115D03*
D18*
X29845Y31115D03*
D45*
X48260Y31115D03*
D57*
X67628Y31115D03*
D37*
X77153Y31115D03*
D17*
X102870Y31115D03*
D63*
X7303Y31750D03*
D22*
X26353Y31750D03*
X33338Y31750D03*
D15*
X62865Y31750D03*
D52*
X84773Y31750D03*
D21*
X135573Y31750D03*
D62*
X20003Y31750D03*
D18*
X29845Y31750D03*
D45*
X48260Y31750D03*
D64*
X73343Y31750D03*
D38*
X103188Y31750D03*
D41*
X6985Y32385D03*
D22*
X26353Y32385D03*
X33338Y32385D03*
D15*
X63500Y32385D03*
D52*
X86043Y32385D03*
D21*
X135573Y32385D03*
D39*
X19685Y32385D03*
D18*
X29845Y32385D03*
D53*
X48578Y32385D03*
D46*
X74295Y32385D03*
D21*
X103823Y32385D03*
D63*
X7303Y33020D03*
D13*
X26353Y33020D03*
D22*
X33338Y33020D03*
D15*
X63500Y33020D03*
D12*
X86995Y33020D03*
D21*
X135573Y33020D03*
D39*
X20320Y33020D03*
D24*
X29528Y33020D03*
D53*
X48578Y33020D03*
D58*
X74930Y33020D03*
D25*
X104140Y33020D03*
D63*
X7303Y33655D03*
D15*
X26035Y33655D03*
X33020Y33655D03*
X64135Y33655D03*
D12*
X87630Y33655D03*
D21*
X135573Y33655D03*
D62*
X20003Y33655D03*
D24*
X29528Y33655D03*
D65*
X48578Y33655D03*
D58*
X75565Y33655D03*
D27*
X104458Y33655D03*
D63*
X7303Y34290D03*
D15*
X26035Y34290D03*
X33020Y34290D03*
D22*
X64453Y34290D03*
D12*
X88900Y34290D03*
D21*
X135573Y34290D03*
D62*
X20003Y34290D03*
D24*
X29528Y34290D03*
D65*
X48578Y34290D03*
D48*
X76518Y34290D03*
D65*
X105093Y34290D03*
D63*
X7303Y34925D03*
D15*
X26035Y34925D03*
X33020Y34925D03*
D18*
X66675Y34925D03*
D52*
X89853Y34925D03*
D21*
X135573Y34925D03*
D62*
X20003Y34925D03*
D24*
X29528Y34925D03*
D27*
X49213Y34925D03*
D64*
X78423Y34925D03*
D53*
X105728Y34925D03*
D41*
X6985Y35560D03*
D15*
X26035Y35560D03*
D13*
X32703Y35560D03*
D24*
X66993Y35560D03*
D12*
X91440Y35560D03*
D21*
X135573Y35560D03*
D39*
X19685Y35560D03*
D24*
X29528Y35560D03*
D25*
X48895Y35560D03*
D60*
X79693Y35560D03*
D42*
X106363Y35560D03*
D41*
X6985Y36195D03*
D15*
X26035Y36195D03*
D13*
X32703Y36195D03*
D26*
X66675Y36195D03*
D15*
X74930Y36195D03*
D12*
X92075Y36195D03*
D21*
X135573Y36195D03*
D39*
X19685Y36195D03*
D24*
X29528Y36195D03*
D27*
X48578Y36195D03*
D18*
X71755Y36195D03*
D41*
X83185Y36195D03*
D44*
X106680Y36195D03*
D66*
X6668Y36830D03*
D15*
X26035Y36830D03*
X32385Y36830D03*
D52*
X65088Y36830D03*
D13*
X68263Y36830D03*
D52*
X75883Y36830D03*
D12*
X93345Y36830D03*
D21*
X135573Y36830D03*
D67*
X19368Y36830D03*
D18*
X29210Y36830D03*
D34*
X48260Y36830D03*
D16*
X67310Y36830D03*
D24*
X71438Y36830D03*
D66*
X84773Y36830D03*
D68*
X107315Y36830D03*
D66*
X6668Y37465D03*
D15*
X26035Y37465D03*
D13*
X32068Y37465D03*
D12*
X64135Y37465D03*
D24*
X76518Y37465D03*
D52*
X94933Y37465D03*
D25*
X135890Y37465D03*
D67*
X19368Y37465D03*
D18*
X29210Y37465D03*
D34*
X47625Y37465D03*
D69*
X69850Y37465D03*
D66*
X86043Y37465D03*
D51*
X108585Y37465D03*
D66*
X6668Y38100D03*
D13*
X25718Y38100D03*
X32068Y38100D03*
D22*
X63818Y38100D03*
D26*
X77470Y38100D03*
D52*
X96203Y38100D03*
D25*
X135890Y38100D03*
D67*
X19368Y38100D03*
D24*
X28893Y38100D03*
D34*
X47625Y38100D03*
D61*
X69850Y38100D03*
D66*
X87313Y38100D03*
D55*
X109220Y38100D03*
D66*
X6668Y38735D03*
D13*
X25718Y38735D03*
D15*
X31750Y38735D03*
D22*
X63818Y38735D03*
D29*
X78423Y38735D03*
D52*
X96838Y38735D03*
D25*
X135890Y38735D03*
D67*
X19368Y38735D03*
D18*
X28575Y38735D03*
D34*
X47625Y38735D03*
D62*
X70168Y38735D03*
D50*
X88265Y38735D03*
D48*
X109538Y38735D03*
D66*
X6668Y39370D03*
D15*
X25400Y39370D03*
X31750Y39370D03*
D13*
X63818Y39370D03*
D56*
X79375Y39370D03*
D52*
X98108Y39370D03*
D25*
X135890Y39370D03*
D39*
X19050Y39370D03*
D18*
X28575Y39370D03*
D27*
X47943Y39370D03*
D67*
X70168Y39370D03*
D50*
X89535Y39370D03*
D60*
X110173Y39370D03*
D50*
X6350Y40005D03*
D15*
X25400Y40005D03*
X31750Y40005D03*
X64135Y40005D03*
D57*
X79693Y40005D03*
D16*
X85090Y40005D03*
D52*
X98743Y40005D03*
D25*
X135890Y40005D03*
D67*
X18733Y40005D03*
D18*
X28575Y40005D03*
D27*
X47943Y40005D03*
D39*
X70485Y40005D03*
D13*
X84138Y40005D03*
D67*
X91123Y40005D03*
D46*
X110490Y40005D03*
D50*
X6350Y40640D03*
D15*
X25400Y40640D03*
D13*
X31433Y40640D03*
D15*
X64135Y40640D03*
D39*
X80645Y40640D03*
D12*
X99695Y40640D03*
D25*
X135890Y40640D03*
D67*
X18733Y40640D03*
D18*
X28575Y40640D03*
D25*
X47625Y40640D03*
D62*
X70168Y40640D03*
D70*
X92075Y40640D03*
D64*
X110808Y40640D03*
D66*
X6668Y41275D03*
D13*
X25083Y41275D03*
X31433Y41275D03*
D15*
X64770Y41275D03*
D70*
X80645Y41275D03*
D12*
X100330Y41275D03*
D27*
X136208Y41275D03*
D39*
X19050Y41275D03*
D24*
X28258Y41275D03*
D21*
X47943Y41275D03*
D37*
X70168Y41275D03*
D70*
X92710Y41275D03*
D64*
X111443Y41275D03*
D50*
X6350Y41910D03*
D15*
X24765Y41910D03*
X31115Y41910D03*
D22*
X65088Y41910D03*
D71*
X80328Y41910D03*
D12*
X100965Y41910D03*
D27*
X136208Y41910D03*
D39*
X18415Y41910D03*
D18*
X27940Y41910D03*
D21*
X47943Y41910D03*
D57*
X70168Y41910D03*
D71*
X93028Y41910D03*
D72*
X111760Y41910D03*
D50*
X6350Y42545D03*
D15*
X24765Y42545D03*
X31115Y42545D03*
D22*
X65723Y42545D03*
D41*
X80010Y42545D03*
D52*
X101918Y42545D03*
D27*
X136208Y42545D03*
D39*
X18415Y42545D03*
D18*
X27940Y42545D03*
D17*
X48260Y42545D03*
D26*
X69850Y42545D03*
D71*
X93663Y42545D03*
D73*
X112395Y42545D03*
D66*
X6668Y43180D03*
D13*
X25083Y43180D03*
D15*
X31115Y43180D03*
D22*
X66358Y43180D03*
D63*
X79693Y43180D03*
D52*
X102553Y43180D03*
D27*
X136208Y43180D03*
D39*
X19050Y43180D03*
D18*
X27940Y43180D03*
D38*
X48578Y43180D03*
D18*
X69850Y43180D03*
D50*
X93980Y43180D03*
D74*
X112713Y43180D03*
D50*
X6350Y43815D03*
D15*
X24765Y43815D03*
X31115Y43815D03*
D12*
X67310Y43815D03*
D72*
X78740Y43815D03*
D52*
X103188Y43815D03*
D27*
X136208Y43815D03*
D39*
X18415Y43815D03*
D18*
X27940Y43815D03*
D11*
X48895Y43815D03*
D16*
X69215Y43815D03*
D50*
X94615Y43815D03*
D43*
X113030Y43815D03*
D50*
X6350Y44450D03*
D15*
X24765Y44450D03*
X31115Y44450D03*
D54*
X77153Y44450D03*
D12*
X104140Y44450D03*
D27*
X136208Y44450D03*
D39*
X18415Y44450D03*
D18*
X27940Y44450D03*
D11*
X48895Y44450D03*
D66*
X95568Y44450D03*
D63*
X113348Y44450D03*
D50*
X6350Y45085D03*
D22*
X24448Y45085D03*
D15*
X31115Y45085D03*
D49*
X77153Y45085D03*
D12*
X104775Y45085D03*
D27*
X136208Y45085D03*
D62*
X18098Y45085D03*
D18*
X27940Y45085D03*
D38*
X48578Y45085D03*
D66*
X96203Y45085D03*
D41*
X113665Y45085D03*
D50*
X6350Y45720D03*
D15*
X24130Y45720D03*
D22*
X30798Y45720D03*
X66358Y45720D03*
D64*
X78423Y45720D03*
D15*
X89535Y45720D03*
D12*
X105410Y45720D03*
D27*
X136208Y45720D03*
D62*
X18098Y45720D03*
D18*
X27305Y45720D03*
D38*
X48578Y45720D03*
D13*
X68263Y45720D03*
D16*
X88265Y45720D03*
D50*
X97155Y45720D03*
D66*
X113983Y45720D03*
D71*
X6033Y46355D03*
D15*
X24130Y46355D03*
X30480Y46355D03*
D22*
X66358Y46355D03*
D72*
X79375Y46355D03*
D15*
X90170Y46355D03*
D12*
X106045Y46355D03*
D34*
X136525Y46355D03*
D39*
X17780Y46355D03*
D18*
X27305Y46355D03*
D11*
X48260Y46355D03*
D22*
X68898Y46355D03*
D16*
X88900Y46355D03*
D50*
X97790Y46355D03*
D66*
X114618Y46355D03*
D50*
X6350Y46990D03*
D15*
X24130Y46990D03*
X30480Y46990D03*
X66040Y46990D03*
D72*
X78740Y46990D03*
D13*
X91123Y46990D03*
D12*
X106680Y46990D03*
D34*
X136525Y46990D03*
D62*
X18098Y46990D03*
D18*
X27305Y46990D03*
D11*
X48260Y46990D03*
D22*
X68263Y46990D03*
X89218Y46990D03*
D50*
X98425Y46990D03*
X114935Y46990D03*
D71*
X6033Y47625D03*
D15*
X24130Y47625D03*
X30480Y47625D03*
D22*
X65723Y47625D03*
D20*
X79058Y47625D03*
D15*
X91440Y47625D03*
D12*
X107315Y47625D03*
D34*
X136525Y47625D03*
D39*
X17780Y47625D03*
D18*
X27305Y47625D03*
D38*
X47943Y47625D03*
D12*
X68580Y47625D03*
D22*
X89218Y47625D03*
D50*
X99060Y47625D03*
D71*
X115253Y47625D03*
X6033Y48260D03*
D15*
X23495Y48260D03*
X30480Y48260D03*
D22*
X65723Y48260D03*
D72*
X79375Y48260D03*
D13*
X92393Y48260D03*
D12*
X107950Y48260D03*
D34*
X136525Y48260D03*
D62*
X17463Y48260D03*
D24*
X26988Y48260D03*
D38*
X47943Y48260D03*
D12*
X68580Y48260D03*
X90170Y48260D03*
D50*
X99695Y48260D03*
D70*
X115570Y48260D03*
D71*
X6033Y48895D03*
D15*
X23495Y48895D03*
X30480Y48895D03*
D22*
X65723Y48895D03*
D64*
X79058Y48895D03*
D13*
X93028Y48895D03*
D22*
X108903Y48895D03*
D34*
X136525Y48895D03*
D62*
X17463Y48895D03*
D24*
X26988Y48895D03*
D38*
X47943Y48895D03*
D22*
X68263Y48895D03*
D52*
X90488Y48895D03*
D66*
X100648Y48895D03*
D67*
X115888Y48895D03*
D71*
X6033Y49530D03*
D15*
X23495Y49530D03*
D13*
X30163Y49530D03*
D22*
X65723Y49530D03*
D64*
X79058Y49530D03*
D13*
X93663Y49530D03*
D12*
X109220Y49530D03*
D65*
X136843Y49530D03*
D62*
X17463Y49530D03*
D24*
X26988Y49530D03*
D11*
X47625Y49530D03*
D22*
X68263Y49530D03*
D18*
X90805Y49530D03*
D50*
X100965Y49530D03*
D67*
X116523Y49530D03*
D50*
X6350Y50165D03*
D15*
X23495Y50165D03*
D13*
X30163Y50165D03*
D22*
X65723Y50165D03*
D64*
X79058Y50165D03*
D13*
X94298Y50165D03*
D22*
X109538Y50165D03*
D65*
X136843Y50165D03*
D61*
X17780Y50165D03*
D24*
X26988Y50165D03*
D11*
X47625Y50165D03*
D22*
X68263Y50165D03*
D24*
X91123Y50165D03*
D50*
X101600Y50165D03*
D67*
X116523Y50165D03*
D50*
X6350Y50800D03*
D13*
X23178Y50800D03*
D15*
X26035Y50800D03*
D13*
X30163Y50800D03*
D15*
X65405Y50800D03*
D64*
X79058Y50800D03*
D15*
X95250Y50800D03*
D22*
X110173Y50800D03*
D65*
X136843Y50800D03*
D61*
X17780Y50800D03*
D13*
X24448Y50800D03*
D22*
X28258Y50800D03*
D11*
X47625Y50800D03*
D12*
X67945Y50800D03*
D26*
X91440Y50800D03*
D71*
X102553Y50800D03*
D39*
X116840Y50800D03*
D50*
X6350Y51435D03*
D29*
X25718Y51435D03*
D15*
X65405Y51435D03*
D64*
X79058Y51435D03*
D15*
X95885Y51435D03*
D12*
X110490Y51435D03*
D59*
X137160Y51435D03*
D61*
X17780Y51435D03*
D31*
X46673Y51435D03*
D12*
X67945Y51435D03*
D29*
X91758Y51435D03*
D70*
X102870Y51435D03*
D39*
X117475Y51435D03*
D71*
X6033Y52070D03*
D57*
X26988Y52070D03*
D13*
X65088Y52070D03*
D64*
X79058Y52070D03*
D15*
X96520Y52070D03*
D12*
X110490Y52070D03*
D59*
X137160Y52070D03*
D39*
X17780Y52070D03*
D11*
X47625Y52070D03*
D52*
X67628Y52070D03*
D56*
X92075Y52070D03*
D67*
X103188Y52070D03*
D39*
X117475Y52070D03*
D71*
X6033Y52705D03*
D61*
X27940Y52705D03*
D15*
X64770Y52705D03*
D46*
X79375Y52705D03*
D15*
X97155Y52705D03*
D12*
X111125Y52705D03*
D59*
X137160Y52705D03*
D39*
X17780Y52705D03*
D25*
X48260Y52705D03*
D52*
X67628Y52705D03*
D56*
X92710Y52705D03*
D67*
X103823Y52705D03*
D62*
X117793Y52705D03*
D50*
X6350Y53340D03*
D39*
X28575Y53340D03*
D15*
X64770Y53340D03*
X69850Y53340D03*
D73*
X80645Y53340D03*
D15*
X97790Y53340D03*
D22*
X111443Y53340D03*
D53*
X137478Y53340D03*
D62*
X18098Y53340D03*
D34*
X48895Y53340D03*
D12*
X67310Y53340D03*
D13*
X71438Y53340D03*
D57*
X93028Y53340D03*
D67*
X104458Y53340D03*
D39*
X118110Y53340D03*
D50*
X6350Y53975D03*
D64*
X32068Y53975D03*
D15*
X64770Y53975D03*
X69850Y53975D03*
D50*
X83185Y53975D03*
D16*
X98425Y53975D03*
D22*
X112078Y53975D03*
D53*
X137478Y53975D03*
D61*
X17780Y53975D03*
D55*
X52705Y53975D03*
D12*
X67310Y53975D03*
D26*
X73660Y53975D03*
D69*
X93980Y53975D03*
D70*
X104775Y53975D03*
D62*
X118428Y53975D03*
D71*
X6033Y54610D03*
D61*
X26670Y54610D03*
D67*
X37783Y54610D03*
D16*
X45085Y54610D03*
D22*
X64453Y54610D03*
X69533Y54610D03*
D39*
X84455Y54610D03*
D12*
X112395Y54610D03*
D53*
X137478Y54610D03*
D61*
X17145Y54610D03*
D16*
X31750Y54610D03*
D13*
X44133Y54610D03*
D20*
X54293Y54610D03*
D22*
X66993Y54610D03*
D69*
X74930Y54610D03*
D58*
X100330Y54610D03*
D61*
X118745Y54610D03*
D71*
X6033Y55245D03*
D56*
X24765Y55245D03*
D15*
X30480Y55245D03*
D66*
X42228Y55245D03*
D22*
X64453Y55245D03*
X69533Y55245D03*
D69*
X85725Y55245D03*
D12*
X113030Y55245D03*
D53*
X137478Y55245D03*
D37*
X16828Y55245D03*
D13*
X28893Y55245D03*
D52*
X33338Y55245D03*
D66*
X56198Y55245D03*
D22*
X66993Y55245D03*
D39*
X76200Y55245D03*
D48*
X100648Y55245D03*
D37*
X119063Y55245D03*
D70*
X5715Y55880D03*
D24*
X23178Y55880D03*
D15*
X27305Y55880D03*
D52*
X31433Y55880D03*
D13*
X37783Y55880D03*
D16*
X39370Y55880D03*
D50*
X46990Y55880D03*
D22*
X64453Y55880D03*
X68898Y55880D03*
D29*
X87313Y55880D03*
D22*
X113348Y55880D03*
D53*
X137478Y55880D03*
D37*
X16193Y55880D03*
D16*
X26035Y55880D03*
D13*
X28893Y55880D03*
D52*
X35243Y55880D03*
D16*
X38735Y55880D03*
X40005Y55880D03*
D61*
X58420Y55880D03*
D15*
X66675Y55880D03*
D66*
X77153Y55880D03*
D48*
X101283Y55880D03*
D37*
X119063Y55880D03*
D70*
X5715Y56515D03*
D18*
X22860Y56515D03*
X28575Y56515D03*
D12*
X33020Y56515D03*
D67*
X49848Y56515D03*
D22*
X64453Y56515D03*
X68898Y56515D03*
D24*
X87948Y56515D03*
D12*
X113665Y56515D03*
D53*
X137478Y56515D03*
D37*
X16193Y56515D03*
D13*
X25718Y56515D03*
D16*
X31115Y56515D03*
D61*
X39370Y56515D03*
D57*
X59373Y56515D03*
D15*
X66675Y56515D03*
D63*
X77788Y56515D03*
D48*
X101283Y56515D03*
D69*
X119380Y56515D03*
D70*
X5715Y57150D03*
D18*
X22225Y57150D03*
D15*
X27305Y57150D03*
D13*
X30163Y57150D03*
D12*
X34290Y57150D03*
D71*
X53658Y57150D03*
D22*
X64453Y57150D03*
X68263Y57150D03*
D18*
X88265Y57150D03*
D22*
X113983Y57150D03*
D53*
X137478Y57150D03*
D69*
X15875Y57150D03*
D15*
X25400Y57150D03*
D13*
X28893Y57150D03*
D15*
X31750Y57150D03*
D67*
X41593Y57150D03*
D12*
X61595Y57150D03*
D13*
X66358Y57150D03*
D74*
X77788Y57150D03*
D55*
X101600Y57150D03*
D69*
X119380Y57150D03*
D70*
X5715Y57785D03*
D24*
X21908Y57785D03*
D22*
X27623Y57785D03*
D13*
X30798Y57785D03*
D18*
X36195Y57785D03*
D50*
X58420Y57785D03*
D22*
X68263Y57785D03*
D15*
X88900Y57785D03*
X113665Y57785D03*
D53*
X137478Y57785D03*
D57*
X15558Y57785D03*
D15*
X25400Y57785D03*
D13*
X29528Y57785D03*
D22*
X32703Y57785D03*
D50*
X45085Y57785D03*
D15*
X66040Y57785D03*
D72*
X78740Y57785D03*
D54*
X101283Y57785D03*
D37*
X119063Y57785D03*
D67*
X5398Y58420D03*
D24*
X21273Y58420D03*
D12*
X27940Y58420D03*
D13*
X31433Y58420D03*
D26*
X38100Y58420D03*
D39*
X59690Y58420D03*
D12*
X67945Y58420D03*
D53*
X137478Y58420D03*
D57*
X14923Y58420D03*
D22*
X25083Y58420D03*
D13*
X30163Y58420D03*
D12*
X33655Y58420D03*
D50*
X47625Y58420D03*
D13*
X65723Y58420D03*
D75*
X96520Y58420D03*
D67*
X5398Y59055D03*
D26*
X20955Y59055D03*
D12*
X27940Y59055D03*
D13*
X32068Y59055D03*
D26*
X38735Y59055D03*
D29*
X61913Y59055D03*
D12*
X67310Y59055D03*
D53*
X137478Y59055D03*
D56*
X14605Y59055D03*
D22*
X25083Y59055D03*
D15*
X30480Y59055D03*
D12*
X34290Y59055D03*
D73*
X50165Y59055D03*
D16*
X65405Y59055D03*
D76*
X96203Y59055D03*
D67*
X5398Y59690D03*
D29*
X20638Y59690D03*
D52*
X28258Y59690D03*
D15*
X32385Y59690D03*
D69*
X41275Y59690D03*
D18*
X62865Y59690D03*
D15*
X67310Y59690D03*
D53*
X137478Y59690D03*
D29*
X14288Y59690D03*
D22*
X25083Y59690D03*
D13*
X30798Y59690D03*
D52*
X35243Y59690D03*
D63*
X53023Y59690D03*
D13*
X65723Y59690D03*
D77*
X95885Y59690D03*
D39*
X5080Y60325D03*
D26*
X20320Y60325D03*
D18*
X28575Y60325D03*
D15*
X32385Y60325D03*
D57*
X43498Y60325D03*
D22*
X63183Y60325D03*
D53*
X137478Y60325D03*
D56*
X13970Y60325D03*
D12*
X24765Y60325D03*
D16*
X31115Y60325D03*
D29*
X36513Y60325D03*
D41*
X54610Y60325D03*
D78*
X93980Y60325D03*
D67*
X5398Y60960D03*
D29*
X20003Y60960D03*
D18*
X28575Y60960D03*
D13*
X32703Y60960D03*
D56*
X45085Y60960D03*
D22*
X63183Y60960D03*
D53*
X137478Y60960D03*
D26*
X13970Y60960D03*
D12*
X24765Y60960D03*
D13*
X31433Y60960D03*
D69*
X37465Y60960D03*
D50*
X55245Y60960D03*
D78*
X93980Y60960D03*
D67*
X5398Y61595D03*
D12*
X17780Y61595D03*
D22*
X21273Y61595D03*
D24*
X28893Y61595D03*
D13*
X33338Y61595D03*
D66*
X51118Y61595D03*
D52*
X62548Y61595D03*
D53*
X137478Y61595D03*
D24*
X13653Y61595D03*
D16*
X19685Y61595D03*
D52*
X24448Y61595D03*
D13*
X32068Y61595D03*
D62*
X39053Y61595D03*
D22*
X59373Y61595D03*
D78*
X93980Y61595D03*
D67*
X5398Y62230D03*
D52*
X17463Y62230D03*
D22*
X21273Y62230D03*
D26*
X29210Y62230D03*
D13*
X33338Y62230D03*
D20*
X55563Y62230D03*
D53*
X137478Y62230D03*
D18*
X13335Y62230D03*
D16*
X19685Y62230D03*
D52*
X24448Y62230D03*
D16*
X32385Y62230D03*
D71*
X40323Y62230D03*
D78*
X93980Y62230D03*
D39*
X5080Y62865D03*
D12*
X17145Y62865D03*
X20955Y62865D03*
D29*
X28893Y62865D03*
D15*
X33655Y62865D03*
D50*
X56515Y62865D03*
D45*
X137795Y62865D03*
D24*
X13018Y62865D03*
D16*
X19050Y62865D03*
D12*
X24130Y62865D03*
D16*
X32385Y62865D03*
D63*
X42228Y62865D03*
D79*
X93663Y62865D03*
D39*
X5080Y63500D03*
D12*
X16510Y63500D03*
D22*
X20638Y63500D03*
D56*
X29210Y63500D03*
D13*
X33973Y63500D03*
D15*
X36195Y63500D03*
D16*
X53340Y63500D03*
D29*
X59373Y63500D03*
D45*
X137795Y63500D03*
D18*
X12700Y63500D03*
D13*
X18733Y63500D03*
D52*
X23813Y63500D03*
D16*
X33020Y63500D03*
X34925Y63500D03*
D43*
X45085Y63500D03*
D22*
X54928Y63500D03*
D80*
X93345Y63500D03*
D62*
X4763Y64135D03*
D12*
X15875Y64135D03*
D22*
X20638Y64135D03*
D50*
X31750Y64135D03*
D45*
X137795Y64135D03*
D18*
X12065Y64135D03*
D15*
X18415Y64135D03*
D12*
X23495Y64135D03*
D81*
X81280Y64135D03*
D62*
X4763Y64770D03*
D52*
X14923Y64770D03*
D22*
X20003Y64770D03*
D69*
X29210Y64770D03*
D52*
X35878Y64770D03*
D29*
X46673Y64770D03*
D45*
X137795Y64770D03*
D12*
X11430Y64770D03*
D15*
X17780Y64770D03*
D52*
X23178Y64770D03*
D16*
X33655Y64770D03*
D26*
X40640Y64770D03*
D82*
X86995Y64770D03*
D62*
X4763Y65405D03*
D52*
X14288Y65405D03*
D22*
X20003Y65405D03*
D70*
X30480Y65405D03*
D13*
X41593Y65405D03*
D61*
X47625Y65405D03*
D45*
X137795Y65405D03*
D22*
X11113Y65405D03*
X17463Y65405D03*
D12*
X22860Y65405D03*
D18*
X38735Y65405D03*
D16*
X42545Y65405D03*
D83*
X88265Y65405D03*
D61*
X4445Y66040D03*
D52*
X13653Y66040D03*
D22*
X19368Y66040D03*
D70*
X30480Y66040D03*
D43*
X48260Y66040D03*
D45*
X137795Y66040D03*
D22*
X10478Y66040D03*
X16828Y66040D03*
D52*
X22543Y66040D03*
X38418Y66040D03*
D84*
X90170Y66040D03*
D61*
X4445Y66675D03*
D12*
X13335Y66675D03*
D22*
X18733Y66675D03*
D71*
X30163Y66675D03*
D73*
X49530Y66675D03*
D45*
X137795Y66675D03*
D22*
X10478Y66675D03*
X16193Y66675D03*
D52*
X21908Y66675D03*
D18*
X38735Y66675D03*
D85*
X91123Y66675D03*
D61*
X4445Y67310D03*
D12*
X12700Y67310D03*
D22*
X18733Y67310D03*
D50*
X29845Y67310D03*
D60*
X51118Y67310D03*
D42*
X138113Y67310D03*
D15*
X10160Y67310D03*
D12*
X15875Y67310D03*
X21590Y67310D03*
D18*
X38735Y67310D03*
D86*
X93028Y67310D03*
D61*
X4445Y67945D03*
D12*
X11430Y67945D03*
D22*
X18098Y67945D03*
D41*
X29845Y67945D03*
D51*
X52070Y67945D03*
D16*
X64770Y67945D03*
D42*
X138113Y67945D03*
D16*
X9525Y67945D03*
D52*
X14923Y67945D03*
D12*
X20955Y67945D03*
X38735Y67945D03*
D16*
X64135Y67945D03*
D87*
X94933Y67945D03*
D50*
X6350Y68580D03*
D12*
X17780Y68580D03*
D88*
X45085Y68580D03*
D42*
X138113Y68580D03*
D12*
X14605Y68580D03*
D22*
X20638Y68580D03*
D89*
X96520Y68580D03*
D71*
X6033Y69215D03*
D12*
X17145Y69215D03*
D90*
X46038Y69215D03*
D13*
X121603Y69215D03*
D42*
X138113Y69215D03*
D12*
X13970Y69215D03*
X20320Y69215D03*
D91*
X95568Y69215D03*
D22*
X123508Y69215D03*
D70*
X5715Y69850D03*
D22*
X16828Y69850D03*
D92*
X46673Y69850D03*
D22*
X121603Y69850D03*
D42*
X138113Y69850D03*
D52*
X13653Y69850D03*
D22*
X19368Y69850D03*
D93*
X96520Y69850D03*
D15*
X123825Y69850D03*
D67*
X5398Y70485D03*
D94*
X45085Y70485D03*
D52*
X121603Y70485D03*
D42*
X138113Y70485D03*
D52*
X13018Y70485D03*
D95*
X97473Y70485D03*
D13*
X124143Y70485D03*
D39*
X5080Y71120D03*
D86*
X45403Y71120D03*
D17*
X135255Y71120D03*
D12*
X12065Y71120D03*
D32*
X98108Y71120D03*
D62*
X4763Y71755D03*
D85*
X46038Y71755D03*
D38*
X134938Y71755D03*
D12*
X11430Y71755D03*
D96*
X98743Y71755D03*
D61*
X4445Y72390D03*
D97*
X45403Y72390D03*
D22*
X119698Y72390D03*
D65*
X136843Y72390D03*
D15*
X10160Y72390D03*
D98*
X99060Y72390D03*
D13*
X121603Y72390D03*
D99*
X40640Y73025D03*
D22*
X119063Y73025D03*
D53*
X137478Y73025D03*
D100*
X99695Y73025D03*
D12*
X121920Y73025D03*
D101*
X41593Y73660D03*
D12*
X118745Y73660D03*
D45*
X137795Y73660D03*
D11*
X100330Y73660D03*
D52*
X122238Y73660D03*
D102*
X43180Y74295D03*
D22*
X118428Y74295D03*
D42*
X138113Y74295D03*
D27*
X101918Y74295D03*
D24*
X122238Y74295D03*
D103*
X43815Y74930D03*
D22*
X117793Y74930D03*
D44*
X138430Y74930D03*
D59*
X102235Y74930D03*
D29*
X122238Y74930D03*
D104*
X44450Y75565D03*
D22*
X117793Y75565D03*
D47*
X138748Y75565D03*
D45*
X102870Y75565D03*
D56*
X122555Y75565D03*
D105*
X45085Y76200D03*
D22*
X117158Y76200D03*
D68*
X139065Y76200D03*
D47*
X103188Y76200D03*
D69*
X122555Y76200D03*
D106*
X45720Y76835D03*
D15*
X116840Y76835D03*
D68*
X139065Y76835D03*
D49*
X103823Y76835D03*
D37*
X122238Y76835D03*
D107*
X46038Y77470D03*
D13*
X95568Y77470D03*
D22*
X116523Y77470D03*
D49*
X139383Y77470D03*
D22*
X93663Y77470D03*
D64*
X105728Y77470D03*
D61*
X122555Y77470D03*
D108*
X46355Y78105D03*
D15*
X95885Y78105D03*
X116205Y78105D03*
D51*
X139700Y78105D03*
D15*
X93980Y78105D03*
D72*
X106045Y78105D03*
D39*
X122555Y78105D03*
D109*
X46990Y78740D03*
D22*
X96203Y78740D03*
X115888Y78740D03*
D54*
X140018Y78740D03*
D16*
X94615Y78740D03*
D73*
X106045Y78740D03*
D67*
X122873Y78740D03*
D110*
X48895Y79375D03*
D15*
X115570Y79375D03*
D55*
X140335Y79375D03*
D74*
X106363Y79375D03*
D71*
X122873Y79375D03*
D110*
X48895Y80010D03*
D15*
X115570Y80010D03*
D48*
X140653Y80010D03*
D74*
X106363Y80010D03*
D50*
X123190Y80010D03*
D110*
X48895Y80645D03*
D15*
X114935Y80645D03*
D48*
X140653Y80645D03*
D43*
X106045Y80645D03*
D66*
X122873Y80645D03*
D110*
X48895Y81280D03*
D15*
X114935Y81280D03*
D58*
X140970Y81280D03*
D43*
X106045Y81280D03*
D41*
X123190Y81280D03*
D111*
X49213Y81915D03*
D15*
X114935Y81915D03*
D60*
X141288Y81915D03*
D63*
X106363Y81915D03*
X123508Y81915D03*
D110*
X48895Y82550D03*
D15*
X114935Y82550D03*
D46*
X141605Y82550D03*
D43*
X106045Y82550D03*
X123825Y82550D03*
D111*
X49213Y83185D03*
D15*
X114300Y83185D03*
D46*
X141605Y83185D03*
D41*
X106045Y83185D03*
D74*
X123508Y83185D03*
D111*
X49213Y83820D03*
D15*
X114300Y83820D03*
D64*
X141923Y83820D03*
D41*
X106045Y83820D03*
D73*
X123825Y83820D03*
D112*
X49530Y84455D03*
D13*
X113983Y84455D03*
D64*
X141923Y84455D03*
D66*
X106363Y84455D03*
D20*
X123508Y84455D03*
D112*
X49530Y85090D03*
D22*
X113983Y85090D03*
D72*
X142240Y85090D03*
D50*
X106045Y85090D03*
D20*
X124143Y85090D03*
D112*
X49530Y85725D03*
D13*
X113983Y85725D03*
D72*
X142240Y85725D03*
D66*
X106363Y85725D03*
D72*
X123825Y85725D03*
D112*
X49530Y86360D03*
D15*
X113665Y86360D03*
D72*
X142240Y86360D03*
D50*
X106045Y86360D03*
D72*
X123825Y86360D03*
D112*
X49530Y86995D03*
D15*
X113665Y86995D03*
D20*
X142558Y86995D03*
D50*
X106045Y86995D03*
D64*
X124143Y86995D03*
D111*
X49213Y87630D03*
D13*
X113348Y87630D03*
D20*
X142558Y87630D03*
D66*
X105728Y87630D03*
D46*
X123825Y87630D03*
D112*
X49530Y88265D03*
D13*
X113348Y88265D03*
D73*
X142875Y88265D03*
D50*
X106045Y88265D03*
D60*
X124143Y88265D03*
D111*
X49213Y88900D03*
D13*
X113348Y88900D03*
D73*
X142875Y88900D03*
D66*
X105728Y88900D03*
D60*
X124143Y88900D03*
D111*
X49213Y89535D03*
D15*
X113030Y89535D03*
D73*
X142875Y89535D03*
D50*
X105410Y89535D03*
D60*
X124143Y89535D03*
D111*
X49213Y90170D03*
D13*
X112713Y90170D03*
D74*
X143193Y90170D03*
D50*
X105410Y90170D03*
D48*
X124143Y90170D03*
D111*
X49213Y90805D03*
D13*
X112713Y90805D03*
D74*
X143193Y90805D03*
D50*
X105410Y90805D03*
D48*
X124143Y90805D03*
D111*
X49213Y91440D03*
D15*
X112395Y91440D03*
D74*
X143193Y91440D03*
D71*
X105093Y91440D03*
D48*
X124143Y91440D03*
D111*
X49213Y92075D03*
D15*
X112395Y92075D03*
D43*
X143510Y92075D03*
D71*
X105093Y92075D03*
D55*
X124460Y92075D03*
D85*
X32703Y92710D03*
D16*
X67945Y92710D03*
D34*
X83820Y92710D03*
D13*
X112078Y92710D03*
D43*
X143510Y92710D03*
D15*
X66675Y92710D03*
D16*
X68580Y92710D03*
D71*
X105093Y92710D03*
D54*
X124143Y92710D03*
D113*
X32068Y93345D03*
D45*
X84455Y93345D03*
D13*
X112078Y93345D03*
D43*
X143510Y93345D03*
D29*
X67628Y93345D03*
D50*
X104775Y93345D03*
D54*
X124143Y93345D03*
D114*
X31750Y93980D03*
D42*
X84773Y93980D03*
D15*
X111760Y93980D03*
D63*
X143828Y93980D03*
D57*
X67628Y93980D03*
D71*
X104458Y93980D03*
D51*
X124460Y93980D03*
D114*
X31750Y94615D03*
D44*
X85090Y94615D03*
D15*
X111760Y94615D03*
D63*
X143828Y94615D03*
D69*
X67945Y94615D03*
D71*
X104458Y94615D03*
D51*
X124460Y94615D03*
D86*
X31433Y95250D03*
D44*
X85090Y95250D03*
D13*
X111443Y95250D03*
D63*
X143828Y95250D03*
D37*
X67628Y95250D03*
D71*
X104458Y95250D03*
D49*
X124143Y95250D03*
D86*
X31433Y95885D03*
D47*
X85408Y95885D03*
D13*
X111443Y95885D03*
D41*
X144145Y95885D03*
D61*
X67945Y95885D03*
D71*
X104458Y95885D03*
D68*
X124460Y95885D03*
D86*
X31433Y96520D03*
D47*
X85408Y96520D03*
D13*
X111443Y96520D03*
D63*
X143828Y96520D03*
D61*
X67945Y96520D03*
D71*
X104458Y96520D03*
D49*
X124143Y96520D03*
D86*
X31433Y97155D03*
D13*
X67628Y97155D03*
D49*
X85408Y97155D03*
D13*
X110808Y97155D03*
D63*
X143828Y97155D03*
D52*
X65088Y97155D03*
D24*
X70803Y97155D03*
D71*
X103823Y97155D03*
D68*
X123825Y97155D03*
D86*
X31433Y97790D03*
D22*
X67628Y97790D03*
D49*
X85408Y97790D03*
D13*
X110808Y97790D03*
D41*
X144145Y97790D03*
D12*
X64770Y97790D03*
D18*
X71120Y97790D03*
D71*
X103823Y97790D03*
D47*
X124143Y97790D03*
D86*
X31433Y98425D03*
D22*
X67628Y98425D03*
D51*
X85725Y98425D03*
D16*
X110490Y98425D03*
D41*
X144145Y98425D03*
D12*
X64770Y98425D03*
D24*
X71438Y98425D03*
D71*
X103823Y98425D03*
D44*
X123825Y98425D03*
D86*
X31433Y99060D03*
D15*
X67945Y99060D03*
D55*
X85725Y99060D03*
D13*
X110173Y99060D03*
D41*
X144145Y99060D03*
D52*
X65088Y99060D03*
D26*
X71755Y99060D03*
D71*
X103188Y99060D03*
D44*
X123825Y99060D03*
D86*
X31433Y99695D03*
D13*
X68263Y99695D03*
D48*
X85408Y99695D03*
D13*
X110173Y99695D03*
D41*
X144145Y99695D03*
D18*
X65405Y99695D03*
D26*
X71755Y99695D03*
D50*
X102870Y99695D03*
D44*
X123825Y99695D03*
D86*
X31433Y100330D03*
D13*
X68263Y100330D03*
D60*
X85408Y100330D03*
D13*
X110173Y100330D03*
D41*
X144145Y100330D03*
D18*
X65405Y100330D03*
D29*
X72073Y100330D03*
D66*
X102553Y100330D03*
D44*
X123825Y100330D03*
D86*
X31433Y100965D03*
D15*
X68580Y100965D03*
D46*
X85090Y100965D03*
D16*
X109855Y100965D03*
D41*
X144145Y100965D03*
D18*
X65405Y100965D03*
D26*
X72390Y100965D03*
D41*
X102235Y100965D03*
D42*
X123508Y100965D03*
D86*
X31433Y101600D03*
D13*
X68898Y101600D03*
D20*
X84773Y101600D03*
D16*
X109855Y101600D03*
D66*
X144463Y101600D03*
D24*
X65723Y101600D03*
D29*
X72708Y101600D03*
D43*
X101600Y101600D03*
D45*
X123825Y101600D03*
D114*
X31750Y102235D03*
D15*
X69215Y102235D03*
D74*
X84138Y102235D03*
D13*
X109538Y102235D03*
D66*
X144463Y102235D03*
D18*
X66040Y102235D03*
D26*
X73025Y102235D03*
D74*
X100648Y102235D03*
D45*
X123825Y102235D03*
D113*
X32068Y102870D03*
D13*
X69533Y102870D03*
D74*
X80963Y102870D03*
D13*
X109538Y102870D03*
D66*
X144463Y102870D03*
D18*
X66675Y102870D03*
D22*
X71438Y102870D03*
D46*
X99060Y102870D03*
D45*
X123825Y102870D03*
D115*
X32385Y103505D03*
D16*
X66675Y103505D03*
D73*
X77470Y103505D03*
D16*
X109220Y103505D03*
D66*
X144463Y103505D03*
D13*
X65723Y103505D03*
D15*
X67945Y103505D03*
D54*
X97473Y103505D03*
D53*
X123508Y103505D03*
D116*
X42228Y104140D03*
D16*
X109220Y104140D03*
D66*
X144463Y104140D03*
D49*
X96838Y104140D03*
D53*
X123508Y104140D03*
D117*
X39370Y104775D03*
D22*
X80963Y104775D03*
D13*
X108903Y104775D03*
D66*
X144463Y104775D03*
D16*
X79375Y104775D03*
D44*
X95250Y104775D03*
D53*
X123508Y104775D03*
D85*
X32703Y105410D03*
D13*
X66993Y105410D03*
X108903Y105410D03*
D50*
X144780Y105410D03*
D16*
X66040Y105410D03*
D35*
X87948Y105410D03*
D59*
X123825Y105410D03*
D87*
X29528Y106045D03*
D13*
X60643Y106045D03*
X108903Y106045D03*
D66*
X144463Y106045D03*
D16*
X59690Y106045D03*
D118*
X84773Y106045D03*
D53*
X123508Y106045D03*
D119*
X28258Y106680D03*
D16*
X108585Y106680D03*
D66*
X144463Y106680D03*
D120*
X82550Y106680D03*
D59*
X123190Y106680D03*
D77*
X27305Y107315D03*
D16*
X108585Y107315D03*
D50*
X144780Y107315D03*
D121*
X81598Y107315D03*
D65*
X123508Y107315D03*
D121*
X26353Y107950D03*
D13*
X108268Y107950D03*
D66*
X144463Y107950D03*
D76*
X80328Y107950D03*
D59*
X123190Y107950D03*
D122*
X26035Y108585D03*
D13*
X108268Y108585D03*
D50*
X144780Y108585D03*
D77*
X80010Y108585D03*
D65*
X123508Y108585D03*
D120*
X25400Y109220D03*
D16*
X107950Y109220D03*
D50*
X144780Y109220D03*
D89*
X79375Y109220D03*
D34*
X123190Y109220D03*
D123*
X24765Y109855D03*
D13*
X108268Y109855D03*
D50*
X144780Y109855D03*
D124*
X78740Y109855D03*
D65*
X123508Y109855D03*
D90*
X23813Y110490D03*
D16*
X107950Y110490D03*
D50*
X144780Y110490D03*
D87*
X77788Y110490D03*
D34*
X123190Y110490D03*
D118*
X23178Y111125D03*
D16*
X107950Y111125D03*
D50*
X144780Y111125D03*
D79*
X77153Y111125D03*
D34*
X123190Y111125D03*
D125*
X22543Y111760D03*
D13*
X107633Y111760D03*
D50*
X144780Y111760D03*
D80*
X76200Y111760D03*
D34*
X123190Y111760D03*
D126*
X22225Y112395D03*
D13*
X107633Y112395D03*
D50*
X144780Y112395D03*
D127*
X75883Y112395D03*
D34*
X123190Y112395D03*
D95*
X21908Y113030D03*
D13*
X107633Y113030D03*
D50*
X144780Y113030D03*
D128*
X75565Y113030D03*
D34*
X123190Y113030D03*
D129*
X21590Y113665D03*
D13*
X107633Y113665D03*
D50*
X144780Y113665D03*
D86*
X75248Y113665D03*
D34*
X123190Y113665D03*
D130*
X21273Y114300D03*
D16*
X107315Y114300D03*
D50*
X144780Y114300D03*
D114*
X74930Y114300D03*
D27*
X122873Y114300D03*
D130*
X21273Y114935D03*
D16*
X107315Y114935D03*
D50*
X144780Y114935D03*
D114*
X74930Y114935D03*
D27*
X122873Y114935D03*
D30*
X20955Y115570D03*
D16*
X107315Y115570D03*
D50*
X144780Y115570D03*
D113*
X74613Y115570D03*
D27*
X122873Y115570D03*
D32*
X20638Y116205D03*
D13*
X106998Y116205D03*
D50*
X144780Y116205D03*
D113*
X73978Y116205D03*
D27*
X122873Y116205D03*
D131*
X20320Y116840D03*
D16*
X107315Y116840D03*
D50*
X144780Y116840D03*
D85*
X73978Y116840D03*
D27*
X122873Y116840D03*
D131*
X20320Y117475D03*
D16*
X107315Y117475D03*
D50*
X144780Y117475D03*
D85*
X73978Y117475D03*
D27*
X122873Y117475D03*
D131*
X20320Y118110D03*
D13*
X106998Y118110D03*
D50*
X144780Y118110D03*
D115*
X73660Y118110D03*
D27*
X122873Y118110D03*
D131*
X20320Y118745D03*
D13*
X106998Y118745D03*
D50*
X144780Y118745D03*
D115*
X73660Y118745D03*
D27*
X122873Y118745D03*
D131*
X20320Y119380D03*
D16*
X90170Y119380D03*
D13*
X106998Y119380D03*
D50*
X144780Y119380D03*
D132*
X65405Y119380D03*
D43*
X98425Y119380D03*
D27*
X122873Y119380D03*
D35*
X20003Y120015D03*
D22*
X90488Y120015D03*
D13*
X106998Y120015D03*
D66*
X144463Y120015D03*
D132*
X64770Y120015D03*
D41*
X99060Y120015D03*
D34*
X122555Y120015D03*
D131*
X20320Y120650D03*
D52*
X90488Y120650D03*
D16*
X106680Y120650D03*
D66*
X144463Y120650D03*
D93*
X64770Y120650D03*
D66*
X99378Y120650D03*
D27*
X122238Y120650D03*
D35*
X20003Y121285D03*
D52*
X90488Y121285D03*
D16*
X106680Y121285D03*
D41*
X144145Y121285D03*
D90*
X64453Y121285D03*
D66*
X99378Y121285D03*
D34*
X121920Y121285D03*
D35*
X20003Y121920D03*
D13*
X82233Y121920D03*
D18*
X90805Y121920D03*
D16*
X106680Y121920D03*
D63*
X143828Y121920D03*
D131*
X60960Y121920D03*
D26*
X85725Y121920D03*
D50*
X99695Y121920D03*
D65*
X121603Y121920D03*
D35*
X20003Y122555D03*
D22*
X82233Y122555D03*
D18*
X90805Y122555D03*
D16*
X106680Y122555D03*
D43*
X143510Y122555D03*
D35*
X60643Y122555D03*
D24*
X86043Y122555D03*
D50*
X99695Y122555D03*
D59*
X121285Y122555D03*
D35*
X20003Y123190D03*
D12*
X82550Y123190D03*
D18*
X90805Y123190D03*
D16*
X106680Y123190D03*
D43*
X143510Y123190D03*
D35*
X60643Y123190D03*
D18*
X86360Y123190D03*
D50*
X99695Y123190D03*
D59*
X121285Y123190D03*
D35*
X20003Y123825D03*
D16*
X43815Y123825D03*
D12*
X83185Y123825D03*
D24*
X91123Y123825D03*
D16*
X106680Y123825D03*
D74*
X143193Y123825D03*
D12*
X41910Y123825D03*
D36*
X62865Y123825D03*
D52*
X86678Y123825D03*
D71*
X100013Y123825D03*
D53*
X120968Y123825D03*
D133*
X24448Y124460D03*
D22*
X53658Y124460D03*
D50*
X62230Y124460D03*
D22*
X82868Y124460D03*
D18*
X91440Y124460D03*
D16*
X106680Y124460D03*
D73*
X142875Y124460D03*
D12*
X50800Y124460D03*
D16*
X55245Y124460D03*
D71*
X75248Y124460D03*
D24*
X86678Y124460D03*
D71*
X100013Y124460D03*
D45*
X120650Y124460D03*
D134*
X36513Y125095D03*
D12*
X83185Y125095D03*
D18*
X91440Y125095D03*
D16*
X106680Y125095D03*
D20*
X142558Y125095D03*
D69*
X77470Y125095D03*
D18*
X86995Y125095D03*
D71*
X100013Y125095D03*
D42*
X120333Y125095D03*
D82*
X36830Y125730D03*
D12*
X83185Y125730D03*
D18*
X91440Y125730D03*
D13*
X106363Y125730D03*
D20*
X142558Y125730D03*
D57*
X77788Y125730D03*
D18*
X86995Y125730D03*
D70*
X99695Y125730D03*
D42*
X120333Y125730D03*
D135*
X37148Y126365D03*
D12*
X83820Y126365D03*
X91440Y126365D03*
D13*
X98108Y126365D03*
X106363Y126365D03*
D72*
X142240Y126365D03*
D57*
X78423Y126365D03*
D18*
X87630Y126365D03*
X95250Y126365D03*
D56*
X102235Y126365D03*
D44*
X120015Y126365D03*
D135*
X37148Y127000D03*
D12*
X83820Y127000D03*
D15*
X91440Y127000D03*
D22*
X98108Y127000D03*
D13*
X106363Y127000D03*
D64*
X141923Y127000D03*
D57*
X78423Y127000D03*
D24*
X87948Y127000D03*
D18*
X94615Y127000D03*
D29*
X102553Y127000D03*
D47*
X119698Y127000D03*
D136*
X37465Y127635D03*
D12*
X83820Y127635D03*
D22*
X98108Y127635D03*
D13*
X106363Y127635D03*
D46*
X141605Y127635D03*
D56*
X78740Y127635D03*
D67*
X91123Y127635D03*
D29*
X102553Y127635D03*
D68*
X119380Y127635D03*
D136*
X37465Y128270D03*
D12*
X83820Y128270D03*
D22*
X97473Y128270D03*
D13*
X106363Y128270D03*
D60*
X141288Y128270D03*
D56*
X78740Y128270D03*
D39*
X90805Y128270D03*
D56*
X102235Y128270D03*
D49*
X119063Y128270D03*
D137*
X37783Y128905D03*
D22*
X84138Y128905D03*
D15*
X97155Y128905D03*
D13*
X106363Y128905D03*
D58*
X140970Y128905D03*
D56*
X79375Y128905D03*
D39*
X90805Y128905D03*
D57*
X101918Y128905D03*
D51*
X118745Y128905D03*
D137*
X37783Y129540D03*
D13*
X84138Y129540D03*
D15*
X96520Y129540D03*
D13*
X106363Y129540D03*
D48*
X140653Y129540D03*
D57*
X79693Y129540D03*
D39*
X90170Y129540D03*
D69*
X101600Y129540D03*
D54*
X118428Y129540D03*
D137*
X37783Y130175D03*
D15*
X95885Y130175D03*
D13*
X106363Y130175D03*
D55*
X140335Y130175D03*
D64*
X85408Y130175D03*
D37*
X101283Y130175D03*
D55*
X118110Y130175D03*
D137*
X37783Y130810D03*
D15*
X95885Y130810D03*
D13*
X106363Y130810D03*
D54*
X140018Y130810D03*
D64*
X85408Y130810D03*
D37*
X101283Y130810D03*
D48*
X117793Y130810D03*
D137*
X37783Y131445D03*
D15*
X95250Y131445D03*
D13*
X106363Y131445D03*
D51*
X139700Y131445D03*
D72*
X85090Y131445D03*
D61*
X100965Y131445D03*
D58*
X117475Y131445D03*
D137*
X37783Y132080D03*
D15*
X94615Y132080D03*
D13*
X106363Y132080D03*
D49*
X139383Y132080D03*
D20*
X84773Y132080D03*
D62*
X100648Y132080D03*
D60*
X117158Y132080D03*
D137*
X37783Y132715D03*
D15*
X93980Y132715D03*
D13*
X106363Y132715D03*
D68*
X139065Y132715D03*
D73*
X84455Y132715D03*
D39*
X100330Y132715D03*
D46*
X116840Y132715D03*
D138*
X38100Y133350D03*
D12*
X93345Y133350D03*
D13*
X106363Y133350D03*
D47*
X138748Y133350D03*
D63*
X84138Y133350D03*
D39*
X100330Y133350D03*
D64*
X116523Y133350D03*
D138*
X38100Y133985D03*
D12*
X92710Y133985D03*
D13*
X106363Y133985D03*
D44*
X138430Y133985D03*
D41*
X83820Y133985D03*
D67*
X100013Y133985D03*
D72*
X116205Y133985D03*
D139*
X38418Y134620D03*
D12*
X92075Y134620D03*
D13*
X106363Y134620D03*
D42*
X138113Y134620D03*
D50*
X83820Y134620D03*
D70*
X99695Y134620D03*
D20*
X115888Y134620D03*
D140*
X38735Y135255D03*
D22*
X91758Y135255D03*
D13*
X106363Y135255D03*
D45*
X137795Y135255D03*
D71*
X84138Y135255D03*
X99378Y135255D03*
D73*
X115570Y135255D03*
D140*
X38735Y135890D03*
D13*
X106363Y135890D03*
D59*
X137160Y135890D03*
D53*
X91758Y135890D03*
D43*
X114935Y135890D03*
D141*
X39053Y136525D03*
D13*
X106363Y136525D03*
D65*
X136843Y136525D03*
D45*
X92075Y136525D03*
D63*
X114618Y136525D03*
D117*
X39370Y137160D03*
D13*
X106363Y137160D03*
D34*
X136525Y137160D03*
D42*
X92393Y137160D03*
D41*
X114300Y137160D03*
D142*
X39688Y137795D03*
D13*
X106363Y137795D03*
D27*
X136208Y137795D03*
D44*
X92710Y137795D03*
D66*
X113983Y137795D03*
D28*
X40005Y138430D03*
D13*
X106363Y138430D03*
D25*
X135890Y138430D03*
D47*
X93028Y138430D03*
D50*
X113665Y138430D03*
D23*
X40323Y139065D03*
D13*
X106363Y139065D03*
D17*
X135255Y139065D03*
D68*
X93345Y139065D03*
D70*
X113030Y139065D03*
D143*
X40958Y139700D03*
D13*
X106363Y139700D03*
D38*
X134938Y139700D03*
D51*
X93980Y139700D03*
D67*
X112713Y139700D03*
D144*
X41275Y140335D03*
D13*
X106363Y140335D03*
D11*
X134620Y140335D03*
D54*
X94298Y140335D03*
D39*
X112395Y140335D03*
D145*
X41910Y140970D03*
D15*
X106680Y140970D03*
D33*
X133985Y140970D03*
D48*
X94933Y140970D03*
D37*
X112078Y140970D03*
D81*
X42545Y141605D03*
D12*
X106045Y141605D03*
D31*
X133668Y141605D03*
D64*
X94933Y141605D03*
D69*
X111760Y141605D03*
D146*
X45403Y142240D03*
D43*
X99695Y142240D03*
D147*
X133033Y142240D03*
D16*
X91440Y142240D03*
D56*
X111125Y142240D03*
D148*
X53975Y142875D03*
D96*
X131763Y142875D03*
D52*
X110173Y142875D03*
D10*
X75565Y143510D03*
X75565Y144145D03*
X75565Y144780D03*
X75565Y145415D03*
X75565Y146050D03*
X75565Y146685D03*
X75565Y147320D03*
X75565Y147955D03*
X75565Y148590D03*
X75565Y149225D03*
X75565Y149860D03*
X75565Y150495D03*
X75565Y151130D03*
X75565Y151765D03*
D149*
X564Y-3175D02*
X282Y-3175D01*
X250Y-3173D01*
X219Y-3168D01*
X189Y-3159D01*
X160Y-3147D01*
X132Y-3132D01*
X106Y-3113D01*
X83Y-3092D01*
X62Y-3069D01*
X43Y-3043D01*
X28Y-3015D01*
X16Y-2986D01*
X7Y-2956D01*
X2Y-2925D01*
X0Y-2893D01*
X0Y-2187D01*
X2Y-2155D01*
X7Y-2124D01*
X16Y-2094D01*
X28Y-2065D01*
X43Y-2037D01*
X62Y-2011D01*
X83Y-1988D01*
X106Y-1967D01*
X132Y-1948D01*
X160Y-1933D01*
X189Y-1921D01*
X219Y-1912D01*
X250Y-1907D01*
X282Y-1905D01*
X564Y-1905D01*
X967Y-2999D02*
X967Y-3069D01*
X967Y-2999D02*
X1037Y-2999D01*
X1037Y-3069D01*
X967Y-3069D01*
X967Y-2505D02*
X967Y-2434D01*
X1037Y-2434D01*
X1037Y-2505D01*
X967Y-2505D01*
X1444Y-3316D02*
X2008Y-1764D01*
X2440Y-1905D02*
X2440Y-2822D01*
X2442Y-2859D01*
X2448Y-2895D01*
X2457Y-2931D01*
X2471Y-2966D01*
X2487Y-2999D01*
X2507Y-3029D01*
X2531Y-3058D01*
X2557Y-3084D01*
X2586Y-3108D01*
X2617Y-3128D01*
X2649Y-3144D01*
X2684Y-3158D01*
X2720Y-3167D01*
X2756Y-3173D01*
X2793Y-3175D01*
X2830Y-3173D01*
X2866Y-3167D01*
X2902Y-3158D01*
X2937Y-3144D01*
X2969Y-3128D01*
X3000Y-3108D01*
X3029Y-3084D01*
X3055Y-3058D01*
X3079Y-3029D01*
X3099Y-2999D01*
X3115Y-2966D01*
X3129Y-2931D01*
X3138Y-2895D01*
X3144Y-2859D01*
X3146Y-2822D01*
X3145Y-2822D02*
X3145Y-1905D01*
X3721Y-2681D02*
X4074Y-2822D01*
X3721Y-2681D02*
X3697Y-2669D01*
X3675Y-2654D01*
X3655Y-2636D01*
X3639Y-2615D01*
X3625Y-2592D01*
X3615Y-2567D01*
X3609Y-2542D01*
X3606Y-2515D01*
X3607Y-2488D01*
X3613Y-2462D01*
X3622Y-2437D01*
X3634Y-2413D01*
X3650Y-2392D01*
X3669Y-2373D01*
X3690Y-2357D01*
X3714Y-2344D01*
X3739Y-2335D01*
X3765Y-2330D01*
X3792Y-2328D01*
X3791Y-2328D02*
X3846Y-2331D01*
X3900Y-2337D01*
X3954Y-2347D01*
X4007Y-2361D01*
X4058Y-2378D01*
X4109Y-2399D01*
X4074Y-2822D02*
X4098Y-2834D01*
X4120Y-2849D01*
X4140Y-2867D01*
X4156Y-2888D01*
X4170Y-2911D01*
X4180Y-2936D01*
X4186Y-2961D01*
X4189Y-2988D01*
X4188Y-3015D01*
X4182Y-3041D01*
X4173Y-3066D01*
X4161Y-3090D01*
X4145Y-3111D01*
X4126Y-3130D01*
X4105Y-3146D01*
X4081Y-3159D01*
X4056Y-3168D01*
X4030Y-3173D01*
X4003Y-3175D01*
X4004Y-3176D02*
X3938Y-3173D01*
X3872Y-3167D01*
X3807Y-3157D01*
X3742Y-3143D01*
X3678Y-3126D01*
X3616Y-3105D01*
X4818Y-3175D02*
X5170Y-3175D01*
X4818Y-3175D02*
X4790Y-3173D01*
X4763Y-3168D01*
X4737Y-3159D01*
X4712Y-3147D01*
X4689Y-3131D01*
X4668Y-3113D01*
X4650Y-3092D01*
X4634Y-3069D01*
X4622Y-3044D01*
X4613Y-3018D01*
X4608Y-2991D01*
X4606Y-2963D01*
X4606Y-2611D01*
X4608Y-2578D01*
X4614Y-2546D01*
X4623Y-2515D01*
X4636Y-2484D01*
X4652Y-2456D01*
X4672Y-2430D01*
X4694Y-2406D01*
X4720Y-2385D01*
X4747Y-2367D01*
X4776Y-2352D01*
X4807Y-2341D01*
X4839Y-2333D01*
X4872Y-2329D01*
X4904Y-2329D01*
X4937Y-2333D01*
X4969Y-2341D01*
X5000Y-2352D01*
X5029Y-2367D01*
X5056Y-2385D01*
X5082Y-2406D01*
X5104Y-2430D01*
X5124Y-2456D01*
X5140Y-2484D01*
X5153Y-2515D01*
X5162Y-2546D01*
X5168Y-2578D01*
X5170Y-2611D01*
X5170Y-2752D01*
X4606Y-2752D01*
X5638Y-3175D02*
X5638Y-2328D01*
X6061Y-2328D01*
X6061Y-2469D01*
X6502Y-2681D02*
X6855Y-2822D01*
X6502Y-2681D02*
X6478Y-2669D01*
X6456Y-2654D01*
X6436Y-2636D01*
X6420Y-2615D01*
X6406Y-2592D01*
X6396Y-2567D01*
X6390Y-2542D01*
X6387Y-2515D01*
X6388Y-2488D01*
X6394Y-2462D01*
X6403Y-2437D01*
X6415Y-2413D01*
X6431Y-2392D01*
X6450Y-2373D01*
X6471Y-2357D01*
X6495Y-2344D01*
X6520Y-2335D01*
X6546Y-2330D01*
X6573Y-2328D01*
X6628Y-2331D01*
X6682Y-2337D01*
X6736Y-2347D01*
X6789Y-2361D01*
X6840Y-2378D01*
X6891Y-2399D01*
X6855Y-2822D02*
X6879Y-2834D01*
X6901Y-2849D01*
X6921Y-2867D01*
X6937Y-2888D01*
X6951Y-2911D01*
X6961Y-2936D01*
X6967Y-2961D01*
X6970Y-2988D01*
X6969Y-3015D01*
X6963Y-3041D01*
X6954Y-3066D01*
X6942Y-3090D01*
X6926Y-3111D01*
X6907Y-3130D01*
X6886Y-3146D01*
X6862Y-3159D01*
X6837Y-3168D01*
X6811Y-3173D01*
X6784Y-3175D01*
X6785Y-3176D02*
X6719Y-3173D01*
X6653Y-3167D01*
X6588Y-3157D01*
X6523Y-3143D01*
X6459Y-3126D01*
X6397Y-3105D01*
X7349Y-3316D02*
X7913Y-1764D01*
X8354Y-1905D02*
X8354Y-3175D01*
X8354Y-1905D02*
X8706Y-1905D01*
X8743Y-1907D01*
X8779Y-1913D01*
X8815Y-1922D01*
X8850Y-1936D01*
X8883Y-1952D01*
X8913Y-1972D01*
X8942Y-1996D01*
X8968Y-2022D01*
X8992Y-2051D01*
X9012Y-2082D01*
X9028Y-2114D01*
X9042Y-2149D01*
X9051Y-2185D01*
X9057Y-2221D01*
X9059Y-2258D01*
X9057Y-2295D01*
X9051Y-2331D01*
X9042Y-2367D01*
X9028Y-2402D01*
X9012Y-2435D01*
X8992Y-2465D01*
X8968Y-2494D01*
X8942Y-2520D01*
X8913Y-2544D01*
X8883Y-2564D01*
X8850Y-2580D01*
X8815Y-2594D01*
X8779Y-2603D01*
X8743Y-2609D01*
X8706Y-2611D01*
X8354Y-2611D01*
X9391Y-1905D02*
X9673Y-3175D01*
X9955Y-2328D01*
X10237Y-3175D01*
X10520Y-1905D01*
X11004Y-2081D02*
X10979Y-2135D01*
X10958Y-2191D01*
X10940Y-2247D01*
X10925Y-2305D01*
X10913Y-2363D01*
X10905Y-2422D01*
X10900Y-2481D01*
X10898Y-2540D01*
X11004Y-2081D02*
X11015Y-2054D01*
X11029Y-2028D01*
X11046Y-2004D01*
X11066Y-1982D01*
X11088Y-1963D01*
X11111Y-1945D01*
X11137Y-1931D01*
X11164Y-1920D01*
X11193Y-1912D01*
X11222Y-1907D01*
X11251Y-1905D01*
X11280Y-1907D01*
X11309Y-1912D01*
X11338Y-1920D01*
X11365Y-1931D01*
X11391Y-1945D01*
X11414Y-1963D01*
X11436Y-1982D01*
X11456Y-2004D01*
X11473Y-2028D01*
X11487Y-2054D01*
X11498Y-2081D01*
X11523Y-2135D01*
X11544Y-2191D01*
X11562Y-2247D01*
X11577Y-2305D01*
X11589Y-2363D01*
X11597Y-2422D01*
X11602Y-2481D01*
X11604Y-2540D01*
X10898Y-2540D02*
X10900Y-2599D01*
X10905Y-2658D01*
X10913Y-2717D01*
X10925Y-2775D01*
X10940Y-2833D01*
X10958Y-2889D01*
X10979Y-2945D01*
X11004Y-2999D01*
X11015Y-3026D01*
X11029Y-3052D01*
X11046Y-3076D01*
X11066Y-3098D01*
X11088Y-3118D01*
X11112Y-3135D01*
X11137Y-3149D01*
X11164Y-3160D01*
X11193Y-3168D01*
X11222Y-3173D01*
X11251Y-3175D01*
X11498Y-2999D02*
X11523Y-2945D01*
X11544Y-2889D01*
X11562Y-2833D01*
X11577Y-2775D01*
X11589Y-2717D01*
X11597Y-2658D01*
X11602Y-2599D01*
X11604Y-2540D01*
X11498Y-2999D02*
X11487Y-3026D01*
X11473Y-3052D01*
X11456Y-3076D01*
X11436Y-3098D01*
X11414Y-3118D01*
X11390Y-3135D01*
X11365Y-3149D01*
X11338Y-3160D01*
X11309Y-3168D01*
X11280Y-3173D01*
X11251Y-3175D01*
X10968Y-2893D02*
X11533Y-2187D01*
X12041Y-2540D02*
X12043Y-2481D01*
X12048Y-2422D01*
X12056Y-2363D01*
X12068Y-2305D01*
X12083Y-2247D01*
X12101Y-2191D01*
X12122Y-2135D01*
X12147Y-2081D01*
X12158Y-2054D01*
X12172Y-2028D01*
X12189Y-2004D01*
X12209Y-1982D01*
X12231Y-1963D01*
X12254Y-1945D01*
X12280Y-1931D01*
X12307Y-1920D01*
X12336Y-1912D01*
X12365Y-1907D01*
X12394Y-1905D01*
X12423Y-1907D01*
X12452Y-1912D01*
X12481Y-1920D01*
X12508Y-1931D01*
X12534Y-1945D01*
X12557Y-1963D01*
X12579Y-1982D01*
X12599Y-2004D01*
X12616Y-2028D01*
X12630Y-2054D01*
X12641Y-2081D01*
X12666Y-2135D01*
X12687Y-2191D01*
X12705Y-2247D01*
X12720Y-2305D01*
X12732Y-2363D01*
X12740Y-2422D01*
X12745Y-2481D01*
X12747Y-2540D01*
X12041Y-2540D02*
X12043Y-2599D01*
X12048Y-2658D01*
X12056Y-2717D01*
X12068Y-2775D01*
X12083Y-2833D01*
X12101Y-2889D01*
X12122Y-2945D01*
X12147Y-2999D01*
X12158Y-3026D01*
X12172Y-3052D01*
X12189Y-3076D01*
X12209Y-3098D01*
X12231Y-3118D01*
X12255Y-3135D01*
X12280Y-3149D01*
X12307Y-3160D01*
X12336Y-3168D01*
X12365Y-3173D01*
X12394Y-3175D01*
X12641Y-2999D02*
X12666Y-2945D01*
X12687Y-2889D01*
X12705Y-2833D01*
X12720Y-2775D01*
X12732Y-2717D01*
X12740Y-2658D01*
X12745Y-2599D01*
X12747Y-2540D01*
X12641Y-2999D02*
X12630Y-3026D01*
X12616Y-3052D01*
X12599Y-3076D01*
X12579Y-3098D01*
X12557Y-3118D01*
X12533Y-3135D01*
X12508Y-3149D01*
X12481Y-3160D01*
X12452Y-3168D01*
X12423Y-3173D01*
X12394Y-3175D01*
X12111Y-2893D02*
X12676Y-2187D01*
X13184Y-2540D02*
X13186Y-2481D01*
X13191Y-2422D01*
X13199Y-2363D01*
X13211Y-2305D01*
X13226Y-2247D01*
X13244Y-2191D01*
X13265Y-2135D01*
X13290Y-2081D01*
X13301Y-2054D01*
X13315Y-2028D01*
X13332Y-2004D01*
X13352Y-1982D01*
X13374Y-1963D01*
X13397Y-1945D01*
X13423Y-1931D01*
X13450Y-1920D01*
X13479Y-1912D01*
X13508Y-1907D01*
X13537Y-1905D01*
X13566Y-1907D01*
X13595Y-1912D01*
X13624Y-1920D01*
X13651Y-1931D01*
X13677Y-1945D01*
X13700Y-1963D01*
X13722Y-1982D01*
X13742Y-2004D01*
X13759Y-2028D01*
X13773Y-2054D01*
X13784Y-2081D01*
X13809Y-2135D01*
X13830Y-2191D01*
X13848Y-2247D01*
X13863Y-2305D01*
X13875Y-2363D01*
X13883Y-2422D01*
X13888Y-2481D01*
X13890Y-2540D01*
X13184Y-2540D02*
X13186Y-2599D01*
X13191Y-2658D01*
X13199Y-2717D01*
X13211Y-2775D01*
X13226Y-2833D01*
X13244Y-2889D01*
X13265Y-2945D01*
X13290Y-2999D01*
X13301Y-3026D01*
X13315Y-3052D01*
X13332Y-3076D01*
X13352Y-3098D01*
X13374Y-3118D01*
X13398Y-3135D01*
X13423Y-3149D01*
X13450Y-3160D01*
X13479Y-3168D01*
X13508Y-3173D01*
X13537Y-3175D01*
X13784Y-2999D02*
X13809Y-2945D01*
X13830Y-2889D01*
X13848Y-2833D01*
X13863Y-2775D01*
X13875Y-2717D01*
X13883Y-2658D01*
X13888Y-2599D01*
X13890Y-2540D01*
X13784Y-2999D02*
X13773Y-3026D01*
X13759Y-3052D01*
X13742Y-3076D01*
X13722Y-3098D01*
X13700Y-3118D01*
X13676Y-3135D01*
X13651Y-3149D01*
X13624Y-3160D01*
X13595Y-3168D01*
X13566Y-3173D01*
X13537Y-3175D01*
X13254Y-2893D02*
X13819Y-2187D01*
X14327Y-2540D02*
X14329Y-2481D01*
X14334Y-2422D01*
X14342Y-2363D01*
X14354Y-2305D01*
X14369Y-2247D01*
X14387Y-2191D01*
X14408Y-2135D01*
X14433Y-2081D01*
X14444Y-2054D01*
X14458Y-2028D01*
X14475Y-2004D01*
X14495Y-1982D01*
X14517Y-1963D01*
X14540Y-1945D01*
X14566Y-1931D01*
X14593Y-1920D01*
X14622Y-1912D01*
X14651Y-1907D01*
X14680Y-1905D01*
X14709Y-1907D01*
X14738Y-1912D01*
X14767Y-1920D01*
X14794Y-1931D01*
X14820Y-1945D01*
X14843Y-1963D01*
X14865Y-1982D01*
X14885Y-2004D01*
X14902Y-2028D01*
X14916Y-2054D01*
X14927Y-2081D01*
X14952Y-2135D01*
X14973Y-2191D01*
X14991Y-2247D01*
X15006Y-2305D01*
X15018Y-2363D01*
X15026Y-2422D01*
X15031Y-2481D01*
X15033Y-2540D01*
X14327Y-2540D02*
X14329Y-2599D01*
X14334Y-2658D01*
X14342Y-2717D01*
X14354Y-2775D01*
X14369Y-2833D01*
X14387Y-2889D01*
X14408Y-2945D01*
X14433Y-2999D01*
X14444Y-3026D01*
X14458Y-3052D01*
X14475Y-3076D01*
X14495Y-3098D01*
X14517Y-3118D01*
X14541Y-3135D01*
X14566Y-3149D01*
X14593Y-3160D01*
X14622Y-3168D01*
X14651Y-3173D01*
X14680Y-3175D01*
X14926Y-2999D02*
X14951Y-2945D01*
X14972Y-2889D01*
X14990Y-2833D01*
X15005Y-2775D01*
X15017Y-2717D01*
X15025Y-2658D01*
X15030Y-2599D01*
X15032Y-2540D01*
X14927Y-2999D02*
X14916Y-3026D01*
X14902Y-3052D01*
X14885Y-3076D01*
X14865Y-3098D01*
X14843Y-3118D01*
X14819Y-3135D01*
X14794Y-3149D01*
X14767Y-3160D01*
X14738Y-3168D01*
X14709Y-3173D01*
X14680Y-3175D01*
X14397Y-2893D02*
X14962Y-2187D01*
X15990Y-1764D02*
X15426Y-3316D01*
X16422Y-3175D02*
X16422Y-1905D01*
X16775Y-1905D01*
X16810Y-1907D01*
X16844Y-1912D01*
X16877Y-1920D01*
X16910Y-1932D01*
X16941Y-1947D01*
X16971Y-1964D01*
X16999Y-1985D01*
X17025Y-2008D01*
X17048Y-2034D01*
X17069Y-2062D01*
X17086Y-2092D01*
X17101Y-2123D01*
X17113Y-2156D01*
X17121Y-2189D01*
X17126Y-2223D01*
X17128Y-2258D01*
X17128Y-2822D01*
X17126Y-2859D01*
X17120Y-2895D01*
X17111Y-2931D01*
X17097Y-2966D01*
X17081Y-2999D01*
X17061Y-3029D01*
X17037Y-3058D01*
X17011Y-3084D01*
X16982Y-3108D01*
X16952Y-3128D01*
X16919Y-3144D01*
X16884Y-3158D01*
X16848Y-3167D01*
X16812Y-3173D01*
X16775Y-3175D01*
X16422Y-3175D01*
X17598Y-2893D02*
X17598Y-2611D01*
X17600Y-2578D01*
X17606Y-2546D01*
X17615Y-2515D01*
X17628Y-2484D01*
X17644Y-2456D01*
X17664Y-2430D01*
X17686Y-2406D01*
X17712Y-2385D01*
X17739Y-2367D01*
X17768Y-2352D01*
X17799Y-2341D01*
X17831Y-2333D01*
X17864Y-2329D01*
X17896Y-2329D01*
X17929Y-2333D01*
X17961Y-2341D01*
X17992Y-2352D01*
X18021Y-2367D01*
X18048Y-2385D01*
X18074Y-2406D01*
X18096Y-2430D01*
X18116Y-2456D01*
X18132Y-2484D01*
X18145Y-2515D01*
X18154Y-2546D01*
X18160Y-2578D01*
X18162Y-2611D01*
X18162Y-2893D01*
X18160Y-2926D01*
X18154Y-2958D01*
X18145Y-2989D01*
X18132Y-3020D01*
X18116Y-3048D01*
X18096Y-3074D01*
X18074Y-3098D01*
X18048Y-3119D01*
X18021Y-3137D01*
X17992Y-3152D01*
X17961Y-3163D01*
X17929Y-3171D01*
X17896Y-3175D01*
X17864Y-3175D01*
X17831Y-3171D01*
X17799Y-3163D01*
X17768Y-3152D01*
X17739Y-3137D01*
X17712Y-3119D01*
X17686Y-3098D01*
X17664Y-3074D01*
X17644Y-3048D01*
X17628Y-3020D01*
X17615Y-2989D01*
X17606Y-2958D01*
X17600Y-2926D01*
X17598Y-2893D01*
X18561Y-2328D02*
X18773Y-3175D01*
X18985Y-2611D01*
X19196Y-3175D01*
X19408Y-2328D01*
X19845Y-2328D02*
X19845Y-3175D01*
X19845Y-2328D02*
X20198Y-2328D01*
X20226Y-2330D01*
X20253Y-2335D01*
X20279Y-2344D01*
X20304Y-2356D01*
X20327Y-2372D01*
X20348Y-2390D01*
X20366Y-2411D01*
X20382Y-2434D01*
X20394Y-2459D01*
X20403Y-2485D01*
X20408Y-2512D01*
X20410Y-2540D01*
X20410Y-3175D01*
X20901Y-2963D02*
X20901Y-1905D01*
X20900Y-2963D02*
X20902Y-2991D01*
X20907Y-3018D01*
X20916Y-3044D01*
X20928Y-3069D01*
X20944Y-3092D01*
X20962Y-3113D01*
X20983Y-3131D01*
X21006Y-3147D01*
X21031Y-3159D01*
X21057Y-3168D01*
X21084Y-3173D01*
X21112Y-3175D01*
X21484Y-2893D02*
X21484Y-2611D01*
X21486Y-2578D01*
X21492Y-2546D01*
X21501Y-2515D01*
X21514Y-2484D01*
X21530Y-2456D01*
X21550Y-2430D01*
X21572Y-2406D01*
X21598Y-2385D01*
X21625Y-2367D01*
X21654Y-2352D01*
X21685Y-2341D01*
X21717Y-2333D01*
X21750Y-2329D01*
X21782Y-2329D01*
X21815Y-2333D01*
X21847Y-2341D01*
X21878Y-2352D01*
X21907Y-2367D01*
X21934Y-2385D01*
X21960Y-2406D01*
X21982Y-2430D01*
X22002Y-2456D01*
X22018Y-2484D01*
X22031Y-2515D01*
X22040Y-2546D01*
X22046Y-2578D01*
X22048Y-2611D01*
X22048Y-2893D01*
X22046Y-2926D01*
X22040Y-2958D01*
X22031Y-2989D01*
X22018Y-3020D01*
X22002Y-3048D01*
X21982Y-3074D01*
X21960Y-3098D01*
X21934Y-3119D01*
X21907Y-3137D01*
X21878Y-3152D01*
X21847Y-3163D01*
X21815Y-3171D01*
X21782Y-3175D01*
X21750Y-3175D01*
X21717Y-3171D01*
X21685Y-3163D01*
X21654Y-3152D01*
X21625Y-3137D01*
X21598Y-3119D01*
X21572Y-3098D01*
X21550Y-3074D01*
X21530Y-3048D01*
X21514Y-3020D01*
X21501Y-2989D01*
X21492Y-2958D01*
X21486Y-2926D01*
X21484Y-2893D01*
X22718Y-2681D02*
X23036Y-2681D01*
X22718Y-2681D02*
X22688Y-2683D01*
X22659Y-2688D01*
X22630Y-2697D01*
X22603Y-2709D01*
X22578Y-2725D01*
X22554Y-2743D01*
X22533Y-2764D01*
X22515Y-2788D01*
X22499Y-2813D01*
X22487Y-2840D01*
X22478Y-2869D01*
X22473Y-2898D01*
X22471Y-2928D01*
X22473Y-2958D01*
X22478Y-2987D01*
X22487Y-3016D01*
X22499Y-3043D01*
X22515Y-3068D01*
X22533Y-3092D01*
X22554Y-3113D01*
X22578Y-3131D01*
X22603Y-3147D01*
X22630Y-3159D01*
X22659Y-3168D01*
X22688Y-3173D01*
X22718Y-3175D01*
X23036Y-3175D01*
X23036Y-2540D01*
X23034Y-2512D01*
X23029Y-2485D01*
X23020Y-2459D01*
X23008Y-2434D01*
X22992Y-2411D01*
X22974Y-2390D01*
X22953Y-2372D01*
X22930Y-2356D01*
X22905Y-2344D01*
X22879Y-2335D01*
X22852Y-2330D01*
X22824Y-2328D01*
X22542Y-2328D01*
X24064Y-1905D02*
X24064Y-3175D01*
X23712Y-3175D01*
X23684Y-3173D01*
X23657Y-3168D01*
X23631Y-3159D01*
X23606Y-3147D01*
X23583Y-3131D01*
X23562Y-3113D01*
X23544Y-3092D01*
X23528Y-3069D01*
X23516Y-3044D01*
X23507Y-3018D01*
X23502Y-2991D01*
X23500Y-2963D01*
X23500Y-2540D01*
X23502Y-2512D01*
X23507Y-2485D01*
X23516Y-2459D01*
X23528Y-2434D01*
X23544Y-2411D01*
X23562Y-2390D01*
X23583Y-2372D01*
X23606Y-2356D01*
X23631Y-2344D01*
X23657Y-2335D01*
X23684Y-2330D01*
X23712Y-2328D01*
X24064Y-2328D01*
X24637Y-2681D02*
X24990Y-2822D01*
X24637Y-2681D02*
X24613Y-2669D01*
X24591Y-2654D01*
X24571Y-2636D01*
X24555Y-2615D01*
X24541Y-2592D01*
X24531Y-2567D01*
X24525Y-2542D01*
X24522Y-2515D01*
X24523Y-2488D01*
X24529Y-2462D01*
X24538Y-2437D01*
X24550Y-2413D01*
X24566Y-2392D01*
X24585Y-2373D01*
X24606Y-2357D01*
X24630Y-2344D01*
X24655Y-2335D01*
X24681Y-2330D01*
X24708Y-2328D01*
X24763Y-2331D01*
X24817Y-2337D01*
X24871Y-2347D01*
X24924Y-2361D01*
X24975Y-2378D01*
X25026Y-2399D01*
X24990Y-2822D02*
X25014Y-2834D01*
X25036Y-2849D01*
X25056Y-2867D01*
X25072Y-2888D01*
X25086Y-2911D01*
X25096Y-2936D01*
X25102Y-2961D01*
X25105Y-2988D01*
X25104Y-3015D01*
X25098Y-3041D01*
X25089Y-3066D01*
X25077Y-3090D01*
X25061Y-3111D01*
X25042Y-3130D01*
X25021Y-3146D01*
X24997Y-3159D01*
X24972Y-3168D01*
X24946Y-3173D01*
X24919Y-3175D01*
X24920Y-3176D02*
X24854Y-3173D01*
X24788Y-3167D01*
X24723Y-3157D01*
X24658Y-3143D01*
X24594Y-3126D01*
X24532Y-3105D01*
X25484Y-3316D02*
X26048Y-1764D01*
X27100Y-2928D02*
X27100Y-2963D01*
X27276Y-2328D02*
X27274Y-2306D01*
X27269Y-2284D01*
X27261Y-2264D01*
X27249Y-2245D01*
X27235Y-2228D01*
X27218Y-2214D01*
X27199Y-2202D01*
X27179Y-2194D01*
X27157Y-2189D01*
X27135Y-2187D01*
X27135Y-2188D02*
X27099Y-2189D01*
X27063Y-2194D01*
X27027Y-2201D01*
X26993Y-2211D01*
X26959Y-2223D01*
X27276Y-2328D02*
X27275Y-2351D01*
X27270Y-2373D01*
X27263Y-2394D01*
X27253Y-2415D01*
X27241Y-2434D01*
X27240Y-2434D02*
X27219Y-2460D01*
X27196Y-2483D01*
X27170Y-2504D01*
X27170Y-2505D02*
X27151Y-2522D01*
X27134Y-2542D01*
X27119Y-2563D01*
X27108Y-2586D01*
X27100Y-2611D01*
X27100Y-2681D01*
X27770Y-2540D02*
X27100Y-3598D01*
X27770Y-2540D02*
X27100Y-1482D01*
X26429Y-2540D01*
X27100Y-3598D01*
X28852Y-2963D02*
X28852Y-2928D01*
X29028Y-2328D02*
X29026Y-2306D01*
X29021Y-2284D01*
X29013Y-2264D01*
X29001Y-2245D01*
X28987Y-2228D01*
X28970Y-2214D01*
X28951Y-2202D01*
X28931Y-2194D01*
X28909Y-2189D01*
X28887Y-2187D01*
X28888Y-2188D02*
X28852Y-2189D01*
X28816Y-2194D01*
X28780Y-2201D01*
X28746Y-2211D01*
X28712Y-2223D01*
X29028Y-2328D02*
X29027Y-2351D01*
X29022Y-2373D01*
X29015Y-2394D01*
X29005Y-2415D01*
X28993Y-2434D01*
X28972Y-2460D01*
X28949Y-2483D01*
X28923Y-2504D01*
X28922Y-2505D02*
X28903Y-2522D01*
X28886Y-2542D01*
X28871Y-2563D01*
X28860Y-2586D01*
X28852Y-2611D01*
X28852Y-2681D01*
X29522Y-2540D02*
X28852Y-3598D01*
X29522Y-2540D02*
X28852Y-1482D01*
X28182Y-2540D01*
X28852Y-3598D01*
X30605Y-2963D02*
X30605Y-2928D01*
X30781Y-2328D02*
X30779Y-2306D01*
X30774Y-2284D01*
X30766Y-2264D01*
X30754Y-2245D01*
X30740Y-2228D01*
X30723Y-2214D01*
X30704Y-2202D01*
X30684Y-2194D01*
X30662Y-2189D01*
X30640Y-2187D01*
X30640Y-2188D02*
X30604Y-2189D01*
X30568Y-2194D01*
X30532Y-2201D01*
X30498Y-2211D01*
X30464Y-2223D01*
X30781Y-2328D02*
X30780Y-2351D01*
X30775Y-2373D01*
X30768Y-2394D01*
X30758Y-2415D01*
X30746Y-2434D01*
X30745Y-2434D02*
X30724Y-2460D01*
X30701Y-2483D01*
X30675Y-2504D01*
X30675Y-2505D02*
X30656Y-2522D01*
X30639Y-2542D01*
X30624Y-2563D01*
X30613Y-2586D01*
X30605Y-2611D01*
X30605Y-2681D01*
X31275Y-2540D02*
X30605Y-3598D01*
X31275Y-2540D02*
X30605Y-1482D01*
X29934Y-2540D01*
X30605Y-3598D01*
X31674Y-3175D02*
X31674Y-3104D01*
X31745Y-3104D01*
X31745Y-3175D01*
X31674Y-3175D01*
X32192Y-3175D02*
X32192Y-1905D01*
X32192Y-3175D02*
X32545Y-3175D01*
X32573Y-3173D01*
X32600Y-3168D01*
X32626Y-3159D01*
X32651Y-3147D01*
X32674Y-3131D01*
X32695Y-3113D01*
X32713Y-3092D01*
X32729Y-3069D01*
X32741Y-3044D01*
X32750Y-3018D01*
X32755Y-2991D01*
X32757Y-2963D01*
X32757Y-2540D01*
X32755Y-2512D01*
X32750Y-2485D01*
X32741Y-2459D01*
X32729Y-2434D01*
X32713Y-2411D01*
X32695Y-2390D01*
X32674Y-2372D01*
X32651Y-2356D01*
X32626Y-2344D01*
X32600Y-2335D01*
X32573Y-2330D01*
X32545Y-2328D01*
X32192Y-2328D01*
X33229Y-2328D02*
X33229Y-3175D01*
X33229Y-2328D02*
X33864Y-2328D01*
X33892Y-2330D01*
X33919Y-2335D01*
X33945Y-2344D01*
X33970Y-2356D01*
X33993Y-2372D01*
X34014Y-2390D01*
X34032Y-2411D01*
X34048Y-2434D01*
X34060Y-2459D01*
X34069Y-2485D01*
X34074Y-2512D01*
X34076Y-2540D01*
X34076Y-3175D01*
X33653Y-3175D02*
X33653Y-2328D01*
X34592Y-2328D02*
X34592Y-3598D01*
X34592Y-2328D02*
X34945Y-2328D01*
X34973Y-2330D01*
X35000Y-2335D01*
X35026Y-2344D01*
X35051Y-2356D01*
X35074Y-2372D01*
X35095Y-2390D01*
X35113Y-2411D01*
X35129Y-2434D01*
X35141Y-2459D01*
X35150Y-2485D01*
X35155Y-2512D01*
X35157Y-2540D01*
X35157Y-2963D01*
X35155Y-2991D01*
X35150Y-3018D01*
X35141Y-3044D01*
X35129Y-3069D01*
X35113Y-3092D01*
X35095Y-3113D01*
X35074Y-3131D01*
X35051Y-3147D01*
X35026Y-3159D01*
X35000Y-3168D01*
X34973Y-3173D01*
X34945Y-3175D01*
X34592Y-3175D01*
D150*
X264250Y428000D02*
X264250Y436000D01*
X264250Y462500D02*
X264250Y470500D01*
X335750Y470500D02*
X335750Y462500D01*
X335750Y436000D02*
X335750Y428000D01*
M02*
