G04 EAGLE Gerber RS-274X export*
G75*
%MOMM*%
%FSLAX34Y34*%
%LPD*%
%IN*%
%IPPOS*%
%AMOC8*
5,1,8,0,0,1.08239X$1,22.5*%
G01*
%ADD10C,0.254000*%


D10*
X0Y0D02*
X490000Y0D01*
X490000Y500000D01*
X0Y500000D01*
X0Y0D01*
X316750Y445463D02*
X316806Y445885D01*
X316916Y446297D01*
X317079Y446691D01*
X317292Y447059D01*
X317551Y447397D01*
X317853Y447699D01*
X318191Y447958D01*
X318559Y448171D01*
X318953Y448334D01*
X319365Y448444D01*
X319787Y448500D01*
X320213Y448500D01*
X320635Y448444D01*
X321047Y448334D01*
X321441Y448171D01*
X321809Y447958D01*
X322147Y447699D01*
X322449Y447397D01*
X322708Y447059D01*
X322921Y446691D01*
X323084Y446297D01*
X323194Y445885D01*
X323250Y445463D01*
X323250Y445037D01*
X323194Y444615D01*
X323084Y444203D01*
X322921Y443809D01*
X322708Y443441D01*
X322449Y443103D01*
X322147Y442801D01*
X321809Y442542D01*
X321441Y442329D01*
X321047Y442166D01*
X320635Y442056D01*
X320213Y442000D01*
X319787Y442000D01*
X319365Y442056D01*
X318953Y442166D01*
X318559Y442329D01*
X318191Y442542D01*
X317853Y442801D01*
X317551Y443103D01*
X317292Y443441D01*
X317079Y443809D01*
X316916Y444203D01*
X316806Y444615D01*
X316750Y445037D01*
X316750Y445463D01*
X276750Y445463D02*
X276806Y445885D01*
X276916Y446297D01*
X277079Y446691D01*
X277292Y447059D01*
X277551Y447397D01*
X277853Y447699D01*
X278191Y447958D01*
X278559Y448171D01*
X278953Y448334D01*
X279365Y448444D01*
X279787Y448500D01*
X280213Y448500D01*
X280635Y448444D01*
X281047Y448334D01*
X281441Y448171D01*
X281809Y447958D01*
X282147Y447699D01*
X282449Y447397D01*
X282708Y447059D01*
X282921Y446691D01*
X283084Y446297D01*
X283194Y445885D01*
X283250Y445463D01*
X283250Y445037D01*
X283194Y444615D01*
X283084Y444203D01*
X282921Y443809D01*
X282708Y443441D01*
X282449Y443103D01*
X282147Y442801D01*
X281809Y442542D01*
X281441Y442329D01*
X281047Y442166D01*
X280635Y442056D01*
X280213Y442000D01*
X279787Y442000D01*
X279365Y442056D01*
X278953Y442166D01*
X278559Y442329D01*
X278191Y442542D01*
X277853Y442801D01*
X277551Y443103D01*
X277292Y443441D01*
X277079Y443809D01*
X276916Y444203D01*
X276806Y444615D01*
X276750Y445037D01*
X276750Y445463D01*
M02*
