G04 EAGLE Gerber RS-274X export*
G75*
%MOMM*%
%FSLAX34Y34*%
%LPD*%
%INSilkscreen Bottom*%
%IPPOS*%
%AMOC8*
5,1,8,0,0,1.08239X$1,22.5*%
G01*
%ADD10C,0.076200*%
%ADD11C,0.152400*%
%ADD12C,0.050800*%
%ADD13C,0.150000*%
%ADD14C,0.250000*%
%ADD15C,0.600000*%
%ADD16R,20.320000X0.050800*%
%ADD17R,0.762000X0.050800*%
%ADD18R,1.727200X0.050800*%
%ADD19R,0.660400X0.050800*%
%ADD20R,1.574800X0.050800*%
%ADD21R,0.609600X0.050800*%
%ADD22R,1.524000X0.050800*%
%ADD23R,0.558800X0.050800*%
%ADD24R,1.473200X0.050800*%
%ADD25R,0.508000X0.050800*%
%ADD26R,0.101600X0.050800*%
%ADD27R,0.050800X0.050800*%
%ADD28R,0.304800X0.050800*%
%ADD29R,1.422400X0.050800*%
%ADD30R,0.203200X0.050800*%
%ADD31R,0.152400X0.050800*%
%ADD32R,1.219200X0.050800*%
%ADD33R,0.254000X0.050800*%
%ADD34R,0.355600X0.050800*%
%ADD35R,0.711200X0.050800*%
%ADD36R,1.066800X0.050800*%
%ADD37R,0.406400X0.050800*%
%ADD38R,1.117600X0.050800*%
%ADD39R,0.457200X0.050800*%
%ADD40R,1.168400X0.050800*%
%ADD41R,0.812800X0.050800*%
%ADD42R,1.625600X0.050800*%
%ADD43R,1.930400X0.050800*%
%ADD44R,17.627600X0.050800*%
%ADD45R,17.424400X0.050800*%
%ADD46R,17.272000X0.050800*%
%ADD47R,17.170400X0.050800*%
%ADD48R,1.371600X0.050800*%
%ADD49R,17.068800X0.050800*%
%ADD50R,1.270000X0.050800*%
%ADD51R,16.967200X0.050800*%
%ADD52R,13.665200X0.050800*%
%ADD53R,2.946400X0.050800*%
%ADD54R,13.462000X0.050800*%
%ADD55R,2.844800X0.050800*%
%ADD56R,13.411200X0.050800*%
%ADD57R,2.794000X0.050800*%
%ADD58R,1.016000X0.050800*%
%ADD59R,13.360400X0.050800*%
%ADD60R,2.743200X0.050800*%
%ADD61R,0.965200X0.050800*%
%ADD62R,13.258800X0.050800*%
%ADD63R,2.692400X0.050800*%
%ADD64R,0.914400X0.050800*%
%ADD65R,13.157200X0.050800*%
%ADD66R,0.863600X0.050800*%
%ADD67R,2.641600X0.050800*%
%ADD68R,4.165600X0.050800*%
%ADD69R,1.676400X0.050800*%
%ADD70R,1.778000X0.050800*%
%ADD71R,2.590800X0.050800*%
%ADD72R,1.879600X0.050800*%
%ADD73R,1.981200X0.050800*%
%ADD74R,2.540000X0.050800*%
%ADD75R,2.082800X0.050800*%
%ADD76R,2.184400X0.050800*%
%ADD77R,2.489200X0.050800*%
%ADD78R,2.336800X0.050800*%
%ADD79R,2.438400X0.050800*%
%ADD80R,2.387600X0.050800*%
%ADD81R,2.286000X0.050800*%
%ADD82R,2.235200X0.050800*%
%ADD83R,4.521200X0.050800*%
%ADD84R,5.892800X0.050800*%
%ADD85R,2.032000X0.050800*%
%ADD86R,4.622800X0.050800*%
%ADD87R,10.668000X0.050800*%
%ADD88R,2.133600X0.050800*%
%ADD89R,15.595600X0.050800*%
%ADD90R,15.544800X0.050800*%
%ADD91R,15.494000X0.050800*%
%ADD92R,1.320800X0.050800*%
%ADD93R,1.828800X0.050800*%
%ADD94R,12.395200X0.050800*%
%ADD95R,12.446000X0.050800*%
%ADD96R,12.344400X0.050800*%
%ADD97R,12.293600X0.050800*%
%ADD98R,12.242800X0.050800*%
%ADD99R,14.630400X0.050800*%
%ADD100R,16.103600X0.050800*%
%ADD101R,15.443200X0.050800*%
%ADD102R,15.392400X0.050800*%
%ADD103R,15.341600X0.050800*%
%ADD104R,15.240000X0.050800*%
%ADD105R,5.080000X0.050800*%
%ADD106R,8.280400X0.050800*%
%ADD107R,8.991600X0.050800*%
%ADD108R,4.318000X0.050800*%
%ADD109R,9.042400X0.050800*%
%ADD110R,9.144000X0.050800*%
%ADD111R,16.662400X0.050800*%
%ADD112R,16.713200X0.050800*%
%ADD113R,16.764000X0.050800*%
%ADD114R,17.221200X0.050800*%
%ADD115R,16.916400X0.050800*%
%ADD116R,2.895600X0.050800*%
%ADD117R,16.865600X0.050800*%
%ADD118R,2.997200X0.050800*%
%ADD119R,3.048000X0.050800*%
%ADD120R,3.149600X0.050800*%


D10*
X244934Y27309D02*
X244932Y27402D01*
X244927Y27495D01*
X244917Y27587D01*
X244904Y27680D01*
X244887Y27771D01*
X244867Y27862D01*
X244843Y27952D01*
X244815Y28041D01*
X244784Y28128D01*
X244749Y28214D01*
X244711Y28299D01*
X244669Y28383D01*
X244625Y28464D01*
X244576Y28544D01*
X244525Y28621D01*
X244471Y28697D01*
X244413Y28770D01*
X244353Y28841D01*
X244290Y28909D01*
X244224Y28975D01*
X244156Y29038D01*
X244085Y29098D01*
X244012Y29156D01*
X243936Y29210D01*
X243859Y29261D01*
X243779Y29310D01*
X243698Y29354D01*
X243614Y29396D01*
X243529Y29434D01*
X243443Y29469D01*
X243356Y29500D01*
X243267Y29528D01*
X243177Y29552D01*
X243086Y29572D01*
X242995Y29589D01*
X242902Y29602D01*
X242810Y29612D01*
X242717Y29617D01*
X242624Y29619D01*
X242517Y29617D01*
X242411Y29611D01*
X242305Y29602D01*
X242199Y29588D01*
X242094Y29571D01*
X241989Y29550D01*
X241886Y29526D01*
X241783Y29497D01*
X241681Y29465D01*
X241581Y29430D01*
X241482Y29390D01*
X241384Y29347D01*
X241288Y29301D01*
X241194Y29251D01*
X241101Y29198D01*
X241011Y29142D01*
X240922Y29082D01*
X240836Y29020D01*
X240752Y28954D01*
X240671Y28885D01*
X240592Y28814D01*
X240515Y28739D01*
X240442Y28662D01*
X240371Y28583D01*
X240303Y28500D01*
X240238Y28416D01*
X240176Y28329D01*
X240118Y28240D01*
X240062Y28149D01*
X240010Y28056D01*
X239961Y27961D01*
X239916Y27865D01*
X239874Y27766D01*
X239836Y27667D01*
X239801Y27566D01*
X244164Y25512D02*
X244232Y25580D01*
X244297Y25650D01*
X244360Y25722D01*
X244420Y25797D01*
X244477Y25874D01*
X244530Y25953D01*
X244581Y26034D01*
X244629Y26117D01*
X244673Y26201D01*
X244714Y26288D01*
X244752Y26376D01*
X244786Y26465D01*
X244817Y26556D01*
X244844Y26647D01*
X244868Y26740D01*
X244888Y26834D01*
X244905Y26928D01*
X244917Y27023D01*
X244927Y27118D01*
X244932Y27213D01*
X244934Y27309D01*
X244163Y25513D02*
X239801Y20381D01*
X244933Y20381D01*
X248801Y25000D02*
X248803Y25182D01*
X248810Y25363D01*
X248821Y25545D01*
X248836Y25726D01*
X248855Y25907D01*
X248879Y26087D01*
X248907Y26266D01*
X248939Y26445D01*
X248976Y26623D01*
X249017Y26800D01*
X249062Y26976D01*
X249111Y27151D01*
X249165Y27325D01*
X249222Y27497D01*
X249284Y27668D01*
X249350Y27838D01*
X249419Y28006D01*
X249493Y28172D01*
X249571Y28336D01*
X249600Y28415D01*
X249632Y28492D01*
X249668Y28569D01*
X249707Y28643D01*
X249750Y28716D01*
X249796Y28786D01*
X249844Y28855D01*
X249896Y28921D01*
X249951Y28985D01*
X250008Y29047D01*
X250068Y29105D01*
X250131Y29162D01*
X250196Y29215D01*
X250263Y29265D01*
X250333Y29313D01*
X250404Y29357D01*
X250478Y29398D01*
X250553Y29436D01*
X250630Y29470D01*
X250708Y29501D01*
X250787Y29528D01*
X250868Y29552D01*
X250950Y29573D01*
X251032Y29589D01*
X251115Y29602D01*
X251199Y29612D01*
X251283Y29617D01*
X251367Y29619D01*
X251451Y29617D01*
X251535Y29612D01*
X251619Y29602D01*
X251702Y29589D01*
X251784Y29573D01*
X251866Y29552D01*
X251947Y29528D01*
X252026Y29501D01*
X252104Y29470D01*
X252181Y29436D01*
X252256Y29398D01*
X252330Y29357D01*
X252401Y29313D01*
X252471Y29265D01*
X252538Y29215D01*
X252603Y29162D01*
X252666Y29105D01*
X252726Y29046D01*
X252783Y28985D01*
X252838Y28921D01*
X252890Y28855D01*
X252938Y28786D01*
X252984Y28716D01*
X253027Y28643D01*
X253066Y28568D01*
X253102Y28492D01*
X253134Y28415D01*
X253163Y28336D01*
X253241Y28172D01*
X253315Y28006D01*
X253384Y27838D01*
X253450Y27668D01*
X253512Y27497D01*
X253569Y27325D01*
X253623Y27151D01*
X253672Y26976D01*
X253717Y26800D01*
X253758Y26623D01*
X253795Y26445D01*
X253827Y26266D01*
X253855Y26087D01*
X253879Y25907D01*
X253898Y25726D01*
X253913Y25545D01*
X253924Y25363D01*
X253931Y25182D01*
X253933Y25000D01*
X248801Y25000D02*
X248803Y24818D01*
X248810Y24637D01*
X248821Y24455D01*
X248836Y24274D01*
X248855Y24093D01*
X248879Y23913D01*
X248907Y23734D01*
X248939Y23555D01*
X248976Y23377D01*
X249017Y23200D01*
X249062Y23024D01*
X249111Y22849D01*
X249165Y22675D01*
X249222Y22503D01*
X249284Y22332D01*
X249350Y22162D01*
X249419Y21995D01*
X249493Y21828D01*
X249571Y21664D01*
X249600Y21585D01*
X249632Y21508D01*
X249668Y21431D01*
X249707Y21357D01*
X249750Y21284D01*
X249796Y21214D01*
X249844Y21145D01*
X249896Y21079D01*
X249951Y21015D01*
X250008Y20953D01*
X250068Y20895D01*
X250131Y20838D01*
X250196Y20785D01*
X250263Y20735D01*
X250333Y20687D01*
X250404Y20643D01*
X250478Y20602D01*
X250553Y20564D01*
X250630Y20530D01*
X250708Y20499D01*
X250787Y20472D01*
X250868Y20448D01*
X250950Y20427D01*
X251032Y20411D01*
X251115Y20398D01*
X251199Y20388D01*
X251283Y20383D01*
X251367Y20381D01*
X253163Y21664D02*
X253241Y21828D01*
X253315Y21994D01*
X253384Y22162D01*
X253450Y22332D01*
X253512Y22503D01*
X253569Y22675D01*
X253623Y22849D01*
X253672Y23024D01*
X253717Y23200D01*
X253758Y23377D01*
X253795Y23555D01*
X253827Y23734D01*
X253855Y23913D01*
X253879Y24093D01*
X253898Y24274D01*
X253913Y24455D01*
X253924Y24637D01*
X253931Y24818D01*
X253933Y25000D01*
X253163Y21664D02*
X253134Y21585D01*
X253102Y21508D01*
X253066Y21431D01*
X253027Y21357D01*
X252984Y21284D01*
X252938Y21214D01*
X252890Y21145D01*
X252838Y21079D01*
X252783Y21015D01*
X252726Y20953D01*
X252666Y20895D01*
X252603Y20838D01*
X252538Y20785D01*
X252471Y20735D01*
X252401Y20687D01*
X252330Y20643D01*
X252256Y20602D01*
X252181Y20564D01*
X252104Y20530D01*
X252026Y20499D01*
X251947Y20472D01*
X251866Y20448D01*
X251784Y20427D01*
X251702Y20411D01*
X251619Y20398D01*
X251535Y20388D01*
X251451Y20383D01*
X251367Y20381D01*
X249314Y22434D02*
X253420Y27566D01*
X260623Y29619D02*
X260716Y29617D01*
X260809Y29612D01*
X260901Y29602D01*
X260994Y29589D01*
X261085Y29572D01*
X261176Y29552D01*
X261266Y29528D01*
X261355Y29500D01*
X261442Y29469D01*
X261528Y29434D01*
X261613Y29396D01*
X261697Y29354D01*
X261778Y29310D01*
X261858Y29261D01*
X261935Y29210D01*
X262011Y29156D01*
X262084Y29098D01*
X262155Y29038D01*
X262223Y28975D01*
X262289Y28909D01*
X262352Y28841D01*
X262412Y28770D01*
X262470Y28697D01*
X262524Y28621D01*
X262575Y28544D01*
X262624Y28464D01*
X262668Y28383D01*
X262710Y28299D01*
X262748Y28214D01*
X262783Y28128D01*
X262814Y28041D01*
X262842Y27952D01*
X262866Y27862D01*
X262886Y27771D01*
X262903Y27680D01*
X262916Y27587D01*
X262926Y27495D01*
X262931Y27402D01*
X262933Y27309D01*
X260623Y29619D02*
X260516Y29617D01*
X260410Y29611D01*
X260304Y29602D01*
X260198Y29588D01*
X260093Y29571D01*
X259988Y29550D01*
X259885Y29526D01*
X259782Y29497D01*
X259680Y29465D01*
X259580Y29430D01*
X259481Y29390D01*
X259383Y29347D01*
X259287Y29301D01*
X259193Y29251D01*
X259100Y29198D01*
X259010Y29142D01*
X258921Y29082D01*
X258835Y29020D01*
X258751Y28954D01*
X258670Y28885D01*
X258591Y28814D01*
X258514Y28739D01*
X258441Y28662D01*
X258370Y28583D01*
X258302Y28500D01*
X258237Y28416D01*
X258175Y28329D01*
X258117Y28240D01*
X258061Y28149D01*
X258009Y28056D01*
X257960Y27961D01*
X257915Y27865D01*
X257873Y27766D01*
X257835Y27667D01*
X257800Y27566D01*
X262163Y25512D02*
X262231Y25580D01*
X262296Y25650D01*
X262359Y25722D01*
X262419Y25797D01*
X262476Y25874D01*
X262529Y25953D01*
X262580Y26034D01*
X262628Y26117D01*
X262672Y26201D01*
X262713Y26288D01*
X262751Y26376D01*
X262785Y26465D01*
X262816Y26556D01*
X262843Y26647D01*
X262867Y26740D01*
X262887Y26834D01*
X262904Y26928D01*
X262916Y27023D01*
X262926Y27118D01*
X262931Y27213D01*
X262933Y27309D01*
X262163Y25513D02*
X257801Y20381D01*
X262933Y20381D01*
X266801Y22434D02*
X268854Y29619D01*
X266801Y22434D02*
X271933Y22434D01*
X270393Y24487D02*
X270393Y20381D01*
X275801Y25000D02*
X275803Y25182D01*
X275810Y25363D01*
X275821Y25545D01*
X275836Y25726D01*
X275855Y25907D01*
X275879Y26087D01*
X275907Y26266D01*
X275939Y26445D01*
X275976Y26623D01*
X276017Y26800D01*
X276062Y26976D01*
X276111Y27151D01*
X276165Y27325D01*
X276222Y27497D01*
X276284Y27668D01*
X276350Y27838D01*
X276419Y28006D01*
X276493Y28172D01*
X276571Y28336D01*
X276600Y28415D01*
X276632Y28492D01*
X276668Y28569D01*
X276707Y28643D01*
X276750Y28716D01*
X276796Y28786D01*
X276844Y28855D01*
X276896Y28921D01*
X276951Y28985D01*
X277008Y29047D01*
X277068Y29105D01*
X277131Y29162D01*
X277196Y29215D01*
X277263Y29265D01*
X277333Y29313D01*
X277404Y29357D01*
X277478Y29398D01*
X277553Y29436D01*
X277630Y29470D01*
X277708Y29501D01*
X277787Y29528D01*
X277868Y29552D01*
X277950Y29573D01*
X278032Y29589D01*
X278115Y29602D01*
X278199Y29612D01*
X278283Y29617D01*
X278367Y29619D01*
X278451Y29617D01*
X278535Y29612D01*
X278619Y29602D01*
X278702Y29589D01*
X278784Y29573D01*
X278866Y29552D01*
X278947Y29528D01*
X279026Y29501D01*
X279104Y29470D01*
X279181Y29436D01*
X279256Y29398D01*
X279330Y29357D01*
X279401Y29313D01*
X279471Y29265D01*
X279538Y29215D01*
X279603Y29162D01*
X279666Y29105D01*
X279726Y29046D01*
X279783Y28985D01*
X279838Y28921D01*
X279890Y28855D01*
X279938Y28786D01*
X279984Y28716D01*
X280027Y28643D01*
X280066Y28568D01*
X280102Y28492D01*
X280134Y28415D01*
X280163Y28336D01*
X280241Y28172D01*
X280315Y28006D01*
X280384Y27838D01*
X280450Y27668D01*
X280512Y27497D01*
X280569Y27325D01*
X280623Y27151D01*
X280672Y26976D01*
X280717Y26800D01*
X280758Y26623D01*
X280795Y26445D01*
X280827Y26266D01*
X280855Y26087D01*
X280879Y25907D01*
X280898Y25726D01*
X280913Y25545D01*
X280924Y25363D01*
X280931Y25182D01*
X280933Y25000D01*
X275801Y25000D02*
X275803Y24818D01*
X275810Y24637D01*
X275821Y24455D01*
X275836Y24274D01*
X275855Y24093D01*
X275879Y23913D01*
X275907Y23734D01*
X275939Y23555D01*
X275976Y23377D01*
X276017Y23200D01*
X276062Y23024D01*
X276111Y22849D01*
X276165Y22675D01*
X276222Y22503D01*
X276284Y22332D01*
X276350Y22162D01*
X276419Y21995D01*
X276493Y21828D01*
X276571Y21664D01*
X276600Y21585D01*
X276632Y21508D01*
X276668Y21431D01*
X276707Y21357D01*
X276750Y21284D01*
X276796Y21214D01*
X276844Y21145D01*
X276896Y21079D01*
X276951Y21015D01*
X277008Y20953D01*
X277068Y20895D01*
X277131Y20838D01*
X277196Y20785D01*
X277263Y20735D01*
X277333Y20687D01*
X277404Y20643D01*
X277478Y20602D01*
X277553Y20564D01*
X277630Y20530D01*
X277708Y20499D01*
X277787Y20472D01*
X277868Y20448D01*
X277950Y20427D01*
X278032Y20411D01*
X278115Y20398D01*
X278199Y20388D01*
X278283Y20383D01*
X278367Y20381D01*
X280163Y21664D02*
X280241Y21828D01*
X280315Y21994D01*
X280384Y22162D01*
X280450Y22332D01*
X280512Y22503D01*
X280569Y22675D01*
X280623Y22849D01*
X280672Y23024D01*
X280717Y23200D01*
X280758Y23377D01*
X280795Y23555D01*
X280827Y23734D01*
X280855Y23913D01*
X280879Y24093D01*
X280898Y24274D01*
X280913Y24455D01*
X280924Y24637D01*
X280931Y24818D01*
X280933Y25000D01*
X280163Y21664D02*
X280134Y21585D01*
X280102Y21508D01*
X280066Y21431D01*
X280027Y21357D01*
X279984Y21284D01*
X279938Y21214D01*
X279890Y21145D01*
X279838Y21079D01*
X279783Y21015D01*
X279726Y20953D01*
X279666Y20895D01*
X279603Y20838D01*
X279538Y20785D01*
X279471Y20735D01*
X279401Y20687D01*
X279330Y20643D01*
X279256Y20602D01*
X279181Y20564D01*
X279104Y20530D01*
X279026Y20499D01*
X278947Y20472D01*
X278866Y20448D01*
X278784Y20427D01*
X278702Y20411D01*
X278619Y20398D01*
X278535Y20388D01*
X278451Y20383D01*
X278367Y20381D01*
X276314Y22434D02*
X280420Y27566D01*
X287623Y29619D02*
X287716Y29617D01*
X287809Y29612D01*
X287901Y29602D01*
X287994Y29589D01*
X288085Y29572D01*
X288176Y29552D01*
X288266Y29528D01*
X288355Y29500D01*
X288442Y29469D01*
X288528Y29434D01*
X288613Y29396D01*
X288697Y29354D01*
X288778Y29310D01*
X288858Y29261D01*
X288935Y29210D01*
X289011Y29156D01*
X289084Y29098D01*
X289155Y29038D01*
X289223Y28975D01*
X289289Y28909D01*
X289352Y28841D01*
X289412Y28770D01*
X289470Y28697D01*
X289524Y28621D01*
X289575Y28544D01*
X289624Y28464D01*
X289668Y28383D01*
X289710Y28299D01*
X289748Y28214D01*
X289783Y28128D01*
X289814Y28041D01*
X289842Y27952D01*
X289866Y27862D01*
X289886Y27771D01*
X289903Y27680D01*
X289916Y27587D01*
X289926Y27495D01*
X289931Y27402D01*
X289933Y27309D01*
X287623Y29619D02*
X287516Y29617D01*
X287410Y29611D01*
X287304Y29602D01*
X287198Y29588D01*
X287093Y29571D01*
X286988Y29550D01*
X286885Y29526D01*
X286782Y29497D01*
X286680Y29465D01*
X286580Y29430D01*
X286481Y29390D01*
X286383Y29347D01*
X286287Y29301D01*
X286193Y29251D01*
X286100Y29198D01*
X286010Y29142D01*
X285921Y29082D01*
X285835Y29020D01*
X285751Y28954D01*
X285670Y28885D01*
X285591Y28814D01*
X285514Y28739D01*
X285441Y28662D01*
X285370Y28583D01*
X285302Y28500D01*
X285237Y28416D01*
X285175Y28329D01*
X285117Y28240D01*
X285061Y28149D01*
X285009Y28056D01*
X284960Y27961D01*
X284915Y27865D01*
X284873Y27766D01*
X284835Y27667D01*
X284800Y27566D01*
X289163Y25512D02*
X289231Y25580D01*
X289296Y25650D01*
X289359Y25722D01*
X289419Y25797D01*
X289476Y25874D01*
X289529Y25953D01*
X289580Y26034D01*
X289628Y26117D01*
X289672Y26201D01*
X289713Y26288D01*
X289751Y26376D01*
X289785Y26465D01*
X289816Y26556D01*
X289843Y26647D01*
X289867Y26740D01*
X289887Y26834D01*
X289904Y26928D01*
X289916Y27023D01*
X289926Y27118D01*
X289931Y27213D01*
X289933Y27309D01*
X289163Y25513D02*
X284801Y20381D01*
X289933Y20381D01*
X293801Y25000D02*
X293803Y25182D01*
X293810Y25363D01*
X293821Y25545D01*
X293836Y25726D01*
X293855Y25907D01*
X293879Y26087D01*
X293907Y26266D01*
X293939Y26445D01*
X293976Y26623D01*
X294017Y26800D01*
X294062Y26976D01*
X294111Y27151D01*
X294165Y27325D01*
X294222Y27497D01*
X294284Y27668D01*
X294350Y27838D01*
X294419Y28006D01*
X294493Y28172D01*
X294571Y28336D01*
X294600Y28415D01*
X294632Y28492D01*
X294668Y28569D01*
X294707Y28643D01*
X294750Y28716D01*
X294796Y28786D01*
X294844Y28855D01*
X294896Y28921D01*
X294951Y28985D01*
X295008Y29047D01*
X295068Y29105D01*
X295131Y29162D01*
X295196Y29215D01*
X295263Y29265D01*
X295333Y29313D01*
X295404Y29357D01*
X295478Y29398D01*
X295553Y29436D01*
X295630Y29470D01*
X295708Y29501D01*
X295787Y29528D01*
X295868Y29552D01*
X295950Y29573D01*
X296032Y29589D01*
X296115Y29602D01*
X296199Y29612D01*
X296283Y29617D01*
X296367Y29619D01*
X296451Y29617D01*
X296535Y29612D01*
X296619Y29602D01*
X296702Y29589D01*
X296784Y29573D01*
X296866Y29552D01*
X296947Y29528D01*
X297026Y29501D01*
X297104Y29470D01*
X297181Y29436D01*
X297256Y29398D01*
X297330Y29357D01*
X297401Y29313D01*
X297471Y29265D01*
X297538Y29215D01*
X297603Y29162D01*
X297666Y29105D01*
X297726Y29046D01*
X297783Y28985D01*
X297838Y28921D01*
X297890Y28855D01*
X297938Y28786D01*
X297984Y28716D01*
X298027Y28643D01*
X298066Y28568D01*
X298102Y28492D01*
X298134Y28415D01*
X298163Y28336D01*
X298241Y28172D01*
X298315Y28006D01*
X298384Y27838D01*
X298450Y27668D01*
X298512Y27497D01*
X298569Y27325D01*
X298623Y27151D01*
X298672Y26976D01*
X298717Y26800D01*
X298758Y26623D01*
X298795Y26445D01*
X298827Y26266D01*
X298855Y26087D01*
X298879Y25907D01*
X298898Y25726D01*
X298913Y25545D01*
X298924Y25363D01*
X298931Y25182D01*
X298933Y25000D01*
X293801Y25000D02*
X293803Y24818D01*
X293810Y24637D01*
X293821Y24455D01*
X293836Y24274D01*
X293855Y24093D01*
X293879Y23913D01*
X293907Y23734D01*
X293939Y23555D01*
X293976Y23377D01*
X294017Y23200D01*
X294062Y23024D01*
X294111Y22849D01*
X294165Y22675D01*
X294222Y22503D01*
X294284Y22332D01*
X294350Y22162D01*
X294419Y21995D01*
X294493Y21828D01*
X294571Y21664D01*
X294600Y21585D01*
X294632Y21508D01*
X294668Y21431D01*
X294707Y21357D01*
X294750Y21284D01*
X294796Y21214D01*
X294844Y21145D01*
X294896Y21079D01*
X294951Y21015D01*
X295008Y20953D01*
X295068Y20895D01*
X295131Y20838D01*
X295196Y20785D01*
X295263Y20735D01*
X295333Y20687D01*
X295404Y20643D01*
X295478Y20602D01*
X295553Y20564D01*
X295630Y20530D01*
X295708Y20499D01*
X295787Y20472D01*
X295868Y20448D01*
X295950Y20427D01*
X296032Y20411D01*
X296115Y20398D01*
X296199Y20388D01*
X296283Y20383D01*
X296367Y20381D01*
X298163Y21664D02*
X298241Y21828D01*
X298315Y21994D01*
X298384Y22162D01*
X298450Y22332D01*
X298512Y22503D01*
X298569Y22675D01*
X298623Y22849D01*
X298672Y23024D01*
X298717Y23200D01*
X298758Y23377D01*
X298795Y23555D01*
X298827Y23734D01*
X298855Y23913D01*
X298879Y24093D01*
X298898Y24274D01*
X298913Y24455D01*
X298924Y24637D01*
X298931Y24818D01*
X298933Y25000D01*
X298163Y21664D02*
X298134Y21585D01*
X298102Y21508D01*
X298066Y21431D01*
X298027Y21357D01*
X297984Y21284D01*
X297938Y21214D01*
X297890Y21145D01*
X297838Y21079D01*
X297783Y21015D01*
X297726Y20953D01*
X297666Y20895D01*
X297603Y20838D01*
X297538Y20785D01*
X297471Y20735D01*
X297401Y20687D01*
X297330Y20643D01*
X297256Y20602D01*
X297181Y20564D01*
X297104Y20530D01*
X297026Y20499D01*
X296947Y20472D01*
X296866Y20448D01*
X296784Y20427D01*
X296702Y20411D01*
X296619Y20398D01*
X296535Y20388D01*
X296451Y20383D01*
X296367Y20381D01*
X294314Y22434D02*
X298420Y27566D01*
X302801Y20381D02*
X305880Y20381D01*
X305970Y20383D01*
X306059Y20389D01*
X306148Y20399D01*
X306236Y20412D01*
X306324Y20430D01*
X306411Y20451D01*
X306497Y20476D01*
X306582Y20505D01*
X306666Y20537D01*
X306748Y20573D01*
X306828Y20613D01*
X306906Y20656D01*
X306983Y20703D01*
X307058Y20752D01*
X307130Y20805D01*
X307200Y20861D01*
X307267Y20920D01*
X307332Y20982D01*
X307394Y21047D01*
X307453Y21114D01*
X307509Y21184D01*
X307562Y21256D01*
X307611Y21331D01*
X307658Y21407D01*
X307701Y21486D01*
X307741Y21566D01*
X307777Y21648D01*
X307809Y21732D01*
X307838Y21817D01*
X307863Y21903D01*
X307884Y21990D01*
X307902Y22077D01*
X307915Y22166D01*
X307925Y22255D01*
X307931Y22344D01*
X307933Y22434D01*
X307933Y23460D01*
X307931Y23550D01*
X307925Y23639D01*
X307915Y23728D01*
X307902Y23816D01*
X307884Y23904D01*
X307863Y23991D01*
X307838Y24077D01*
X307809Y24162D01*
X307777Y24246D01*
X307741Y24328D01*
X307701Y24408D01*
X307658Y24487D01*
X307611Y24563D01*
X307562Y24638D01*
X307509Y24710D01*
X307453Y24780D01*
X307394Y24847D01*
X307332Y24912D01*
X307267Y24974D01*
X307200Y25033D01*
X307130Y25089D01*
X307058Y25142D01*
X306983Y25191D01*
X306907Y25238D01*
X306828Y25281D01*
X306748Y25321D01*
X306666Y25357D01*
X306582Y25389D01*
X306497Y25418D01*
X306411Y25443D01*
X306324Y25464D01*
X306236Y25482D01*
X306148Y25495D01*
X306059Y25505D01*
X305970Y25511D01*
X305880Y25513D01*
X302801Y25513D01*
X302801Y29619D01*
X307933Y29619D01*
X316601Y27566D02*
X319167Y29619D01*
X319167Y20381D01*
X316601Y20381D02*
X321733Y20381D01*
X325601Y25513D02*
X328680Y25513D01*
X328770Y25511D01*
X328859Y25505D01*
X328948Y25495D01*
X329036Y25482D01*
X329124Y25464D01*
X329211Y25443D01*
X329297Y25418D01*
X329382Y25389D01*
X329466Y25357D01*
X329548Y25321D01*
X329628Y25281D01*
X329707Y25238D01*
X329783Y25191D01*
X329858Y25142D01*
X329930Y25089D01*
X330000Y25033D01*
X330067Y24974D01*
X330132Y24912D01*
X330194Y24847D01*
X330253Y24780D01*
X330309Y24710D01*
X330362Y24638D01*
X330411Y24563D01*
X330458Y24487D01*
X330501Y24408D01*
X330541Y24328D01*
X330577Y24246D01*
X330609Y24162D01*
X330638Y24077D01*
X330663Y23991D01*
X330684Y23904D01*
X330702Y23816D01*
X330715Y23728D01*
X330725Y23639D01*
X330731Y23550D01*
X330733Y23460D01*
X330733Y22947D01*
X330731Y22848D01*
X330725Y22748D01*
X330716Y22649D01*
X330702Y22551D01*
X330685Y22453D01*
X330664Y22355D01*
X330639Y22259D01*
X330610Y22164D01*
X330578Y22069D01*
X330542Y21977D01*
X330503Y21885D01*
X330460Y21795D01*
X330414Y21707D01*
X330364Y21621D01*
X330311Y21537D01*
X330255Y21455D01*
X330195Y21375D01*
X330133Y21298D01*
X330067Y21223D01*
X329999Y21150D01*
X329928Y21081D01*
X329854Y21014D01*
X329778Y20950D01*
X329699Y20889D01*
X329618Y20831D01*
X329535Y20776D01*
X329450Y20725D01*
X329363Y20677D01*
X329274Y20632D01*
X329183Y20591D01*
X329091Y20553D01*
X328998Y20519D01*
X328903Y20489D01*
X328807Y20462D01*
X328710Y20439D01*
X328613Y20420D01*
X328514Y20405D01*
X328415Y20393D01*
X328316Y20385D01*
X328217Y20381D01*
X328117Y20381D01*
X328018Y20385D01*
X327919Y20393D01*
X327820Y20405D01*
X327721Y20420D01*
X327624Y20439D01*
X327527Y20462D01*
X327431Y20489D01*
X327336Y20519D01*
X327243Y20553D01*
X327151Y20591D01*
X327060Y20632D01*
X326971Y20677D01*
X326884Y20725D01*
X326799Y20776D01*
X326716Y20831D01*
X326635Y20889D01*
X326556Y20950D01*
X326480Y21014D01*
X326406Y21081D01*
X326335Y21150D01*
X326267Y21223D01*
X326201Y21298D01*
X326139Y21375D01*
X326079Y21455D01*
X326023Y21537D01*
X325970Y21621D01*
X325920Y21707D01*
X325874Y21795D01*
X325831Y21885D01*
X325792Y21977D01*
X325756Y22069D01*
X325724Y22164D01*
X325695Y22259D01*
X325670Y22355D01*
X325649Y22453D01*
X325632Y22551D01*
X325618Y22649D01*
X325609Y22748D01*
X325603Y22848D01*
X325601Y22947D01*
X325601Y25513D01*
X325600Y25513D02*
X325602Y25639D01*
X325608Y25766D01*
X325618Y25892D01*
X325631Y26018D01*
X325649Y26143D01*
X325670Y26267D01*
X325695Y26391D01*
X325724Y26515D01*
X325757Y26637D01*
X325793Y26758D01*
X325833Y26878D01*
X325877Y26996D01*
X325925Y27113D01*
X325976Y27229D01*
X326030Y27343D01*
X326089Y27456D01*
X326150Y27566D01*
X326215Y27675D01*
X326283Y27781D01*
X326355Y27885D01*
X326429Y27987D01*
X326507Y28087D01*
X326588Y28184D01*
X326672Y28279D01*
X326758Y28371D01*
X326848Y28461D01*
X326940Y28547D01*
X327035Y28631D01*
X327132Y28712D01*
X327232Y28790D01*
X327334Y28864D01*
X327438Y28936D01*
X327544Y29004D01*
X327653Y29069D01*
X327763Y29130D01*
X327876Y29189D01*
X327990Y29243D01*
X328106Y29294D01*
X328223Y29342D01*
X328341Y29386D01*
X328461Y29426D01*
X328582Y29462D01*
X328704Y29495D01*
X328828Y29524D01*
X328951Y29549D01*
X329076Y29570D01*
X329201Y29588D01*
X329327Y29601D01*
X329453Y29611D01*
X329580Y29617D01*
X329706Y29619D01*
X335031Y25513D02*
X337597Y25513D01*
X337696Y25511D01*
X337796Y25505D01*
X337895Y25496D01*
X337993Y25482D01*
X338091Y25465D01*
X338189Y25444D01*
X338285Y25419D01*
X338380Y25390D01*
X338475Y25358D01*
X338567Y25322D01*
X338659Y25283D01*
X338749Y25240D01*
X338837Y25194D01*
X338923Y25144D01*
X339007Y25091D01*
X339089Y25035D01*
X339169Y24975D01*
X339246Y24913D01*
X339321Y24847D01*
X339394Y24779D01*
X339463Y24708D01*
X339530Y24634D01*
X339594Y24558D01*
X339655Y24479D01*
X339713Y24398D01*
X339768Y24315D01*
X339819Y24230D01*
X339867Y24143D01*
X339912Y24054D01*
X339953Y23963D01*
X339991Y23871D01*
X340025Y23778D01*
X340055Y23683D01*
X340082Y23587D01*
X340105Y23490D01*
X340124Y23393D01*
X340139Y23294D01*
X340151Y23195D01*
X340159Y23096D01*
X340163Y22997D01*
X340163Y22897D01*
X340159Y22798D01*
X340151Y22699D01*
X340139Y22600D01*
X340124Y22501D01*
X340105Y22404D01*
X340082Y22307D01*
X340055Y22211D01*
X340025Y22116D01*
X339991Y22023D01*
X339953Y21931D01*
X339912Y21840D01*
X339867Y21751D01*
X339819Y21664D01*
X339768Y21579D01*
X339713Y21496D01*
X339655Y21415D01*
X339594Y21336D01*
X339530Y21260D01*
X339463Y21186D01*
X339394Y21115D01*
X339321Y21047D01*
X339246Y20981D01*
X339169Y20919D01*
X339089Y20859D01*
X339007Y20803D01*
X338923Y20750D01*
X338837Y20700D01*
X338749Y20654D01*
X338659Y20611D01*
X338567Y20572D01*
X338475Y20536D01*
X338380Y20504D01*
X338285Y20475D01*
X338189Y20450D01*
X338091Y20429D01*
X337993Y20412D01*
X337895Y20398D01*
X337796Y20389D01*
X337696Y20383D01*
X337597Y20381D01*
X335031Y20381D01*
X335031Y29619D01*
X337597Y29619D01*
X337687Y29617D01*
X337776Y29611D01*
X337865Y29601D01*
X337953Y29588D01*
X338041Y29570D01*
X338128Y29549D01*
X338214Y29524D01*
X338299Y29495D01*
X338383Y29463D01*
X338465Y29427D01*
X338545Y29387D01*
X338624Y29344D01*
X338700Y29297D01*
X338775Y29248D01*
X338847Y29195D01*
X338917Y29139D01*
X338984Y29080D01*
X339049Y29018D01*
X339111Y28953D01*
X339170Y28886D01*
X339226Y28816D01*
X339279Y28744D01*
X339328Y28669D01*
X339375Y28592D01*
X339418Y28514D01*
X339458Y28434D01*
X339494Y28352D01*
X339526Y28268D01*
X339555Y28183D01*
X339580Y28097D01*
X339601Y28010D01*
X339619Y27922D01*
X339632Y27834D01*
X339642Y27745D01*
X339648Y27656D01*
X339650Y27566D01*
X339648Y27476D01*
X339642Y27387D01*
X339632Y27298D01*
X339619Y27210D01*
X339601Y27122D01*
X339580Y27035D01*
X339555Y26949D01*
X339526Y26864D01*
X339494Y26780D01*
X339458Y26698D01*
X339418Y26618D01*
X339375Y26539D01*
X339328Y26463D01*
X339279Y26388D01*
X339226Y26316D01*
X339170Y26246D01*
X339111Y26179D01*
X339049Y26114D01*
X338984Y26052D01*
X338917Y25993D01*
X338847Y25937D01*
X338775Y25884D01*
X338700Y25835D01*
X338624Y25788D01*
X338545Y25745D01*
X338465Y25705D01*
X338383Y25669D01*
X338299Y25637D01*
X338214Y25608D01*
X338128Y25583D01*
X338041Y25562D01*
X337953Y25544D01*
X337865Y25531D01*
X337776Y25521D01*
X337687Y25515D01*
X337597Y25513D01*
X343467Y26540D02*
X343467Y20381D01*
X343210Y29106D02*
X343210Y29619D01*
X343723Y29619D01*
X343723Y29106D01*
X343210Y29106D01*
X346356Y26540D02*
X349435Y26540D01*
X347382Y29619D02*
X347382Y21921D01*
X347384Y21845D01*
X347389Y21770D01*
X347399Y21695D01*
X347412Y21621D01*
X347428Y21547D01*
X347448Y21474D01*
X347472Y21402D01*
X347499Y21332D01*
X347530Y21263D01*
X347564Y21195D01*
X347601Y21129D01*
X347642Y21065D01*
X347685Y21004D01*
X347732Y20944D01*
X347781Y20887D01*
X347833Y20832D01*
X347888Y20780D01*
X347945Y20731D01*
X348005Y20684D01*
X348066Y20641D01*
X348130Y20600D01*
X348196Y20563D01*
X348264Y20529D01*
X348333Y20498D01*
X348403Y20471D01*
X348475Y20447D01*
X348548Y20427D01*
X348622Y20411D01*
X348696Y20398D01*
X348771Y20388D01*
X348846Y20383D01*
X348922Y20381D01*
X349435Y20381D01*
X353583Y23974D02*
X356150Y22947D01*
X353584Y23973D02*
X353517Y24002D01*
X353452Y24034D01*
X353389Y24070D01*
X353328Y24109D01*
X353270Y24152D01*
X353213Y24197D01*
X353160Y24246D01*
X353109Y24297D01*
X353060Y24351D01*
X353015Y24408D01*
X352973Y24467D01*
X352935Y24528D01*
X352899Y24591D01*
X352867Y24656D01*
X352839Y24723D01*
X352814Y24791D01*
X352794Y24860D01*
X352776Y24931D01*
X352763Y25002D01*
X352754Y25074D01*
X352749Y25146D01*
X352747Y25218D01*
X352750Y25291D01*
X352756Y25363D01*
X352766Y25434D01*
X352780Y25505D01*
X352798Y25576D01*
X352820Y25645D01*
X352846Y25712D01*
X352875Y25779D01*
X352908Y25843D01*
X352944Y25906D01*
X352984Y25967D01*
X353026Y26025D01*
X353072Y26081D01*
X353121Y26134D01*
X353173Y26185D01*
X353228Y26233D01*
X353284Y26278D01*
X353344Y26319D01*
X353405Y26357D01*
X353469Y26392D01*
X353534Y26424D01*
X353601Y26452D01*
X353669Y26476D01*
X353739Y26496D01*
X353809Y26513D01*
X353880Y26525D01*
X353952Y26534D01*
X354025Y26539D01*
X354097Y26540D01*
X354096Y26539D02*
X354245Y26535D01*
X354394Y26528D01*
X354542Y26516D01*
X354690Y26501D01*
X354838Y26481D01*
X354985Y26458D01*
X355132Y26432D01*
X355277Y26401D01*
X355422Y26367D01*
X355566Y26329D01*
X355709Y26288D01*
X355851Y26243D01*
X355992Y26194D01*
X356131Y26141D01*
X356269Y26086D01*
X356406Y26026D01*
X356149Y22948D02*
X356216Y22919D01*
X356281Y22887D01*
X356344Y22851D01*
X356405Y22812D01*
X356463Y22769D01*
X356520Y22724D01*
X356573Y22675D01*
X356624Y22624D01*
X356673Y22570D01*
X356718Y22513D01*
X356760Y22454D01*
X356798Y22393D01*
X356834Y22330D01*
X356866Y22265D01*
X356894Y22198D01*
X356919Y22130D01*
X356939Y22061D01*
X356957Y21990D01*
X356970Y21919D01*
X356979Y21847D01*
X356984Y21775D01*
X356986Y21703D01*
X356983Y21630D01*
X356977Y21558D01*
X356967Y21487D01*
X356953Y21416D01*
X356935Y21345D01*
X356913Y21276D01*
X356887Y21209D01*
X356858Y21142D01*
X356825Y21078D01*
X356789Y21015D01*
X356749Y20954D01*
X356707Y20896D01*
X356661Y20840D01*
X356612Y20787D01*
X356560Y20736D01*
X356505Y20688D01*
X356449Y20643D01*
X356389Y20602D01*
X356328Y20564D01*
X356264Y20529D01*
X356199Y20497D01*
X356132Y20469D01*
X356064Y20445D01*
X355994Y20425D01*
X355924Y20408D01*
X355853Y20396D01*
X355781Y20387D01*
X355708Y20382D01*
X355636Y20381D01*
X355637Y20381D02*
X355431Y20386D01*
X355225Y20397D01*
X355020Y20412D01*
X354815Y20432D01*
X354611Y20456D01*
X354407Y20486D01*
X354204Y20520D01*
X354002Y20560D01*
X353801Y20604D01*
X353601Y20652D01*
X353402Y20706D01*
X353204Y20764D01*
X353008Y20827D01*
X352814Y20894D01*
X365818Y20381D02*
X369924Y20381D01*
X365818Y20381D02*
X365818Y29619D01*
X369924Y29619D01*
X368897Y25513D02*
X365818Y25513D01*
X376080Y20381D02*
X376170Y20383D01*
X376259Y20389D01*
X376348Y20399D01*
X376436Y20412D01*
X376524Y20430D01*
X376611Y20451D01*
X376697Y20476D01*
X376782Y20505D01*
X376866Y20537D01*
X376948Y20573D01*
X377028Y20613D01*
X377107Y20656D01*
X377183Y20703D01*
X377258Y20752D01*
X377330Y20805D01*
X377400Y20861D01*
X377467Y20920D01*
X377532Y20982D01*
X377594Y21047D01*
X377653Y21114D01*
X377709Y21184D01*
X377762Y21256D01*
X377811Y21331D01*
X377858Y21407D01*
X377901Y21486D01*
X377941Y21566D01*
X377977Y21648D01*
X378009Y21732D01*
X378038Y21817D01*
X378063Y21903D01*
X378084Y21990D01*
X378102Y22078D01*
X378115Y22166D01*
X378125Y22255D01*
X378131Y22344D01*
X378133Y22434D01*
X376080Y20381D02*
X375953Y20383D01*
X375826Y20388D01*
X375700Y20398D01*
X375574Y20411D01*
X375448Y20427D01*
X375323Y20448D01*
X375198Y20472D01*
X375075Y20499D01*
X374952Y20530D01*
X374830Y20565D01*
X374709Y20603D01*
X374589Y20645D01*
X374471Y20691D01*
X374354Y20739D01*
X374238Y20792D01*
X374124Y20847D01*
X374012Y20906D01*
X373901Y20968D01*
X373792Y21033D01*
X373686Y21102D01*
X373581Y21173D01*
X373478Y21248D01*
X373378Y21326D01*
X373280Y21406D01*
X373184Y21489D01*
X373091Y21575D01*
X373000Y21664D01*
X373257Y27566D02*
X373259Y27656D01*
X373265Y27745D01*
X373275Y27834D01*
X373288Y27923D01*
X373306Y28010D01*
X373327Y28097D01*
X373352Y28183D01*
X373381Y28268D01*
X373413Y28352D01*
X373449Y28434D01*
X373489Y28514D01*
X373532Y28593D01*
X373579Y28669D01*
X373628Y28744D01*
X373681Y28816D01*
X373737Y28886D01*
X373796Y28953D01*
X373858Y29018D01*
X373923Y29080D01*
X373990Y29139D01*
X374060Y29195D01*
X374132Y29248D01*
X374207Y29297D01*
X374284Y29344D01*
X374362Y29387D01*
X374442Y29427D01*
X374524Y29463D01*
X374608Y29495D01*
X374693Y29524D01*
X374779Y29549D01*
X374866Y29570D01*
X374954Y29588D01*
X375042Y29601D01*
X375131Y29611D01*
X375220Y29617D01*
X375310Y29619D01*
X375434Y29617D01*
X375558Y29611D01*
X375681Y29601D01*
X375804Y29587D01*
X375927Y29569D01*
X376048Y29547D01*
X376170Y29522D01*
X376290Y29492D01*
X376409Y29459D01*
X376527Y29421D01*
X376644Y29380D01*
X376759Y29336D01*
X376873Y29287D01*
X376986Y29235D01*
X377096Y29179D01*
X377205Y29120D01*
X377312Y29057D01*
X377417Y28991D01*
X377519Y28922D01*
X377619Y28849D01*
X374283Y25770D02*
X374207Y25817D01*
X374132Y25868D01*
X374060Y25922D01*
X373990Y25979D01*
X373923Y26039D01*
X373858Y26102D01*
X373796Y26167D01*
X373737Y26235D01*
X373681Y26306D01*
X373628Y26379D01*
X373578Y26454D01*
X373532Y26532D01*
X373489Y26611D01*
X373449Y26692D01*
X373413Y26775D01*
X373381Y26859D01*
X373352Y26944D01*
X373327Y27031D01*
X373306Y27119D01*
X373288Y27207D01*
X373275Y27296D01*
X373265Y27386D01*
X373259Y27476D01*
X373257Y27566D01*
X377106Y24230D02*
X377183Y24183D01*
X377258Y24132D01*
X377330Y24078D01*
X377400Y24021D01*
X377467Y23961D01*
X377532Y23898D01*
X377594Y23833D01*
X377653Y23765D01*
X377709Y23694D01*
X377762Y23621D01*
X377812Y23546D01*
X377858Y23468D01*
X377901Y23389D01*
X377941Y23308D01*
X377977Y23225D01*
X378009Y23141D01*
X378038Y23056D01*
X378063Y22969D01*
X378084Y22882D01*
X378102Y22793D01*
X378115Y22704D01*
X378125Y22614D01*
X378131Y22524D01*
X378133Y22434D01*
X377106Y24230D02*
X374283Y25770D01*
X382131Y29619D02*
X382131Y20381D01*
X382131Y29619D02*
X384697Y29619D01*
X384796Y29617D01*
X384896Y29611D01*
X384995Y29602D01*
X385093Y29588D01*
X385191Y29571D01*
X385289Y29550D01*
X385385Y29525D01*
X385480Y29496D01*
X385575Y29464D01*
X385667Y29428D01*
X385759Y29389D01*
X385849Y29346D01*
X385937Y29300D01*
X386023Y29250D01*
X386107Y29197D01*
X386189Y29141D01*
X386269Y29081D01*
X386346Y29019D01*
X386421Y28953D01*
X386494Y28885D01*
X386563Y28814D01*
X386630Y28740D01*
X386694Y28664D01*
X386755Y28585D01*
X386813Y28504D01*
X386868Y28421D01*
X386919Y28336D01*
X386967Y28249D01*
X387012Y28160D01*
X387053Y28069D01*
X387091Y27977D01*
X387125Y27884D01*
X387155Y27789D01*
X387182Y27693D01*
X387205Y27596D01*
X387224Y27499D01*
X387239Y27400D01*
X387251Y27301D01*
X387259Y27202D01*
X387263Y27103D01*
X387263Y27003D01*
X387259Y26904D01*
X387251Y26805D01*
X387239Y26706D01*
X387224Y26607D01*
X387205Y26510D01*
X387182Y26413D01*
X387155Y26317D01*
X387125Y26222D01*
X387091Y26129D01*
X387053Y26037D01*
X387012Y25946D01*
X386967Y25857D01*
X386919Y25770D01*
X386868Y25685D01*
X386813Y25602D01*
X386755Y25521D01*
X386694Y25442D01*
X386630Y25366D01*
X386563Y25292D01*
X386494Y25221D01*
X386421Y25153D01*
X386346Y25087D01*
X386269Y25025D01*
X386189Y24965D01*
X386107Y24909D01*
X386023Y24856D01*
X385937Y24806D01*
X385849Y24760D01*
X385759Y24717D01*
X385667Y24678D01*
X385575Y24642D01*
X385480Y24610D01*
X385385Y24581D01*
X385289Y24556D01*
X385191Y24535D01*
X385093Y24518D01*
X384995Y24504D01*
X384896Y24495D01*
X384796Y24489D01*
X384697Y24487D01*
X382131Y24487D01*
X390700Y20381D02*
X393266Y20381D01*
X393365Y20383D01*
X393465Y20389D01*
X393564Y20398D01*
X393662Y20412D01*
X393760Y20429D01*
X393858Y20450D01*
X393954Y20475D01*
X394049Y20504D01*
X394144Y20536D01*
X394236Y20572D01*
X394328Y20611D01*
X394418Y20654D01*
X394506Y20700D01*
X394592Y20750D01*
X394676Y20803D01*
X394758Y20859D01*
X394838Y20919D01*
X394915Y20981D01*
X394990Y21047D01*
X395063Y21115D01*
X395132Y21186D01*
X395199Y21260D01*
X395263Y21336D01*
X395324Y21415D01*
X395382Y21496D01*
X395437Y21579D01*
X395488Y21664D01*
X395536Y21751D01*
X395581Y21840D01*
X395622Y21931D01*
X395660Y22023D01*
X395694Y22116D01*
X395724Y22211D01*
X395751Y22307D01*
X395774Y22404D01*
X395793Y22501D01*
X395808Y22600D01*
X395820Y22699D01*
X395828Y22798D01*
X395832Y22897D01*
X395832Y22997D01*
X395828Y23096D01*
X395820Y23195D01*
X395808Y23294D01*
X395793Y23393D01*
X395774Y23490D01*
X395751Y23587D01*
X395724Y23683D01*
X395694Y23778D01*
X395660Y23871D01*
X395622Y23963D01*
X395581Y24054D01*
X395536Y24143D01*
X395488Y24230D01*
X395437Y24315D01*
X395382Y24398D01*
X395324Y24479D01*
X395263Y24558D01*
X395199Y24634D01*
X395132Y24708D01*
X395063Y24779D01*
X394990Y24847D01*
X394915Y24913D01*
X394838Y24975D01*
X394758Y25035D01*
X394676Y25091D01*
X394592Y25144D01*
X394506Y25194D01*
X394418Y25240D01*
X394328Y25283D01*
X394236Y25322D01*
X394144Y25358D01*
X394049Y25390D01*
X393954Y25419D01*
X393858Y25444D01*
X393760Y25465D01*
X393662Y25482D01*
X393564Y25496D01*
X393465Y25505D01*
X393365Y25511D01*
X393266Y25513D01*
X393780Y29619D02*
X390700Y29619D01*
X393780Y29619D02*
X393870Y29617D01*
X393959Y29611D01*
X394048Y29601D01*
X394136Y29588D01*
X394224Y29570D01*
X394311Y29549D01*
X394397Y29524D01*
X394482Y29495D01*
X394566Y29463D01*
X394648Y29427D01*
X394728Y29387D01*
X394807Y29344D01*
X394883Y29297D01*
X394958Y29248D01*
X395030Y29195D01*
X395100Y29139D01*
X395167Y29080D01*
X395232Y29018D01*
X395294Y28953D01*
X395353Y28886D01*
X395409Y28816D01*
X395462Y28744D01*
X395511Y28669D01*
X395558Y28592D01*
X395601Y28514D01*
X395641Y28434D01*
X395677Y28352D01*
X395709Y28268D01*
X395738Y28183D01*
X395763Y28097D01*
X395784Y28010D01*
X395802Y27922D01*
X395815Y27834D01*
X395825Y27745D01*
X395831Y27656D01*
X395833Y27566D01*
X395831Y27476D01*
X395825Y27387D01*
X395815Y27298D01*
X395802Y27210D01*
X395784Y27122D01*
X395763Y27035D01*
X395738Y26949D01*
X395709Y26864D01*
X395677Y26780D01*
X395641Y26698D01*
X395601Y26618D01*
X395558Y26539D01*
X395511Y26463D01*
X395462Y26388D01*
X395409Y26316D01*
X395353Y26246D01*
X395294Y26179D01*
X395232Y26114D01*
X395167Y26052D01*
X395100Y25993D01*
X395030Y25937D01*
X394958Y25884D01*
X394883Y25835D01*
X394807Y25788D01*
X394728Y25745D01*
X394648Y25705D01*
X394566Y25669D01*
X394482Y25637D01*
X394397Y25608D01*
X394311Y25583D01*
X394224Y25562D01*
X394136Y25544D01*
X394048Y25531D01*
X393959Y25521D01*
X393870Y25515D01*
X393780Y25513D01*
X391727Y25513D01*
X402523Y29619D02*
X402616Y29617D01*
X402709Y29612D01*
X402801Y29602D01*
X402894Y29589D01*
X402985Y29572D01*
X403076Y29552D01*
X403166Y29528D01*
X403255Y29500D01*
X403342Y29469D01*
X403428Y29434D01*
X403513Y29396D01*
X403597Y29354D01*
X403678Y29310D01*
X403758Y29261D01*
X403835Y29210D01*
X403911Y29156D01*
X403984Y29098D01*
X404055Y29038D01*
X404123Y28975D01*
X404189Y28909D01*
X404252Y28841D01*
X404312Y28770D01*
X404370Y28697D01*
X404424Y28621D01*
X404475Y28544D01*
X404524Y28464D01*
X404568Y28383D01*
X404610Y28299D01*
X404648Y28214D01*
X404683Y28128D01*
X404714Y28041D01*
X404742Y27952D01*
X404766Y27862D01*
X404786Y27771D01*
X404803Y27680D01*
X404816Y27587D01*
X404826Y27495D01*
X404831Y27402D01*
X404833Y27309D01*
X402523Y29619D02*
X402416Y29617D01*
X402310Y29611D01*
X402204Y29602D01*
X402098Y29588D01*
X401993Y29571D01*
X401888Y29550D01*
X401785Y29526D01*
X401682Y29497D01*
X401580Y29465D01*
X401480Y29430D01*
X401381Y29390D01*
X401283Y29347D01*
X401187Y29301D01*
X401093Y29251D01*
X401000Y29198D01*
X400910Y29142D01*
X400821Y29082D01*
X400735Y29020D01*
X400651Y28954D01*
X400570Y28885D01*
X400491Y28814D01*
X400414Y28739D01*
X400341Y28662D01*
X400270Y28583D01*
X400202Y28500D01*
X400137Y28416D01*
X400075Y28329D01*
X400017Y28240D01*
X399961Y28149D01*
X399909Y28056D01*
X399860Y27961D01*
X399815Y27865D01*
X399773Y27766D01*
X399735Y27667D01*
X399700Y27566D01*
X404063Y25512D02*
X404131Y25580D01*
X404196Y25650D01*
X404259Y25722D01*
X404319Y25797D01*
X404376Y25874D01*
X404429Y25953D01*
X404480Y26034D01*
X404528Y26117D01*
X404572Y26201D01*
X404613Y26288D01*
X404651Y26376D01*
X404685Y26465D01*
X404716Y26556D01*
X404743Y26647D01*
X404767Y26740D01*
X404787Y26834D01*
X404804Y26928D01*
X404816Y27023D01*
X404826Y27118D01*
X404831Y27213D01*
X404833Y27309D01*
X404063Y25513D02*
X399700Y20381D01*
X404833Y20381D01*
X408787Y23974D02*
X414946Y23974D01*
X421680Y20381D02*
X421770Y20383D01*
X421859Y20389D01*
X421948Y20399D01*
X422036Y20412D01*
X422124Y20430D01*
X422211Y20451D01*
X422297Y20476D01*
X422382Y20505D01*
X422466Y20537D01*
X422548Y20573D01*
X422628Y20613D01*
X422707Y20656D01*
X422783Y20703D01*
X422858Y20752D01*
X422930Y20805D01*
X423000Y20861D01*
X423067Y20920D01*
X423132Y20982D01*
X423194Y21047D01*
X423253Y21114D01*
X423309Y21184D01*
X423362Y21256D01*
X423411Y21331D01*
X423458Y21407D01*
X423501Y21486D01*
X423541Y21566D01*
X423577Y21648D01*
X423609Y21732D01*
X423638Y21817D01*
X423663Y21903D01*
X423684Y21990D01*
X423702Y22078D01*
X423715Y22166D01*
X423725Y22255D01*
X423731Y22344D01*
X423733Y22434D01*
X421680Y20381D02*
X421553Y20383D01*
X421426Y20388D01*
X421300Y20398D01*
X421174Y20411D01*
X421048Y20427D01*
X420923Y20448D01*
X420798Y20472D01*
X420675Y20499D01*
X420552Y20530D01*
X420430Y20565D01*
X420309Y20603D01*
X420189Y20645D01*
X420071Y20691D01*
X419954Y20739D01*
X419838Y20792D01*
X419724Y20847D01*
X419612Y20906D01*
X419501Y20968D01*
X419392Y21033D01*
X419286Y21102D01*
X419181Y21173D01*
X419078Y21248D01*
X418978Y21326D01*
X418880Y21406D01*
X418784Y21489D01*
X418691Y21575D01*
X418600Y21664D01*
X418857Y27566D02*
X418859Y27656D01*
X418865Y27745D01*
X418875Y27834D01*
X418888Y27923D01*
X418906Y28010D01*
X418927Y28097D01*
X418952Y28183D01*
X418981Y28268D01*
X419013Y28352D01*
X419049Y28434D01*
X419089Y28514D01*
X419132Y28593D01*
X419179Y28669D01*
X419228Y28744D01*
X419281Y28816D01*
X419337Y28886D01*
X419396Y28953D01*
X419458Y29018D01*
X419523Y29080D01*
X419590Y29139D01*
X419660Y29195D01*
X419732Y29248D01*
X419807Y29297D01*
X419884Y29344D01*
X419962Y29387D01*
X420042Y29427D01*
X420124Y29463D01*
X420208Y29495D01*
X420293Y29524D01*
X420379Y29549D01*
X420466Y29570D01*
X420554Y29588D01*
X420642Y29601D01*
X420731Y29611D01*
X420820Y29617D01*
X420910Y29619D01*
X421034Y29617D01*
X421158Y29611D01*
X421281Y29601D01*
X421404Y29587D01*
X421527Y29569D01*
X421648Y29547D01*
X421770Y29522D01*
X421890Y29492D01*
X422009Y29459D01*
X422127Y29421D01*
X422244Y29380D01*
X422359Y29336D01*
X422473Y29287D01*
X422586Y29235D01*
X422696Y29179D01*
X422805Y29120D01*
X422912Y29057D01*
X423017Y28991D01*
X423119Y28922D01*
X423219Y28849D01*
X419883Y25770D02*
X419807Y25817D01*
X419732Y25868D01*
X419660Y25922D01*
X419590Y25979D01*
X419523Y26039D01*
X419458Y26102D01*
X419396Y26167D01*
X419337Y26235D01*
X419281Y26306D01*
X419228Y26379D01*
X419178Y26454D01*
X419132Y26532D01*
X419089Y26611D01*
X419049Y26692D01*
X419013Y26775D01*
X418981Y26859D01*
X418952Y26944D01*
X418927Y27031D01*
X418906Y27119D01*
X418888Y27207D01*
X418875Y27296D01*
X418865Y27386D01*
X418859Y27476D01*
X418857Y27566D01*
X422706Y24230D02*
X422783Y24183D01*
X422858Y24132D01*
X422930Y24078D01*
X423000Y24021D01*
X423067Y23961D01*
X423132Y23898D01*
X423194Y23833D01*
X423253Y23765D01*
X423309Y23694D01*
X423362Y23621D01*
X423412Y23546D01*
X423458Y23468D01*
X423501Y23389D01*
X423541Y23308D01*
X423577Y23225D01*
X423609Y23141D01*
X423638Y23056D01*
X423663Y22969D01*
X423684Y22882D01*
X423702Y22793D01*
X423715Y22704D01*
X423725Y22614D01*
X423731Y22524D01*
X423733Y22434D01*
X422706Y24230D02*
X419883Y25770D01*
X427657Y29619D02*
X427657Y20381D01*
X427657Y29619D02*
X430223Y29619D01*
X430322Y29617D01*
X430422Y29611D01*
X430521Y29602D01*
X430619Y29588D01*
X430717Y29571D01*
X430815Y29550D01*
X430911Y29525D01*
X431006Y29496D01*
X431101Y29464D01*
X431193Y29428D01*
X431285Y29389D01*
X431375Y29346D01*
X431463Y29300D01*
X431549Y29250D01*
X431633Y29197D01*
X431715Y29141D01*
X431795Y29081D01*
X431872Y29019D01*
X431947Y28953D01*
X432020Y28885D01*
X432089Y28814D01*
X432156Y28740D01*
X432220Y28664D01*
X432281Y28585D01*
X432339Y28504D01*
X432394Y28421D01*
X432445Y28336D01*
X432493Y28249D01*
X432538Y28160D01*
X432579Y28069D01*
X432617Y27977D01*
X432651Y27884D01*
X432681Y27789D01*
X432708Y27693D01*
X432731Y27596D01*
X432750Y27499D01*
X432765Y27400D01*
X432777Y27301D01*
X432785Y27202D01*
X432789Y27103D01*
X432789Y27003D01*
X432785Y26904D01*
X432777Y26805D01*
X432765Y26706D01*
X432750Y26607D01*
X432731Y26510D01*
X432708Y26413D01*
X432681Y26317D01*
X432651Y26222D01*
X432617Y26129D01*
X432579Y26037D01*
X432538Y25946D01*
X432493Y25857D01*
X432445Y25770D01*
X432394Y25685D01*
X432339Y25602D01*
X432281Y25521D01*
X432220Y25442D01*
X432156Y25366D01*
X432089Y25292D01*
X432020Y25221D01*
X431947Y25153D01*
X431872Y25087D01*
X431795Y25025D01*
X431715Y24965D01*
X431633Y24909D01*
X431549Y24856D01*
X431463Y24806D01*
X431375Y24760D01*
X431285Y24717D01*
X431193Y24678D01*
X431101Y24642D01*
X431006Y24610D01*
X430911Y24581D01*
X430815Y24556D01*
X430717Y24535D01*
X430619Y24518D01*
X430521Y24504D01*
X430422Y24495D01*
X430322Y24489D01*
X430223Y24487D01*
X427657Y24487D01*
X430736Y24487D02*
X432789Y20381D01*
X436687Y23974D02*
X442846Y23974D01*
X447118Y20381D02*
X447118Y29619D01*
X447118Y20381D02*
X451223Y20381D01*
X456264Y23974D02*
X458574Y23974D01*
X456264Y23973D02*
X456181Y23971D01*
X456098Y23965D01*
X456016Y23956D01*
X455934Y23942D01*
X455853Y23925D01*
X455773Y23904D01*
X455693Y23880D01*
X455615Y23852D01*
X455539Y23820D01*
X455463Y23785D01*
X455390Y23746D01*
X455319Y23704D01*
X455249Y23659D01*
X455182Y23610D01*
X455117Y23559D01*
X455054Y23504D01*
X454994Y23447D01*
X454937Y23387D01*
X454882Y23324D01*
X454831Y23259D01*
X454782Y23192D01*
X454737Y23122D01*
X454695Y23051D01*
X454656Y22978D01*
X454621Y22902D01*
X454589Y22826D01*
X454561Y22748D01*
X454537Y22668D01*
X454516Y22588D01*
X454499Y22507D01*
X454485Y22425D01*
X454476Y22343D01*
X454470Y22260D01*
X454468Y22177D01*
X454470Y22094D01*
X454476Y22011D01*
X454485Y21929D01*
X454499Y21847D01*
X454516Y21766D01*
X454537Y21686D01*
X454561Y21606D01*
X454589Y21528D01*
X454621Y21452D01*
X454656Y21376D01*
X454695Y21303D01*
X454737Y21232D01*
X454782Y21162D01*
X454831Y21095D01*
X454882Y21030D01*
X454937Y20967D01*
X454994Y20907D01*
X455054Y20850D01*
X455117Y20795D01*
X455182Y20744D01*
X455249Y20695D01*
X455319Y20650D01*
X455390Y20608D01*
X455463Y20569D01*
X455539Y20534D01*
X455615Y20502D01*
X455693Y20474D01*
X455773Y20450D01*
X455853Y20429D01*
X455934Y20412D01*
X456016Y20398D01*
X456098Y20389D01*
X456181Y20383D01*
X456264Y20381D01*
X458574Y20381D01*
X458574Y25000D01*
X458572Y25076D01*
X458567Y25151D01*
X458557Y25226D01*
X458544Y25300D01*
X458528Y25374D01*
X458508Y25447D01*
X458484Y25519D01*
X458457Y25589D01*
X458426Y25658D01*
X458392Y25726D01*
X458355Y25792D01*
X458314Y25856D01*
X458271Y25917D01*
X458224Y25977D01*
X458175Y26034D01*
X458123Y26089D01*
X458068Y26141D01*
X458011Y26190D01*
X457951Y26237D01*
X457890Y26280D01*
X457826Y26321D01*
X457760Y26358D01*
X457692Y26392D01*
X457623Y26423D01*
X457553Y26450D01*
X457481Y26474D01*
X457408Y26494D01*
X457334Y26510D01*
X457260Y26523D01*
X457185Y26533D01*
X457110Y26538D01*
X457034Y26540D01*
X454981Y26540D01*
X461856Y26540D02*
X464935Y26540D01*
X462882Y29619D02*
X462882Y21921D01*
X462884Y21845D01*
X462889Y21770D01*
X462899Y21695D01*
X462912Y21621D01*
X462928Y21547D01*
X462948Y21474D01*
X462972Y21402D01*
X462999Y21332D01*
X463030Y21263D01*
X463064Y21195D01*
X463101Y21129D01*
X463142Y21065D01*
X463185Y21004D01*
X463232Y20944D01*
X463281Y20887D01*
X463333Y20832D01*
X463388Y20780D01*
X463445Y20731D01*
X463505Y20684D01*
X463566Y20641D01*
X463630Y20600D01*
X463696Y20563D01*
X463764Y20529D01*
X463833Y20498D01*
X463903Y20471D01*
X463975Y20447D01*
X464048Y20427D01*
X464122Y20411D01*
X464196Y20398D01*
X464271Y20388D01*
X464346Y20383D01*
X464422Y20381D01*
X464935Y20381D01*
X469863Y20381D02*
X471916Y20381D01*
X469863Y20381D02*
X469787Y20383D01*
X469712Y20388D01*
X469637Y20398D01*
X469563Y20411D01*
X469489Y20427D01*
X469416Y20447D01*
X469344Y20471D01*
X469274Y20498D01*
X469205Y20529D01*
X469137Y20563D01*
X469071Y20600D01*
X469007Y20641D01*
X468946Y20684D01*
X468886Y20731D01*
X468829Y20780D01*
X468774Y20832D01*
X468722Y20887D01*
X468673Y20944D01*
X468626Y21004D01*
X468583Y21065D01*
X468542Y21129D01*
X468505Y21195D01*
X468471Y21263D01*
X468440Y21332D01*
X468413Y21402D01*
X468389Y21474D01*
X468369Y21547D01*
X468353Y21621D01*
X468340Y21695D01*
X468330Y21770D01*
X468325Y21845D01*
X468323Y21921D01*
X468323Y25000D01*
X468325Y25076D01*
X468330Y25151D01*
X468340Y25226D01*
X468353Y25300D01*
X468369Y25374D01*
X468389Y25447D01*
X468413Y25519D01*
X468440Y25589D01*
X468471Y25658D01*
X468505Y25726D01*
X468542Y25792D01*
X468583Y25856D01*
X468626Y25917D01*
X468673Y25977D01*
X468722Y26034D01*
X468774Y26089D01*
X468829Y26141D01*
X468886Y26190D01*
X468946Y26237D01*
X469007Y26280D01*
X469071Y26321D01*
X469137Y26358D01*
X469205Y26392D01*
X469274Y26423D01*
X469344Y26450D01*
X469416Y26474D01*
X469489Y26494D01*
X469563Y26510D01*
X469637Y26523D01*
X469712Y26533D01*
X469787Y26538D01*
X469863Y26540D01*
X471916Y26540D01*
X475513Y29619D02*
X475513Y20381D01*
X475513Y26540D02*
X478079Y26540D01*
X478155Y26538D01*
X478230Y26533D01*
X478305Y26523D01*
X478379Y26510D01*
X478453Y26494D01*
X478526Y26474D01*
X478598Y26450D01*
X478668Y26423D01*
X478737Y26392D01*
X478805Y26358D01*
X478871Y26321D01*
X478935Y26280D01*
X478996Y26237D01*
X479056Y26190D01*
X479113Y26141D01*
X479168Y26089D01*
X479220Y26034D01*
X479269Y25977D01*
X479316Y25917D01*
X479359Y25856D01*
X479400Y25792D01*
X479437Y25726D01*
X479471Y25658D01*
X479502Y25589D01*
X479529Y25519D01*
X479553Y25447D01*
X479573Y25374D01*
X479589Y25300D01*
X479602Y25226D01*
X479612Y25151D01*
X479617Y25076D01*
X479619Y25000D01*
X479619Y20381D01*
X239801Y14619D02*
X239801Y5381D01*
X239801Y10513D02*
X244933Y10513D01*
X244933Y14619D02*
X244933Y5381D01*
X249784Y8974D02*
X252350Y7947D01*
X249784Y8973D02*
X249717Y9002D01*
X249652Y9034D01*
X249589Y9070D01*
X249528Y9109D01*
X249470Y9152D01*
X249413Y9197D01*
X249360Y9246D01*
X249309Y9297D01*
X249260Y9351D01*
X249215Y9408D01*
X249173Y9467D01*
X249135Y9528D01*
X249099Y9591D01*
X249067Y9656D01*
X249039Y9723D01*
X249014Y9791D01*
X248994Y9860D01*
X248976Y9931D01*
X248963Y10002D01*
X248954Y10074D01*
X248949Y10146D01*
X248947Y10218D01*
X248950Y10291D01*
X248956Y10363D01*
X248966Y10434D01*
X248980Y10505D01*
X248998Y10576D01*
X249020Y10645D01*
X249046Y10712D01*
X249075Y10779D01*
X249108Y10843D01*
X249144Y10906D01*
X249184Y10967D01*
X249226Y11025D01*
X249272Y11081D01*
X249321Y11134D01*
X249373Y11185D01*
X249428Y11233D01*
X249484Y11278D01*
X249544Y11319D01*
X249605Y11357D01*
X249669Y11392D01*
X249734Y11424D01*
X249801Y11452D01*
X249869Y11476D01*
X249939Y11496D01*
X250009Y11513D01*
X250080Y11525D01*
X250152Y11534D01*
X250225Y11539D01*
X250297Y11540D01*
X250297Y11539D02*
X250446Y11535D01*
X250595Y11528D01*
X250743Y11516D01*
X250891Y11501D01*
X251039Y11481D01*
X251186Y11458D01*
X251333Y11432D01*
X251478Y11401D01*
X251623Y11367D01*
X251767Y11329D01*
X251910Y11288D01*
X252052Y11243D01*
X252193Y11194D01*
X252332Y11141D01*
X252470Y11086D01*
X252607Y11026D01*
X252350Y7948D02*
X252417Y7919D01*
X252482Y7887D01*
X252545Y7851D01*
X252606Y7812D01*
X252664Y7769D01*
X252721Y7724D01*
X252774Y7675D01*
X252825Y7624D01*
X252874Y7570D01*
X252919Y7513D01*
X252961Y7454D01*
X252999Y7393D01*
X253035Y7330D01*
X253067Y7265D01*
X253095Y7198D01*
X253120Y7130D01*
X253140Y7061D01*
X253158Y6990D01*
X253171Y6919D01*
X253180Y6847D01*
X253185Y6775D01*
X253187Y6703D01*
X253184Y6630D01*
X253178Y6558D01*
X253168Y6487D01*
X253154Y6416D01*
X253136Y6345D01*
X253114Y6276D01*
X253088Y6209D01*
X253059Y6142D01*
X253026Y6078D01*
X252990Y6015D01*
X252950Y5954D01*
X252908Y5896D01*
X252862Y5840D01*
X252813Y5787D01*
X252761Y5736D01*
X252706Y5688D01*
X252650Y5643D01*
X252590Y5602D01*
X252529Y5564D01*
X252465Y5529D01*
X252400Y5497D01*
X252333Y5469D01*
X252265Y5445D01*
X252195Y5425D01*
X252125Y5408D01*
X252054Y5396D01*
X251982Y5387D01*
X251909Y5382D01*
X251837Y5381D01*
X251631Y5386D01*
X251425Y5397D01*
X251220Y5412D01*
X251015Y5432D01*
X250811Y5456D01*
X250607Y5486D01*
X250404Y5520D01*
X250202Y5560D01*
X250001Y5604D01*
X249801Y5652D01*
X249602Y5706D01*
X249404Y5764D01*
X249208Y5827D01*
X249014Y5894D01*
X256767Y5381D02*
X256767Y11540D01*
X256510Y14106D02*
X256510Y14619D01*
X257024Y14619D01*
X257024Y14106D01*
X256510Y14106D01*
X262165Y8974D02*
X264474Y8974D01*
X262165Y8973D02*
X262082Y8971D01*
X261999Y8965D01*
X261917Y8956D01*
X261835Y8942D01*
X261754Y8925D01*
X261674Y8904D01*
X261594Y8880D01*
X261516Y8852D01*
X261440Y8820D01*
X261364Y8785D01*
X261291Y8746D01*
X261220Y8704D01*
X261150Y8659D01*
X261083Y8610D01*
X261018Y8559D01*
X260955Y8504D01*
X260895Y8447D01*
X260838Y8387D01*
X260783Y8324D01*
X260732Y8259D01*
X260683Y8192D01*
X260638Y8122D01*
X260596Y8051D01*
X260557Y7978D01*
X260522Y7902D01*
X260490Y7826D01*
X260462Y7748D01*
X260438Y7668D01*
X260417Y7588D01*
X260400Y7507D01*
X260386Y7425D01*
X260377Y7343D01*
X260371Y7260D01*
X260369Y7177D01*
X260371Y7094D01*
X260377Y7011D01*
X260386Y6929D01*
X260400Y6847D01*
X260417Y6766D01*
X260438Y6686D01*
X260462Y6606D01*
X260490Y6528D01*
X260522Y6452D01*
X260557Y6376D01*
X260596Y6303D01*
X260638Y6232D01*
X260683Y6162D01*
X260732Y6095D01*
X260783Y6030D01*
X260838Y5967D01*
X260895Y5907D01*
X260955Y5850D01*
X261018Y5795D01*
X261083Y5744D01*
X261150Y5695D01*
X261220Y5650D01*
X261291Y5608D01*
X261364Y5569D01*
X261440Y5534D01*
X261516Y5502D01*
X261594Y5474D01*
X261674Y5450D01*
X261754Y5429D01*
X261835Y5412D01*
X261917Y5398D01*
X261999Y5389D01*
X262082Y5383D01*
X262165Y5381D01*
X264474Y5381D01*
X264474Y10000D01*
X264475Y10000D02*
X264473Y10076D01*
X264468Y10151D01*
X264458Y10226D01*
X264445Y10300D01*
X264429Y10374D01*
X264409Y10447D01*
X264385Y10519D01*
X264358Y10589D01*
X264327Y10658D01*
X264293Y10726D01*
X264256Y10792D01*
X264215Y10856D01*
X264172Y10917D01*
X264125Y10977D01*
X264076Y11034D01*
X264024Y11089D01*
X263969Y11141D01*
X263912Y11190D01*
X263852Y11237D01*
X263791Y11280D01*
X263727Y11321D01*
X263661Y11358D01*
X263593Y11392D01*
X263524Y11423D01*
X263454Y11450D01*
X263382Y11474D01*
X263309Y11494D01*
X263235Y11510D01*
X263161Y11523D01*
X263086Y11533D01*
X263011Y11538D01*
X262935Y11540D01*
X260882Y11540D01*
X274348Y12310D02*
X274309Y12376D01*
X274274Y12444D01*
X274242Y12513D01*
X274214Y12584D01*
X274189Y12657D01*
X274168Y12730D01*
X274151Y12805D01*
X274137Y12880D01*
X274128Y12956D01*
X274122Y13032D01*
X274120Y13109D01*
X274122Y13185D01*
X274128Y13262D01*
X274138Y13338D01*
X274151Y13413D01*
X274168Y13487D01*
X274190Y13561D01*
X274214Y13633D01*
X274243Y13704D01*
X274275Y13774D01*
X274310Y13842D01*
X274349Y13908D01*
X274391Y13972D01*
X274436Y14033D01*
X274485Y14093D01*
X274536Y14149D01*
X274590Y14203D01*
X274647Y14255D01*
X274706Y14303D01*
X274768Y14348D01*
X274832Y14390D01*
X274898Y14429D01*
X274966Y14465D01*
X275035Y14497D01*
X275106Y14525D01*
X275179Y14550D01*
X275252Y14571D01*
X275327Y14588D01*
X275402Y14602D01*
X275478Y14611D01*
X275554Y14617D01*
X275631Y14619D01*
X274348Y12309D02*
X278710Y5381D01*
X276914Y12310D02*
X276953Y12376D01*
X276988Y12444D01*
X277020Y12513D01*
X277048Y12584D01*
X277073Y12657D01*
X277094Y12730D01*
X277111Y12805D01*
X277125Y12880D01*
X277134Y12956D01*
X277140Y13032D01*
X277142Y13109D01*
X277140Y13185D01*
X277134Y13262D01*
X277124Y13338D01*
X277111Y13413D01*
X277094Y13487D01*
X277072Y13561D01*
X277048Y13633D01*
X277019Y13704D01*
X276987Y13774D01*
X276952Y13842D01*
X276913Y13908D01*
X276871Y13972D01*
X276826Y14033D01*
X276777Y14093D01*
X276726Y14149D01*
X276672Y14203D01*
X276615Y14255D01*
X276556Y14303D01*
X276494Y14348D01*
X276430Y14390D01*
X276364Y14429D01*
X276296Y14465D01*
X276227Y14497D01*
X276156Y14525D01*
X276083Y14550D01*
X276010Y14571D01*
X275935Y14588D01*
X275860Y14602D01*
X275784Y14611D01*
X275708Y14617D01*
X275631Y14619D01*
X273578Y6921D02*
X273580Y6845D01*
X273585Y6770D01*
X273595Y6695D01*
X273608Y6621D01*
X273624Y6547D01*
X273644Y6474D01*
X273668Y6402D01*
X273695Y6332D01*
X273726Y6263D01*
X273760Y6195D01*
X273797Y6129D01*
X273838Y6065D01*
X273881Y6004D01*
X273928Y5944D01*
X273977Y5887D01*
X274029Y5832D01*
X274084Y5780D01*
X274141Y5731D01*
X274201Y5684D01*
X274262Y5641D01*
X274326Y5600D01*
X274392Y5563D01*
X274460Y5529D01*
X274529Y5498D01*
X274599Y5471D01*
X274671Y5447D01*
X274744Y5427D01*
X274818Y5411D01*
X274892Y5398D01*
X274967Y5388D01*
X275042Y5383D01*
X275118Y5381D01*
X273578Y6921D02*
X273580Y6990D01*
X273585Y7058D01*
X273595Y7127D01*
X273607Y7194D01*
X273624Y7261D01*
X273644Y7327D01*
X273667Y7391D01*
X273694Y7455D01*
X273725Y7516D01*
X273758Y7576D01*
X273795Y7635D01*
X273835Y7691D01*
X276914Y12309D01*
X275888Y5638D02*
X275832Y5598D01*
X275773Y5561D01*
X275713Y5528D01*
X275652Y5497D01*
X275588Y5470D01*
X275524Y5447D01*
X275458Y5427D01*
X275391Y5410D01*
X275324Y5398D01*
X275255Y5388D01*
X275187Y5383D01*
X275118Y5381D01*
X275888Y5638D02*
X279737Y8460D01*
X286861Y14619D02*
X288914Y5381D01*
X290967Y11540D01*
X293020Y5381D01*
X295073Y14619D01*
X300265Y8974D02*
X302574Y8974D01*
X300265Y8973D02*
X300182Y8971D01*
X300099Y8965D01*
X300017Y8956D01*
X299935Y8942D01*
X299854Y8925D01*
X299774Y8904D01*
X299694Y8880D01*
X299616Y8852D01*
X299540Y8820D01*
X299464Y8785D01*
X299391Y8746D01*
X299320Y8704D01*
X299250Y8659D01*
X299183Y8610D01*
X299118Y8559D01*
X299055Y8504D01*
X298995Y8447D01*
X298938Y8387D01*
X298883Y8324D01*
X298832Y8259D01*
X298783Y8192D01*
X298738Y8122D01*
X298696Y8051D01*
X298657Y7978D01*
X298622Y7902D01*
X298590Y7826D01*
X298562Y7748D01*
X298538Y7668D01*
X298517Y7588D01*
X298500Y7507D01*
X298486Y7425D01*
X298477Y7343D01*
X298471Y7260D01*
X298469Y7177D01*
X298471Y7094D01*
X298477Y7011D01*
X298486Y6929D01*
X298500Y6847D01*
X298517Y6766D01*
X298538Y6686D01*
X298562Y6606D01*
X298590Y6528D01*
X298622Y6452D01*
X298657Y6376D01*
X298696Y6303D01*
X298738Y6232D01*
X298783Y6162D01*
X298832Y6095D01*
X298883Y6030D01*
X298938Y5967D01*
X298995Y5907D01*
X299055Y5850D01*
X299118Y5795D01*
X299183Y5744D01*
X299250Y5695D01*
X299320Y5650D01*
X299391Y5608D01*
X299464Y5569D01*
X299540Y5534D01*
X299616Y5502D01*
X299694Y5474D01*
X299774Y5450D01*
X299854Y5429D01*
X299935Y5412D01*
X300017Y5398D01*
X300099Y5389D01*
X300182Y5383D01*
X300265Y5381D01*
X302574Y5381D01*
X302574Y10000D01*
X302575Y10000D02*
X302573Y10076D01*
X302568Y10151D01*
X302558Y10226D01*
X302545Y10300D01*
X302529Y10374D01*
X302509Y10447D01*
X302485Y10519D01*
X302458Y10589D01*
X302427Y10658D01*
X302393Y10726D01*
X302356Y10792D01*
X302315Y10856D01*
X302272Y10917D01*
X302225Y10977D01*
X302176Y11034D01*
X302124Y11089D01*
X302069Y11141D01*
X302012Y11190D01*
X301952Y11237D01*
X301891Y11280D01*
X301827Y11321D01*
X301761Y11358D01*
X301693Y11392D01*
X301624Y11423D01*
X301554Y11450D01*
X301482Y11474D01*
X301409Y11494D01*
X301335Y11510D01*
X301261Y11523D01*
X301186Y11533D01*
X301111Y11538D01*
X301035Y11540D01*
X298982Y11540D01*
X306965Y11540D02*
X306965Y5381D01*
X306965Y11540D02*
X310044Y11540D01*
X310044Y10513D01*
X313265Y11540D02*
X313265Y5381D01*
X313265Y11540D02*
X316344Y11540D01*
X316344Y10513D01*
X320753Y5381D02*
X323320Y5381D01*
X320753Y5381D02*
X320677Y5383D01*
X320602Y5388D01*
X320527Y5398D01*
X320453Y5411D01*
X320379Y5427D01*
X320306Y5447D01*
X320234Y5471D01*
X320164Y5498D01*
X320095Y5529D01*
X320027Y5563D01*
X319961Y5600D01*
X319897Y5641D01*
X319836Y5684D01*
X319776Y5731D01*
X319719Y5780D01*
X319664Y5832D01*
X319612Y5887D01*
X319563Y5944D01*
X319516Y6004D01*
X319473Y6065D01*
X319432Y6129D01*
X319395Y6195D01*
X319361Y6263D01*
X319330Y6332D01*
X319303Y6402D01*
X319279Y6474D01*
X319259Y6547D01*
X319243Y6621D01*
X319230Y6695D01*
X319220Y6770D01*
X319215Y6845D01*
X319213Y6921D01*
X319214Y6921D02*
X319214Y9487D01*
X319216Y9577D01*
X319222Y9666D01*
X319232Y9755D01*
X319245Y9843D01*
X319263Y9931D01*
X319284Y10018D01*
X319309Y10104D01*
X319338Y10189D01*
X319370Y10273D01*
X319406Y10355D01*
X319446Y10435D01*
X319489Y10514D01*
X319536Y10590D01*
X319585Y10665D01*
X319638Y10737D01*
X319694Y10807D01*
X319753Y10874D01*
X319815Y10939D01*
X319880Y11001D01*
X319947Y11060D01*
X320017Y11116D01*
X320089Y11169D01*
X320164Y11218D01*
X320241Y11265D01*
X320319Y11308D01*
X320399Y11348D01*
X320481Y11384D01*
X320565Y11416D01*
X320650Y11445D01*
X320736Y11470D01*
X320823Y11491D01*
X320911Y11509D01*
X320999Y11522D01*
X321088Y11532D01*
X321177Y11538D01*
X321267Y11540D01*
X321357Y11538D01*
X321446Y11532D01*
X321535Y11522D01*
X321623Y11509D01*
X321711Y11491D01*
X321798Y11470D01*
X321884Y11445D01*
X321969Y11416D01*
X322053Y11384D01*
X322135Y11348D01*
X322215Y11308D01*
X322294Y11265D01*
X322370Y11218D01*
X322445Y11169D01*
X322517Y11116D01*
X322587Y11060D01*
X322654Y11001D01*
X322719Y10939D01*
X322781Y10874D01*
X322840Y10807D01*
X322896Y10737D01*
X322949Y10665D01*
X322998Y10590D01*
X323045Y10514D01*
X323088Y10435D01*
X323128Y10355D01*
X323164Y10273D01*
X323196Y10189D01*
X323225Y10104D01*
X323250Y10018D01*
X323271Y9931D01*
X323289Y9843D01*
X323302Y9755D01*
X323312Y9666D01*
X323318Y9577D01*
X323320Y9487D01*
X323320Y8460D01*
X319214Y8460D01*
X327314Y5381D02*
X327314Y11540D01*
X329880Y11540D01*
X329956Y11538D01*
X330031Y11533D01*
X330106Y11523D01*
X330180Y11510D01*
X330254Y11494D01*
X330327Y11474D01*
X330399Y11450D01*
X330469Y11423D01*
X330538Y11392D01*
X330606Y11358D01*
X330672Y11321D01*
X330736Y11280D01*
X330797Y11237D01*
X330857Y11190D01*
X330914Y11141D01*
X330969Y11089D01*
X331021Y11034D01*
X331070Y10977D01*
X331117Y10917D01*
X331160Y10856D01*
X331201Y10792D01*
X331238Y10726D01*
X331272Y10658D01*
X331303Y10589D01*
X331330Y10519D01*
X331354Y10447D01*
X331374Y10374D01*
X331390Y10300D01*
X331403Y10226D01*
X331413Y10151D01*
X331418Y10076D01*
X331420Y10000D01*
X331420Y5381D01*
D11*
X170800Y170442D02*
X69200Y170442D01*
X69200Y209558D02*
X170800Y209558D01*
X170800Y170442D01*
X69200Y183650D02*
X69358Y183652D01*
X69517Y183658D01*
X69675Y183668D01*
X69832Y183682D01*
X69990Y183699D01*
X70146Y183721D01*
X70303Y183746D01*
X70458Y183776D01*
X70613Y183809D01*
X70767Y183846D01*
X70920Y183887D01*
X71072Y183932D01*
X71222Y183981D01*
X71372Y184033D01*
X71520Y184089D01*
X71667Y184149D01*
X71812Y184212D01*
X71955Y184279D01*
X72097Y184349D01*
X72237Y184423D01*
X72375Y184501D01*
X72511Y184582D01*
X72645Y184666D01*
X72777Y184753D01*
X72907Y184844D01*
X73034Y184938D01*
X73159Y185035D01*
X73282Y185136D01*
X73402Y185239D01*
X73519Y185345D01*
X73634Y185454D01*
X73746Y185566D01*
X73855Y185681D01*
X73961Y185798D01*
X74064Y185918D01*
X74165Y186041D01*
X74262Y186166D01*
X74356Y186293D01*
X74447Y186423D01*
X74534Y186555D01*
X74618Y186689D01*
X74699Y186825D01*
X74777Y186963D01*
X74851Y187103D01*
X74921Y187245D01*
X74988Y187388D01*
X75051Y187533D01*
X75111Y187680D01*
X75167Y187828D01*
X75219Y187978D01*
X75268Y188128D01*
X75313Y188280D01*
X75354Y188433D01*
X75391Y188587D01*
X75424Y188742D01*
X75454Y188897D01*
X75479Y189054D01*
X75501Y189210D01*
X75518Y189368D01*
X75532Y189525D01*
X75542Y189683D01*
X75548Y189842D01*
X75550Y190000D01*
X75548Y190158D01*
X75542Y190317D01*
X75532Y190475D01*
X75518Y190632D01*
X75501Y190790D01*
X75479Y190946D01*
X75454Y191103D01*
X75424Y191258D01*
X75391Y191413D01*
X75354Y191567D01*
X75313Y191720D01*
X75268Y191872D01*
X75219Y192022D01*
X75167Y192172D01*
X75111Y192320D01*
X75051Y192467D01*
X74988Y192612D01*
X74921Y192755D01*
X74851Y192897D01*
X74777Y193037D01*
X74699Y193175D01*
X74618Y193311D01*
X74534Y193445D01*
X74447Y193577D01*
X74356Y193707D01*
X74262Y193834D01*
X74165Y193959D01*
X74064Y194082D01*
X73961Y194202D01*
X73855Y194319D01*
X73746Y194434D01*
X73634Y194546D01*
X73519Y194655D01*
X73402Y194761D01*
X73282Y194864D01*
X73159Y194965D01*
X73034Y195062D01*
X72907Y195156D01*
X72777Y195247D01*
X72645Y195334D01*
X72511Y195418D01*
X72375Y195499D01*
X72237Y195577D01*
X72097Y195651D01*
X71955Y195721D01*
X71812Y195788D01*
X71667Y195851D01*
X71520Y195911D01*
X71372Y195967D01*
X71222Y196019D01*
X71072Y196068D01*
X70920Y196113D01*
X70767Y196154D01*
X70613Y196191D01*
X70458Y196224D01*
X70303Y196254D01*
X70146Y196279D01*
X69990Y196301D01*
X69832Y196318D01*
X69675Y196332D01*
X69517Y196342D01*
X69358Y196348D01*
X69200Y196350D01*
D12*
X69200Y206002D02*
X170800Y206002D01*
D11*
X69200Y209558D02*
X69200Y196350D01*
X69200Y183650D02*
X69200Y170442D01*
D13*
X57000Y327000D02*
X183000Y327000D01*
X183000Y273000D02*
X57000Y273000D01*
X57000Y327000D01*
X183000Y327000D02*
X183000Y273000D01*
D14*
X54000Y339000D02*
X54002Y339070D01*
X54008Y339140D01*
X54018Y339209D01*
X54031Y339278D01*
X54049Y339346D01*
X54070Y339413D01*
X54095Y339478D01*
X54124Y339542D01*
X54156Y339605D01*
X54192Y339665D01*
X54231Y339723D01*
X54273Y339779D01*
X54318Y339833D01*
X54366Y339884D01*
X54417Y339932D01*
X54471Y339977D01*
X54527Y340019D01*
X54585Y340058D01*
X54645Y340094D01*
X54708Y340126D01*
X54772Y340155D01*
X54837Y340180D01*
X54904Y340201D01*
X54972Y340219D01*
X55041Y340232D01*
X55110Y340242D01*
X55180Y340248D01*
X55250Y340250D01*
X55320Y340248D01*
X55390Y340242D01*
X55459Y340232D01*
X55528Y340219D01*
X55596Y340201D01*
X55663Y340180D01*
X55728Y340155D01*
X55792Y340126D01*
X55855Y340094D01*
X55915Y340058D01*
X55973Y340019D01*
X56029Y339977D01*
X56083Y339932D01*
X56134Y339884D01*
X56182Y339833D01*
X56227Y339779D01*
X56269Y339723D01*
X56308Y339665D01*
X56344Y339605D01*
X56376Y339542D01*
X56405Y339478D01*
X56430Y339413D01*
X56451Y339346D01*
X56469Y339278D01*
X56482Y339209D01*
X56492Y339140D01*
X56498Y339070D01*
X56500Y339000D01*
X56498Y338930D01*
X56492Y338860D01*
X56482Y338791D01*
X56469Y338722D01*
X56451Y338654D01*
X56430Y338587D01*
X56405Y338522D01*
X56376Y338458D01*
X56344Y338395D01*
X56308Y338335D01*
X56269Y338277D01*
X56227Y338221D01*
X56182Y338167D01*
X56134Y338116D01*
X56083Y338068D01*
X56029Y338023D01*
X55973Y337981D01*
X55915Y337942D01*
X55855Y337906D01*
X55792Y337874D01*
X55728Y337845D01*
X55663Y337820D01*
X55596Y337799D01*
X55528Y337781D01*
X55459Y337768D01*
X55390Y337758D01*
X55320Y337752D01*
X55250Y337750D01*
X55180Y337752D01*
X55110Y337758D01*
X55041Y337768D01*
X54972Y337781D01*
X54904Y337799D01*
X54837Y337820D01*
X54772Y337845D01*
X54708Y337874D01*
X54645Y337906D01*
X54585Y337942D01*
X54527Y337981D01*
X54471Y338023D01*
X54417Y338068D01*
X54366Y338116D01*
X54318Y338167D01*
X54273Y338221D01*
X54231Y338277D01*
X54192Y338335D01*
X54156Y338395D01*
X54124Y338458D01*
X54095Y338522D01*
X54070Y338587D01*
X54049Y338654D01*
X54031Y338722D01*
X54018Y338791D01*
X54008Y338860D01*
X54002Y338930D01*
X54000Y339000D01*
D15*
X64000Y317000D02*
X64002Y317109D01*
X64008Y317218D01*
X64018Y317326D01*
X64032Y317434D01*
X64049Y317542D01*
X64071Y317649D01*
X64096Y317755D01*
X64126Y317859D01*
X64159Y317963D01*
X64196Y318066D01*
X64236Y318167D01*
X64280Y318266D01*
X64328Y318364D01*
X64380Y318461D01*
X64434Y318555D01*
X64492Y318647D01*
X64554Y318737D01*
X64619Y318824D01*
X64686Y318910D01*
X64757Y318993D01*
X64831Y319073D01*
X64908Y319150D01*
X64987Y319225D01*
X65069Y319296D01*
X65154Y319365D01*
X65241Y319430D01*
X65330Y319493D01*
X65422Y319551D01*
X65516Y319607D01*
X65611Y319659D01*
X65709Y319708D01*
X65808Y319753D01*
X65909Y319795D01*
X66011Y319832D01*
X66114Y319866D01*
X66219Y319897D01*
X66325Y319923D01*
X66431Y319946D01*
X66539Y319964D01*
X66647Y319979D01*
X66755Y319990D01*
X66864Y319997D01*
X66973Y320000D01*
X67082Y319999D01*
X67191Y319994D01*
X67299Y319985D01*
X67407Y319972D01*
X67515Y319955D01*
X67622Y319935D01*
X67728Y319910D01*
X67833Y319882D01*
X67937Y319850D01*
X68040Y319814D01*
X68142Y319774D01*
X68242Y319731D01*
X68340Y319684D01*
X68437Y319634D01*
X68531Y319580D01*
X68624Y319522D01*
X68715Y319462D01*
X68803Y319398D01*
X68889Y319331D01*
X68972Y319261D01*
X69053Y319188D01*
X69131Y319112D01*
X69206Y319033D01*
X69279Y318951D01*
X69348Y318867D01*
X69414Y318781D01*
X69477Y318692D01*
X69537Y318601D01*
X69594Y318508D01*
X69647Y318413D01*
X69696Y318316D01*
X69742Y318217D01*
X69784Y318117D01*
X69823Y318015D01*
X69858Y317911D01*
X69889Y317807D01*
X69917Y317702D01*
X69940Y317595D01*
X69960Y317488D01*
X69976Y317380D01*
X69988Y317272D01*
X69996Y317163D01*
X70000Y317054D01*
X70000Y316946D01*
X69996Y316837D01*
X69988Y316728D01*
X69976Y316620D01*
X69960Y316512D01*
X69940Y316405D01*
X69917Y316298D01*
X69889Y316193D01*
X69858Y316089D01*
X69823Y315985D01*
X69784Y315883D01*
X69742Y315783D01*
X69696Y315684D01*
X69647Y315587D01*
X69594Y315492D01*
X69537Y315399D01*
X69477Y315308D01*
X69414Y315219D01*
X69348Y315133D01*
X69279Y315049D01*
X69206Y314967D01*
X69131Y314888D01*
X69053Y314812D01*
X68972Y314739D01*
X68889Y314669D01*
X68803Y314602D01*
X68715Y314538D01*
X68624Y314478D01*
X68531Y314420D01*
X68437Y314366D01*
X68340Y314316D01*
X68242Y314269D01*
X68142Y314226D01*
X68040Y314186D01*
X67937Y314150D01*
X67833Y314118D01*
X67728Y314090D01*
X67622Y314065D01*
X67515Y314045D01*
X67407Y314028D01*
X67299Y314015D01*
X67191Y314006D01*
X67082Y314001D01*
X66973Y314000D01*
X66864Y314003D01*
X66755Y314010D01*
X66647Y314021D01*
X66539Y314036D01*
X66431Y314054D01*
X66325Y314077D01*
X66219Y314103D01*
X66114Y314134D01*
X66011Y314168D01*
X65909Y314205D01*
X65808Y314247D01*
X65709Y314292D01*
X65611Y314341D01*
X65516Y314393D01*
X65422Y314449D01*
X65330Y314507D01*
X65241Y314570D01*
X65154Y314635D01*
X65069Y314704D01*
X64987Y314775D01*
X64908Y314850D01*
X64831Y314927D01*
X64757Y315007D01*
X64686Y315090D01*
X64619Y315176D01*
X64554Y315263D01*
X64492Y315353D01*
X64434Y315445D01*
X64380Y315539D01*
X64328Y315636D01*
X64280Y315734D01*
X64236Y315833D01*
X64196Y315934D01*
X64159Y316037D01*
X64126Y316141D01*
X64096Y316245D01*
X64071Y316351D01*
X64049Y316458D01*
X64032Y316566D01*
X64018Y316674D01*
X64008Y316782D01*
X64002Y316891D01*
X64000Y317000D01*
D16*
X388654Y380000D03*
X388654Y380508D03*
X388654Y381016D03*
X388654Y381524D03*
X388654Y382032D03*
X388654Y382540D03*
X388654Y383048D03*
X388654Y383556D03*
X388654Y384064D03*
X388654Y384572D03*
X388654Y385080D03*
X388654Y385588D03*
X388654Y386096D03*
X388654Y386604D03*
X388654Y387112D03*
X388654Y387620D03*
X388654Y388128D03*
X388654Y388636D03*
X388654Y389144D03*
D17*
X486444Y389652D03*
D18*
X295690Y389652D03*
D19*
X486952Y390160D03*
D20*
X294928Y390160D03*
D21*
X487206Y390668D03*
D22*
X294674Y390668D03*
D23*
X487460Y391176D03*
D24*
X294420Y391176D03*
D23*
X487460Y391684D03*
D24*
X294420Y391684D03*
D25*
X487714Y392192D03*
D24*
X294420Y392192D03*
D25*
X487714Y392700D03*
D26*
X365794Y392700D03*
D27*
X336076Y392700D03*
X325408Y392700D03*
D28*
X314486Y392700D03*
D29*
X294166Y392700D03*
D25*
X487714Y393208D03*
D30*
X473998Y393208D03*
X463838Y393208D03*
X454186Y393208D03*
X441994Y393208D03*
X421674Y393208D03*
D31*
X393480Y393208D03*
D26*
X365794Y393208D03*
D32*
X348522Y393208D03*
D31*
X336076Y393208D03*
X325916Y393208D03*
X315248Y393208D03*
X313216Y393208D03*
D29*
X294166Y393208D03*
D25*
X487714Y393716D03*
X473998Y393716D03*
X463838Y393716D03*
D23*
X453932Y393716D03*
D25*
X441994Y393716D03*
D33*
X430056Y393716D03*
D28*
X422182Y393716D03*
D30*
X418626Y393716D03*
D33*
X413292Y393716D03*
D30*
X405926Y393716D03*
D33*
X401100Y393716D03*
D28*
X393734Y393716D03*
D30*
X390178Y393716D03*
D33*
X384844Y393716D03*
X379764Y393716D03*
D26*
X365794Y393716D03*
D32*
X348522Y393716D03*
D30*
X335314Y393716D03*
D31*
X326424Y393716D03*
D26*
X312454Y393716D03*
D29*
X294166Y393716D03*
D25*
X487714Y394224D03*
D21*
X474506Y394224D03*
X464346Y394224D03*
D17*
X453932Y394224D03*
D30*
X444026Y394224D03*
D31*
X439708Y394224D03*
D33*
X430056Y394224D03*
D28*
X422182Y394224D03*
D30*
X418626Y394224D03*
D33*
X413292Y394224D03*
D28*
X405926Y394224D03*
D33*
X401100Y394224D03*
D34*
X393988Y394224D03*
D30*
X390178Y394224D03*
D33*
X384844Y394224D03*
X379764Y394224D03*
D26*
X365794Y394224D03*
X352078Y394224D03*
X348522Y394224D03*
D31*
X334552Y394224D03*
X326932Y394224D03*
D26*
X312454Y394224D03*
D29*
X294166Y394224D03*
D25*
X487714Y394732D03*
D19*
X474760Y394732D03*
D35*
X464346Y394732D03*
D17*
X453932Y394732D03*
D31*
X444788Y394732D03*
D33*
X430056Y394732D03*
X422944Y394732D03*
D30*
X418626Y394732D03*
D33*
X413292Y394732D03*
D28*
X405926Y394732D03*
D34*
X401100Y394732D03*
D33*
X394496Y394732D03*
D30*
X390178Y394732D03*
D33*
X384844Y394732D03*
X379764Y394732D03*
D26*
X365794Y394732D03*
X352078Y394732D03*
X348522Y394732D03*
D31*
X334044Y394732D03*
X327440Y394732D03*
X312708Y394732D03*
D29*
X294166Y394732D03*
D25*
X487714Y395240D03*
D28*
X476538Y395240D03*
X466378Y395240D03*
X456726Y395240D03*
D34*
X451392Y395240D03*
D31*
X445296Y395240D03*
D33*
X430056Y395240D03*
X422944Y395240D03*
D30*
X418626Y395240D03*
X413038Y395240D03*
D28*
X405926Y395240D03*
D34*
X401100Y395240D03*
D33*
X394496Y395240D03*
D30*
X390178Y395240D03*
D33*
X384844Y395240D03*
X379764Y395240D03*
D26*
X365794Y395240D03*
X352078Y395240D03*
X348522Y395240D03*
D31*
X333536Y395240D03*
X327948Y395240D03*
D36*
X313724Y395240D03*
D29*
X294166Y395240D03*
D25*
X487714Y395748D03*
D28*
X477046Y395748D03*
X466886Y395748D03*
X456726Y395748D03*
X451138Y395748D03*
D26*
X445550Y395748D03*
D31*
X442248Y395748D03*
D30*
X439454Y395748D03*
D33*
X430056Y395748D03*
X422944Y395748D03*
D30*
X418626Y395748D03*
X413038Y395748D03*
D37*
X405926Y395748D03*
D34*
X401100Y395748D03*
D33*
X394496Y395748D03*
D30*
X390178Y395748D03*
D33*
X384844Y395748D03*
X379764Y395748D03*
D26*
X370874Y395748D03*
X365794Y395748D03*
X360714Y395748D03*
X352078Y395748D03*
X348522Y395748D03*
D31*
X333028Y395748D03*
X328456Y395748D03*
D36*
X313724Y395748D03*
D29*
X294166Y395748D03*
D25*
X487714Y396256D03*
D33*
X477300Y396256D03*
X467140Y396256D03*
X456980Y396256D03*
X450884Y396256D03*
D26*
X445550Y396256D03*
D21*
X440470Y396256D03*
D33*
X430056Y396256D03*
D28*
X422182Y396256D03*
D33*
X418372Y396256D03*
D30*
X413038Y396256D03*
X406942Y396256D03*
D31*
X404656Y396256D03*
X402116Y396256D03*
D30*
X399830Y396256D03*
D28*
X393734Y396256D03*
D30*
X390178Y396256D03*
D33*
X384844Y396256D03*
X379764Y396256D03*
D38*
X365794Y396256D03*
D26*
X352078Y396256D03*
X348522Y396256D03*
X332774Y396256D03*
D31*
X328964Y396256D03*
D26*
X313470Y396256D03*
D29*
X294166Y396256D03*
D25*
X487714Y396764D03*
D33*
X477300Y396764D03*
X467140Y396764D03*
X456980Y396764D03*
X450884Y396764D03*
D26*
X446058Y396764D03*
D31*
X442756Y396764D03*
D30*
X439962Y396764D03*
D26*
X437422Y396764D03*
D33*
X430056Y396764D03*
D21*
X420150Y396764D03*
D30*
X413038Y396764D03*
X406942Y396764D03*
D31*
X404656Y396764D03*
D30*
X402370Y396764D03*
D31*
X399576Y396764D03*
D23*
X391956Y396764D03*
D33*
X384844Y396764D03*
X379764Y396764D03*
D38*
X365794Y396764D03*
D26*
X352078Y396764D03*
X348522Y396764D03*
X332266Y396764D03*
X329218Y396764D03*
D31*
X312708Y396764D03*
D29*
X294166Y396764D03*
D25*
X487714Y397272D03*
D33*
X477300Y397272D03*
X467140Y397272D03*
X456980Y397272D03*
X450884Y397272D03*
D26*
X446058Y397272D03*
X443010Y397272D03*
X439962Y397272D03*
X436914Y397272D03*
D33*
X430056Y397272D03*
D39*
X419388Y397272D03*
D30*
X413038Y397272D03*
X407450Y397272D03*
D37*
X403386Y397272D03*
D30*
X399322Y397272D03*
D39*
X390940Y397272D03*
D33*
X384844Y397272D03*
X379764Y397272D03*
D26*
X370874Y397272D03*
X365794Y397272D03*
X360714Y397272D03*
X352078Y397272D03*
X348522Y397272D03*
X332266Y397272D03*
X329726Y397272D03*
D30*
X311438Y397272D03*
D27*
X308136Y397272D03*
D29*
X294166Y397272D03*
D25*
X487714Y397780D03*
D33*
X477300Y397780D03*
X467140Y397780D03*
X456980Y397780D03*
X450884Y397780D03*
D27*
X445804Y397780D03*
D31*
X442756Y397780D03*
X439708Y397780D03*
D26*
X436914Y397780D03*
D33*
X430056Y397780D03*
D28*
X418626Y397780D03*
D30*
X413038Y397780D03*
X407450Y397780D03*
D34*
X403132Y397780D03*
D30*
X399322Y397780D03*
D28*
X390178Y397780D03*
X384590Y397780D03*
D33*
X379764Y397780D03*
D26*
X370874Y397780D03*
X365794Y397780D03*
X360714Y397780D03*
X352078Y397780D03*
X348522Y397780D03*
X331758Y397780D03*
X329726Y397780D03*
X319058Y397780D03*
D19*
X313724Y397780D03*
D26*
X308390Y397780D03*
D29*
X294166Y397780D03*
D25*
X487714Y398288D03*
D33*
X477300Y398288D03*
X467140Y398288D03*
D28*
X456726Y398288D03*
D33*
X450884Y398288D03*
D26*
X445550Y398288D03*
D31*
X442756Y398288D03*
X439708Y398288D03*
D26*
X436914Y398288D03*
D33*
X430056Y398288D03*
X418372Y398288D03*
X412784Y398288D03*
X407704Y398288D03*
D28*
X403386Y398288D03*
D33*
X399068Y398288D03*
X389924Y398288D03*
D17*
X382304Y398288D03*
D26*
X370874Y398288D03*
X365794Y398288D03*
X360714Y398288D03*
D31*
X352332Y398288D03*
D23*
X346236Y398288D03*
D26*
X331758Y398288D03*
X330234Y398288D03*
X319058Y398288D03*
D21*
X313978Y398288D03*
D31*
X308136Y398288D03*
D24*
X294420Y398288D03*
D25*
X487714Y398796D03*
D33*
X477300Y398796D03*
X467140Y398796D03*
D28*
X456726Y398796D03*
X450630Y398796D03*
D26*
X445550Y398796D03*
D37*
X440978Y398796D03*
D31*
X436660Y398796D03*
D33*
X430056Y398796D03*
D21*
X420150Y398796D03*
D33*
X412784Y398796D03*
X407704Y398796D03*
D28*
X403386Y398796D03*
D30*
X398814Y398796D03*
D21*
X391702Y398796D03*
D17*
X382304Y398796D03*
D26*
X370874Y398796D03*
X365794Y398796D03*
X360714Y398796D03*
D31*
X352332Y398796D03*
D21*
X345982Y398796D03*
D33*
X330996Y398796D03*
D26*
X319058Y398796D03*
X307882Y398796D03*
D24*
X294420Y398796D03*
D25*
X487714Y399304D03*
D28*
X477046Y399304D03*
X466886Y399304D03*
X456726Y399304D03*
X450630Y399304D03*
D31*
X445296Y399304D03*
D37*
X440470Y399304D03*
D26*
X436914Y399304D03*
D33*
X430056Y399304D03*
D23*
X420404Y399304D03*
D33*
X412784Y399304D03*
D30*
X407958Y399304D03*
D33*
X403132Y399304D03*
X398560Y399304D03*
D23*
X391956Y399304D03*
D33*
X384844Y399304D03*
D37*
X381034Y399304D03*
D26*
X370874Y399304D03*
X365794Y399304D03*
X360714Y399304D03*
X352078Y399304D03*
D31*
X348268Y399304D03*
D30*
X330742Y399304D03*
D32*
X313470Y399304D03*
D24*
X294420Y399304D03*
D25*
X487714Y399812D03*
D28*
X476538Y399812D03*
X466378Y399812D03*
X456726Y399812D03*
X450630Y399812D03*
D26*
X445042Y399812D03*
X436914Y399812D03*
D33*
X430056Y399812D03*
D39*
X420404Y399812D03*
X391956Y399812D03*
D33*
X380780Y399812D03*
D26*
X370874Y399812D03*
X365794Y399812D03*
X360714Y399812D03*
X352078Y399812D03*
D31*
X348268Y399812D03*
X330996Y399812D03*
D40*
X313724Y399812D03*
D24*
X294420Y399812D03*
D25*
X487714Y400320D03*
D37*
X476030Y400320D03*
D27*
X471204Y400320D03*
D37*
X465870Y400320D03*
D27*
X461044Y400320D03*
D33*
X456472Y400320D03*
D28*
X450630Y400320D03*
D31*
X444788Y400320D03*
X437168Y400320D03*
D17*
X430056Y400320D03*
D26*
X370874Y400320D03*
X365794Y400320D03*
X360714Y400320D03*
X352078Y400320D03*
D31*
X348268Y400320D03*
X330996Y400320D03*
D26*
X318550Y400320D03*
D27*
X314740Y400320D03*
X312708Y400320D03*
D26*
X308898Y400320D03*
D24*
X294420Y400320D03*
D25*
X487714Y400828D03*
D19*
X474252Y400828D03*
X464092Y400828D03*
D33*
X456472Y400828D03*
D28*
X450630Y400828D03*
D30*
X444026Y400828D03*
D31*
X437676Y400828D03*
D41*
X429802Y400828D03*
D26*
X370874Y400828D03*
X365794Y400828D03*
X360714Y400828D03*
D27*
X352332Y400828D03*
D31*
X348268Y400828D03*
D38*
X330742Y400828D03*
D28*
X317534Y400828D03*
X313470Y400828D03*
D31*
X309152Y400828D03*
D24*
X294420Y400828D03*
D25*
X487714Y401336D03*
D21*
X473998Y401336D03*
X463838Y401336D03*
D33*
X456472Y401336D03*
X450376Y401336D03*
X442756Y401336D03*
D27*
X440724Y401336D03*
D33*
X438692Y401336D03*
D41*
X429802Y401336D03*
D33*
X412784Y401336D03*
D38*
X365794Y401336D03*
D26*
X348522Y401336D03*
D40*
X330996Y401336D03*
D33*
X317280Y401336D03*
D30*
X313470Y401336D03*
D28*
X309914Y401336D03*
D29*
X294166Y401336D03*
D25*
X487714Y401844D03*
X473490Y401844D03*
X463330Y401844D03*
D33*
X456472Y401844D03*
X450376Y401844D03*
D25*
X440470Y401844D03*
D41*
X429802Y401844D03*
D33*
X412784Y401844D03*
D38*
X365794Y401844D03*
D26*
X348522Y401844D03*
X330742Y401844D03*
D27*
X318296Y401844D03*
D30*
X313470Y401844D03*
D26*
X308898Y401844D03*
D29*
X294166Y401844D03*
D25*
X487714Y402352D03*
D31*
X365540Y402352D03*
D26*
X348522Y402352D03*
X330742Y402352D03*
D33*
X317280Y402352D03*
D27*
X312708Y402352D03*
D28*
X309914Y402352D03*
D29*
X294166Y402352D03*
D25*
X487714Y402860D03*
D26*
X365794Y402860D03*
D31*
X348268Y402860D03*
D26*
X330742Y402860D03*
D33*
X317280Y402860D03*
D26*
X314486Y402860D03*
D27*
X312708Y402860D03*
D33*
X309660Y402860D03*
D29*
X294166Y402860D03*
D25*
X487714Y403368D03*
D26*
X365794Y403368D03*
D38*
X348522Y403368D03*
D26*
X330742Y403368D03*
D27*
X318296Y403368D03*
D30*
X313470Y403368D03*
D26*
X308898Y403368D03*
D29*
X294166Y403368D03*
D25*
X487714Y403876D03*
D26*
X365794Y403876D03*
D38*
X348522Y403876D03*
D26*
X330742Y403876D03*
D33*
X317280Y403876D03*
X313724Y403876D03*
D28*
X309914Y403876D03*
D29*
X294166Y403876D03*
D25*
X487714Y404384D03*
D26*
X365794Y404384D03*
X316518Y404384D03*
D27*
X312708Y404384D03*
D24*
X294420Y404384D03*
D23*
X487460Y404892D03*
D24*
X294420Y404892D03*
D23*
X487460Y405400D03*
D22*
X294674Y405400D03*
D21*
X487206Y405908D03*
D20*
X294928Y405908D03*
D35*
X486698Y406416D03*
D42*
X295182Y406416D03*
D16*
X388654Y406924D03*
X388654Y407432D03*
X388654Y407940D03*
X388654Y408448D03*
X388654Y408956D03*
X388654Y409464D03*
X388654Y409972D03*
X388654Y410480D03*
X388654Y410988D03*
D43*
X480602Y411496D03*
D44*
X375192Y411496D03*
D18*
X481618Y412004D03*
D45*
X374176Y412004D03*
D20*
X482380Y412512D03*
D46*
X373414Y412512D03*
D24*
X482888Y413020D03*
D47*
X372906Y413020D03*
D48*
X483396Y413528D03*
D49*
X372398Y413528D03*
D50*
X483904Y414036D03*
D51*
X371890Y414036D03*
D32*
X484158Y414544D03*
D52*
X387384Y414544D03*
D53*
X301786Y414544D03*
D40*
X484412Y415052D03*
D54*
X387384Y415052D03*
D55*
X301278Y415052D03*
D36*
X484920Y415560D03*
D56*
X387130Y415560D03*
D57*
X301024Y415560D03*
D58*
X485174Y416068D03*
D59*
X386876Y416068D03*
D60*
X300770Y416068D03*
D61*
X485428Y416576D03*
D23*
X467140Y416576D03*
D62*
X386368Y416576D03*
D63*
X300516Y416576D03*
D64*
X485682Y417084D03*
D61*
X467140Y417084D03*
D65*
X386368Y417084D03*
D63*
X300516Y417084D03*
D66*
X485936Y417592D03*
D40*
X467140Y417592D03*
D56*
X384590Y417592D03*
D67*
X300262Y417592D03*
D41*
X486190Y418100D03*
D29*
X466886Y418100D03*
D56*
X384082Y418100D03*
D67*
X300262Y418100D03*
D17*
X486444Y418608D03*
D20*
X467140Y418608D03*
D68*
X429802Y418608D03*
D50*
X399576Y418608D03*
D66*
X386368Y418608D03*
D69*
X370112Y418608D03*
D58*
X353602Y418608D03*
D19*
X341664Y418608D03*
D70*
X325916Y418608D03*
D67*
X300262Y418608D03*
D35*
X486698Y419116D03*
D18*
X466886Y419116D03*
D57*
X436152Y419116D03*
D28*
X411514Y419116D03*
D26*
X405418Y419116D03*
D28*
X399830Y419116D03*
D27*
X394496Y419116D03*
D19*
X386368Y419116D03*
D25*
X374430Y419116D03*
D23*
X365540Y419116D03*
D26*
X358174Y419116D03*
D25*
X351570Y419116D03*
D39*
X342172Y419116D03*
X330996Y419116D03*
D17*
X320836Y419116D03*
D71*
X300008Y419116D03*
D35*
X486698Y419624D03*
D72*
X466632Y419624D03*
D60*
X435898Y419624D03*
D28*
X411514Y419624D03*
D27*
X405164Y419624D03*
D34*
X399576Y419624D03*
D25*
X386622Y419624D03*
D39*
X374176Y419624D03*
D23*
X365540Y419624D03*
D27*
X357920Y419624D03*
D39*
X351824Y419624D03*
D37*
X342426Y419624D03*
D39*
X330488Y419624D03*
D35*
X321090Y419624D03*
D71*
X300008Y419624D03*
D19*
X486952Y420132D03*
D73*
X466632Y420132D03*
D63*
X435644Y420132D03*
D33*
X411768Y420132D03*
D27*
X405164Y420132D03*
D34*
X399576Y420132D03*
D37*
X386622Y420132D03*
X373922Y420132D03*
D25*
X365794Y420132D03*
D27*
X357920Y420132D03*
D39*
X351824Y420132D03*
D34*
X342680Y420132D03*
D37*
X330234Y420132D03*
D35*
X321090Y420132D03*
D74*
X299754Y420132D03*
D21*
X487206Y420640D03*
D75*
X466632Y420640D03*
D67*
X435390Y420640D03*
D33*
X411768Y420640D03*
D30*
X405926Y420640D03*
D34*
X399576Y420640D03*
D37*
X386622Y420640D03*
D34*
X373668Y420640D03*
D25*
X365794Y420640D03*
D30*
X358682Y420640D03*
D39*
X351824Y420640D03*
D33*
X342680Y420640D03*
D34*
X329980Y420640D03*
D35*
X321090Y420640D03*
D74*
X299754Y420640D03*
D21*
X487206Y421148D03*
D76*
X466632Y421148D03*
D63*
X435136Y421148D03*
D30*
X411514Y421148D03*
X405926Y421148D03*
D34*
X399576Y421148D03*
D31*
X392972Y421148D03*
D28*
X386622Y421148D03*
D27*
X380272Y421148D03*
D34*
X373668Y421148D03*
D25*
X365794Y421148D03*
D30*
X358682Y421148D03*
D39*
X351824Y421148D03*
D27*
X345220Y421148D03*
D33*
X342680Y421148D03*
D27*
X336584Y421148D03*
D34*
X329980Y421148D03*
D19*
X321344Y421148D03*
D77*
X299500Y421148D03*
D23*
X487460Y421656D03*
D78*
X466378Y421656D03*
D67*
X434882Y421656D03*
D17*
X414308Y421656D03*
D31*
X405672Y421656D03*
D34*
X399576Y421656D03*
D33*
X392972Y421656D03*
D28*
X386622Y421656D03*
D33*
X380272Y421656D03*
D28*
X373414Y421656D03*
D25*
X365794Y421656D03*
D31*
X358428Y421656D03*
D39*
X351824Y421656D03*
X343696Y421656D03*
D33*
X336584Y421656D03*
D34*
X329980Y421656D03*
D19*
X321344Y421656D03*
D77*
X299500Y421656D03*
D25*
X487714Y422164D03*
D79*
X466378Y422164D03*
D71*
X434628Y422164D03*
D17*
X414308Y422164D03*
D27*
X405164Y422164D03*
D34*
X399576Y422164D03*
D33*
X392972Y422164D03*
D28*
X386622Y422164D03*
X380018Y422164D03*
X373414Y422164D03*
D25*
X365794Y422164D03*
D39*
X351824Y422164D03*
X343696Y422164D03*
D33*
X336584Y422164D03*
D28*
X329726Y422164D03*
D19*
X321344Y422164D03*
D77*
X299500Y422164D03*
D25*
X487714Y422672D03*
D74*
X466378Y422672D03*
X434374Y422672D03*
D41*
X414054Y422672D03*
D34*
X399576Y422672D03*
D33*
X392972Y422672D03*
X386368Y422672D03*
D28*
X380018Y422672D03*
X373414Y422672D03*
D23*
X365540Y422672D03*
D39*
X351824Y422672D03*
D37*
X343950Y422672D03*
D28*
X336330Y422672D03*
X329726Y422672D03*
D21*
X321598Y422672D03*
D27*
X314740Y422672D03*
D79*
X299246Y422672D03*
D39*
X487968Y423180D03*
D71*
X466632Y423180D03*
D74*
X434374Y423180D03*
D66*
X413800Y423180D03*
D34*
X399576Y423180D03*
D28*
X392718Y423180D03*
D33*
X386368Y423180D03*
D28*
X380018Y423180D03*
X373414Y423180D03*
D21*
X365286Y423180D03*
D39*
X351824Y423180D03*
D37*
X343950Y423180D03*
D28*
X336330Y423180D03*
X329726Y423180D03*
D21*
X321598Y423180D03*
D27*
X314740Y423180D03*
D79*
X299246Y423180D03*
D39*
X487968Y423688D03*
D22*
X471966Y423688D03*
D61*
X457996Y423688D03*
D77*
X434120Y423688D03*
D61*
X413292Y423688D03*
D34*
X399576Y423688D03*
D33*
X392972Y423688D03*
X386368Y423688D03*
D28*
X380018Y423688D03*
X373414Y423688D03*
D19*
X364524Y423688D03*
D39*
X351824Y423688D03*
X343696Y423688D03*
D28*
X336330Y423688D03*
X329726Y423688D03*
D21*
X321598Y423688D03*
D26*
X314994Y423688D03*
D80*
X298992Y423688D03*
D37*
X488222Y424196D03*
D20*
X472220Y424196D03*
D66*
X456980Y424196D03*
D79*
X433866Y424196D03*
D40*
X411768Y424196D03*
D34*
X399576Y424196D03*
D33*
X392972Y424196D03*
X386368Y424196D03*
D28*
X380018Y424196D03*
X373414Y424196D03*
D66*
X363000Y424196D03*
D39*
X351824Y424196D03*
X343696Y424196D03*
D33*
X336584Y424196D03*
D28*
X329726Y424196D03*
D25*
X321598Y424196D03*
D31*
X314740Y424196D03*
D80*
X298992Y424196D03*
D37*
X488222Y424704D03*
D20*
X472728Y424704D03*
D66*
X456472Y424704D03*
D79*
X433866Y424704D03*
D50*
X411260Y424704D03*
D34*
X399576Y424704D03*
D33*
X392972Y424704D03*
D28*
X386622Y424704D03*
D30*
X380018Y424704D03*
D28*
X373414Y424704D03*
D17*
X361476Y424704D03*
D39*
X351824Y424704D03*
X343696Y424704D03*
D31*
X336584Y424704D03*
D34*
X329980Y424704D03*
D28*
X320582Y424704D03*
D31*
X314740Y424704D03*
D78*
X298738Y424704D03*
D37*
X488222Y425212D03*
D22*
X472982Y425212D03*
D41*
X455710Y425212D03*
D80*
X433612Y425212D03*
D41*
X413546Y425212D03*
D34*
X406688Y425212D03*
X399576Y425212D03*
D27*
X392972Y425212D03*
D34*
X386368Y425212D03*
X373668Y425212D03*
D28*
X363762Y425212D03*
D34*
X359444Y425212D03*
D28*
X352586Y425212D03*
X342426Y425212D03*
D34*
X329980Y425212D03*
D33*
X320328Y425212D03*
D31*
X314740Y425212D03*
D78*
X298738Y425212D03*
D34*
X488476Y425720D03*
D41*
X477046Y425720D03*
D19*
X469172Y425720D03*
X454948Y425720D03*
D78*
X433358Y425720D03*
D41*
X413546Y425720D03*
D26*
X405926Y425720D03*
D34*
X399576Y425720D03*
X386368Y425720D03*
X373668Y425720D03*
D28*
X363762Y425720D03*
D26*
X358682Y425720D03*
D34*
X352332Y425720D03*
D28*
X342426Y425720D03*
D37*
X330234Y425720D03*
D30*
X320582Y425720D03*
D33*
X314740Y425720D03*
D81*
X298484Y425720D03*
D34*
X488476Y426228D03*
D17*
X477300Y426228D03*
D23*
X468664Y426228D03*
D21*
X454186Y426228D03*
D78*
X433358Y426228D03*
D41*
X413546Y426228D03*
D34*
X399576Y426228D03*
D39*
X386368Y426228D03*
D37*
X373922Y426228D03*
D34*
X363508Y426228D03*
X352332Y426228D03*
X342172Y426228D03*
D37*
X330234Y426228D03*
D30*
X320582Y426228D03*
D33*
X314740Y426228D03*
D81*
X298484Y426228D03*
D34*
X488476Y426736D03*
D41*
X477554Y426736D03*
D37*
X468410Y426736D03*
D19*
X453932Y426736D03*
D78*
X433358Y426736D03*
D41*
X413546Y426736D03*
D37*
X399830Y426736D03*
D21*
X386114Y426736D03*
D39*
X374176Y426736D03*
D34*
X363508Y426736D03*
D37*
X352586Y426736D03*
X341918Y426736D03*
D25*
X330742Y426736D03*
D30*
X320582Y426736D03*
D33*
X314740Y426736D03*
D81*
X298484Y426736D03*
D28*
X488730Y427244D03*
D17*
X477808Y427244D03*
D28*
X468410Y427244D03*
D35*
X454186Y427244D03*
D81*
X433104Y427244D03*
D66*
X413292Y427244D03*
D39*
X400084Y427244D03*
D41*
X386114Y427244D03*
D21*
X374430Y427244D03*
D27*
X368080Y427244D03*
D34*
X363508Y427244D03*
D39*
X352840Y427244D03*
D25*
X341410Y427244D03*
D23*
X330996Y427244D03*
D27*
X324392Y427244D03*
D30*
X320582Y427244D03*
D34*
X314740Y427244D03*
D81*
X298484Y427244D03*
D28*
X488730Y427752D03*
D35*
X478062Y427752D03*
D31*
X468156Y427752D03*
D17*
X453932Y427752D03*
D82*
X432850Y427752D03*
D73*
X407704Y427752D03*
D83*
X371636Y427752D03*
D84*
X316518Y427752D03*
D28*
X488730Y428260D03*
D17*
X478316Y428260D03*
D27*
X468156Y428260D03*
D66*
X453932Y428260D03*
D82*
X432850Y428260D03*
D73*
X407704Y428260D03*
D83*
X371636Y428260D03*
D84*
X316518Y428260D03*
D33*
X488984Y428768D03*
D19*
X478316Y428768D03*
D26*
X462314Y428768D03*
D66*
X453932Y428768D03*
D82*
X432850Y428768D03*
D85*
X407450Y428768D03*
D83*
X371636Y428768D03*
D84*
X316518Y428768D03*
D33*
X488984Y429276D03*
D25*
X478062Y429276D03*
D33*
X462060Y429276D03*
D61*
X453932Y429276D03*
D76*
X432596Y429276D03*
D85*
X407450Y429276D03*
D86*
X370620Y429276D03*
D84*
X316518Y429276D03*
D33*
X488984Y429784D03*
D37*
X477554Y429784D03*
D34*
X461552Y429784D03*
D61*
X453932Y429784D03*
D76*
X432596Y429784D03*
D85*
X407450Y429784D03*
D87*
X340394Y429784D03*
D33*
X488984Y430292D03*
X477300Y430292D03*
D22*
X456218Y430292D03*
D88*
X432342Y430292D03*
D85*
X407450Y430292D03*
D87*
X340394Y430292D03*
D30*
X489238Y430800D03*
D26*
X477046Y430800D03*
D20*
X456472Y430800D03*
D89*
X365032Y430800D03*
D30*
X489238Y431308D03*
D27*
X471204Y431308D03*
D42*
X456726Y431308D03*
D89*
X365032Y431308D03*
D30*
X489238Y431816D03*
D31*
X471204Y431816D03*
D25*
X462314Y431816D03*
D38*
X453678Y431816D03*
D90*
X364778Y431816D03*
D30*
X489238Y432324D03*
D28*
X470950Y432324D03*
D25*
X462822Y432324D03*
D36*
X453424Y432324D03*
D90*
X364778Y432324D03*
D30*
X489238Y432832D03*
D34*
X470696Y432832D03*
D23*
X463076Y432832D03*
D38*
X453170Y432832D03*
D90*
X364778Y432832D03*
D30*
X489238Y433340D03*
D25*
X470442Y433340D03*
D23*
X463584Y433340D03*
D36*
X452916Y433340D03*
D91*
X364524Y433340D03*
D30*
X489238Y433848D03*
D19*
X470188Y433848D03*
D25*
X463838Y433848D03*
D36*
X452916Y433848D03*
D91*
X364524Y433848D03*
D31*
X489492Y434356D03*
D26*
X480094Y434356D03*
D32*
X467394Y434356D03*
D36*
X452408Y434356D03*
D91*
X364524Y434356D03*
D31*
X489492Y434864D03*
D30*
X479586Y434864D03*
D32*
X467902Y434864D03*
D58*
X452154Y434864D03*
D91*
X364524Y434864D03*
D31*
X489492Y435372D03*
D28*
X479078Y435372D03*
D50*
X468156Y435372D03*
D58*
X452154Y435372D03*
D42*
X433358Y435372D03*
D54*
X354364Y435372D03*
D31*
X489492Y435880D03*
D37*
X478570Y435880D03*
D32*
X468410Y435880D03*
D61*
X451900Y435880D03*
D22*
X433866Y435880D03*
D29*
X413546Y435880D03*
D92*
X387638Y435880D03*
D40*
X358936Y435880D03*
D21*
X341918Y435880D03*
D64*
X325154Y435880D03*
D82*
X298230Y435880D03*
D31*
X489492Y436388D03*
D25*
X478062Y436388D03*
D50*
X468664Y436388D03*
D64*
X451646Y436388D03*
D24*
X434120Y436388D03*
D50*
X413800Y436388D03*
D61*
X387892Y436388D03*
D66*
X358936Y436388D03*
D34*
X341664Y436388D03*
D21*
X325154Y436388D03*
D75*
X297468Y436388D03*
D31*
X489492Y436896D03*
D93*
X471966Y436896D03*
D61*
X451392Y436896D03*
D29*
X434374Y436896D03*
D38*
X414054Y436896D03*
D41*
X388146Y436896D03*
D19*
X358936Y436896D03*
D30*
X341410Y436896D03*
D25*
X325154Y436896D03*
D73*
X296960Y436896D03*
D31*
X489492Y437404D03*
D50*
X477300Y437404D03*
D21*
X466378Y437404D03*
D64*
X451138Y437404D03*
D29*
X434374Y437404D03*
D36*
X413800Y437404D03*
D19*
X388400Y437404D03*
D23*
X358936Y437404D03*
D26*
X341410Y437404D03*
D37*
X325154Y437404D03*
D43*
X296706Y437404D03*
D31*
X489492Y437912D03*
D50*
X477300Y437912D03*
D39*
X465616Y437912D03*
D66*
X450884Y437912D03*
D92*
X434374Y437912D03*
D61*
X413800Y437912D03*
D23*
X388400Y437912D03*
D25*
X359190Y437912D03*
D28*
X325154Y437912D03*
D72*
X296452Y437912D03*
D31*
X489492Y438420D03*
D40*
X477300Y438420D03*
D28*
X465362Y438420D03*
D66*
X450884Y438420D03*
D92*
X434374Y438420D03*
D64*
X414054Y438420D03*
D37*
X388654Y438420D03*
X359190Y438420D03*
D30*
X325154Y438420D03*
D72*
X296452Y438420D03*
D31*
X489492Y438928D03*
D40*
X477300Y438928D03*
D30*
X464854Y438928D03*
D41*
X450630Y438928D03*
D92*
X434374Y438928D03*
D66*
X413800Y438928D03*
D37*
X388654Y438928D03*
D34*
X359444Y438928D03*
D30*
X325154Y438928D03*
D93*
X296198Y438928D03*
D30*
X489238Y439436D03*
D38*
X477554Y439436D03*
D17*
X450376Y439436D03*
D48*
X434120Y439436D03*
D41*
X414054Y439436D03*
D34*
X388908Y439436D03*
X359444Y439436D03*
D30*
X325154Y439436D03*
D93*
X296198Y439436D03*
D30*
X489238Y439944D03*
D38*
X477554Y439944D03*
D27*
X459520Y439944D03*
D66*
X450376Y439944D03*
D48*
X434120Y439944D03*
D17*
X413800Y439944D03*
D28*
X389162Y439944D03*
D33*
X359444Y439944D03*
D30*
X325154Y439944D03*
D93*
X296198Y439944D03*
D30*
X489238Y440452D03*
D34*
X481364Y440452D03*
D25*
X475014Y440452D03*
D26*
X459266Y440452D03*
D64*
X450630Y440452D03*
D48*
X434120Y440452D03*
D17*
X413800Y440452D03*
D33*
X389416Y440452D03*
D30*
X359698Y440452D03*
X325154Y440452D03*
D93*
X296198Y440452D03*
D30*
X489238Y440960D03*
D28*
X481618Y440960D03*
D37*
X474506Y440960D03*
D30*
X459266Y440960D03*
D58*
X451138Y440960D03*
D48*
X434120Y440960D03*
D17*
X413800Y440960D03*
D33*
X389416Y440960D03*
D30*
X359698Y440960D03*
X325154Y440960D03*
D93*
X296198Y440960D03*
D30*
X489238Y441468D03*
D33*
X481872Y441468D03*
D31*
X473744Y441468D03*
D33*
X459520Y441468D03*
D36*
X451392Y441468D03*
D29*
X433866Y441468D03*
D35*
X413546Y441468D03*
D30*
X389670Y441468D03*
X360206Y441468D03*
X325154Y441468D03*
D93*
X296198Y441468D03*
D30*
X489238Y441976D03*
D33*
X481872Y441976D03*
D27*
X473236Y441976D03*
D24*
X453424Y441976D03*
D29*
X433866Y441976D03*
D17*
X413292Y441976D03*
D30*
X389670Y441976D03*
X360206Y441976D03*
X325154Y441976D03*
D72*
X296452Y441976D03*
D30*
X489238Y442484D03*
D31*
X481872Y442484D03*
D27*
X468156Y442484D03*
D22*
X453678Y442484D03*
D24*
X433612Y442484D03*
D35*
X413038Y442484D03*
D33*
X389924Y442484D03*
X360460Y442484D03*
X325408Y442484D03*
D72*
X296452Y442484D03*
D30*
X489238Y442992D03*
D31*
X481872Y442992D03*
D30*
X467902Y442992D03*
D22*
X453678Y442992D03*
D24*
X433612Y442992D03*
D35*
X413038Y442992D03*
D33*
X390432Y442992D03*
D28*
X360714Y442992D03*
D34*
X325408Y442992D03*
D43*
X296706Y442992D03*
D33*
X488984Y443500D03*
D26*
X482126Y443500D03*
D34*
X467648Y443500D03*
D20*
X453932Y443500D03*
D22*
X433358Y443500D03*
D17*
X412784Y443500D03*
D34*
X390940Y443500D03*
X361476Y443500D03*
D39*
X325916Y443500D03*
D75*
X297468Y443500D03*
D33*
X488984Y444008D03*
D27*
X482380Y444008D03*
D25*
X466886Y444008D03*
D20*
X453932Y444008D03*
D22*
X433358Y444008D03*
D35*
X412530Y444008D03*
D58*
X394242Y444008D03*
D72*
X369096Y444008D03*
D34*
X347252Y444008D03*
D36*
X328964Y444008D03*
D63*
X300516Y444008D03*
D33*
X488984Y444516D03*
D19*
X466124Y444516D03*
D25*
X459774Y444516D03*
D36*
X451392Y444516D03*
D22*
X433358Y444516D03*
D35*
X412530Y444516D03*
D58*
X394242Y444516D03*
D73*
X369604Y444516D03*
D23*
X347252Y444516D03*
D38*
X328710Y444516D03*
D67*
X300262Y444516D03*
D33*
X488984Y445024D03*
D32*
X463838Y445024D03*
D61*
X450884Y445024D03*
D20*
X433104Y445024D03*
D35*
X412022Y445024D03*
D61*
X393988Y445024D03*
D85*
X369858Y445024D03*
D21*
X346998Y445024D03*
D36*
X328456Y445024D03*
D67*
X300262Y445024D03*
D28*
X488730Y445532D03*
D30*
X477046Y445532D03*
D40*
X464092Y445532D03*
D66*
X450376Y445532D03*
D20*
X433104Y445532D03*
D35*
X412022Y445532D03*
D64*
X394242Y445532D03*
D85*
X369858Y445532D03*
D35*
X346998Y445532D03*
D38*
X328202Y445532D03*
D67*
X300262Y445532D03*
D28*
X488730Y446040D03*
D34*
X476284Y446040D03*
D40*
X464600Y446040D03*
D17*
X449868Y446040D03*
D42*
X432850Y446040D03*
D35*
X411514Y446040D03*
D66*
X393988Y446040D03*
D75*
X370112Y446040D03*
D35*
X346998Y446040D03*
D38*
X328202Y446040D03*
D71*
X300008Y446040D03*
D28*
X488730Y446548D03*
D23*
X475776Y446548D03*
D40*
X464600Y446548D03*
D21*
X449614Y446548D03*
D42*
X432850Y446548D03*
D35*
X411514Y446548D03*
D66*
X393988Y446548D03*
D58*
X364778Y446548D03*
D17*
X346744Y446548D03*
D36*
X327948Y446548D03*
D71*
X300008Y446548D03*
D28*
X488730Y447056D03*
D19*
X475268Y447056D03*
D39*
X468664Y447056D03*
D19*
X462568Y447056D03*
D25*
X449106Y447056D03*
D42*
X432850Y447056D03*
D35*
X411514Y447056D03*
D66*
X393988Y447056D03*
D41*
X363762Y447056D03*
D17*
X346744Y447056D03*
D38*
X327694Y447056D03*
D74*
X299754Y447056D03*
D34*
X488476Y447564D03*
D26*
X481110Y447564D03*
D32*
X472982Y447564D03*
D25*
X462314Y447564D03*
D37*
X448598Y447564D03*
D69*
X432596Y447564D03*
D35*
X411006Y447564D03*
D41*
X393734Y447564D03*
D35*
X363254Y447564D03*
D66*
X346744Y447564D03*
D36*
X327440Y447564D03*
D74*
X299754Y447564D03*
D34*
X488476Y448072D03*
D48*
X474252Y448072D03*
D34*
X462060Y448072D03*
D39*
X448852Y448072D03*
D18*
X432850Y448072D03*
D35*
X411006Y448072D03*
D41*
X393734Y448072D03*
D21*
X362746Y448072D03*
D41*
X346490Y448072D03*
D38*
X327186Y448072D03*
D74*
X299754Y448072D03*
D34*
X488476Y448580D03*
D33*
X479840Y448580D03*
D58*
X472474Y448580D03*
D28*
X461806Y448580D03*
D39*
X448852Y448580D03*
D70*
X432596Y448580D03*
D35*
X410498Y448580D03*
D41*
X393226Y448580D03*
D23*
X362492Y448580D03*
D41*
X346490Y448580D03*
D38*
X327186Y448580D03*
D77*
X299500Y448580D03*
D37*
X488222Y449088D03*
D30*
X479586Y449088D03*
D66*
X472220Y449088D03*
D31*
X461552Y449088D03*
D25*
X449106Y449088D03*
D70*
X432596Y449088D03*
D35*
X410498Y449088D03*
D41*
X393226Y449088D03*
D25*
X362238Y449088D03*
D66*
X346236Y449088D03*
D36*
X326932Y449088D03*
D77*
X299500Y449088D03*
D37*
X488222Y449596D03*
D30*
X479586Y449596D03*
D35*
X471966Y449596D03*
D39*
X449360Y449596D03*
D70*
X432596Y449596D03*
D17*
X410244Y449596D03*
D41*
X393226Y449596D03*
D25*
X361730Y449596D03*
D66*
X346236Y449596D03*
D38*
X326678Y449596D03*
D79*
X299246Y449596D03*
D37*
X488222Y450104D03*
D30*
X479586Y450104D03*
D21*
X471458Y450104D03*
D26*
X455710Y450104D03*
D25*
X449614Y450104D03*
D93*
X432342Y450104D03*
D35*
X409990Y450104D03*
D17*
X392972Y450104D03*
D39*
X361476Y450104D03*
D64*
X345982Y450104D03*
D36*
X326424Y450104D03*
D79*
X299246Y450104D03*
D39*
X487968Y450612D03*
D31*
X479332Y450612D03*
D25*
X471458Y450612D03*
D33*
X455456Y450612D03*
D25*
X449614Y450612D03*
D72*
X432596Y450612D03*
D35*
X409990Y450612D03*
D17*
X392972Y450612D03*
D39*
X361476Y450612D03*
D66*
X345728Y450612D03*
D38*
X326170Y450612D03*
D79*
X299246Y450612D03*
D39*
X487968Y451120D03*
D26*
X479078Y451120D03*
D28*
X470950Y451120D03*
D37*
X455202Y451120D03*
D23*
X449868Y451120D03*
D43*
X432342Y451120D03*
D35*
X409482Y451120D03*
X392718Y451120D03*
D37*
X361222Y451120D03*
D66*
X345728Y451120D03*
D38*
X326170Y451120D03*
D80*
X298992Y451120D03*
D25*
X487714Y451628D03*
D26*
X479078Y451628D03*
D33*
X470696Y451628D03*
D61*
X452408Y451628D03*
D43*
X432342Y451628D03*
D35*
X409482Y451628D03*
D17*
X392464Y451628D03*
D39*
X360968Y451628D03*
D66*
X345220Y451628D03*
D36*
X325916Y451628D03*
D80*
X298992Y451628D03*
D25*
X487714Y452136D03*
D27*
X478824Y452136D03*
D26*
X470442Y452136D03*
D58*
X452662Y452136D03*
D43*
X432342Y452136D03*
D35*
X408974Y452136D03*
D17*
X392464Y452136D03*
D37*
X360714Y452136D03*
D66*
X345220Y452136D03*
D38*
X325662Y452136D03*
D78*
X298738Y452136D03*
D23*
X487460Y452644D03*
D27*
X478824Y452644D03*
D26*
X464854Y452644D03*
D58*
X453170Y452644D03*
D85*
X432342Y452644D03*
D35*
X408974Y452644D03*
X392210Y452644D03*
D37*
X360714Y452644D03*
D66*
X344712Y452644D03*
D36*
X325408Y452644D03*
D78*
X298738Y452644D03*
D23*
X487460Y453152D03*
D31*
X464600Y453152D03*
D36*
X453424Y453152D03*
D85*
X432342Y453152D03*
D19*
X408720Y453152D03*
D17*
X391956Y453152D03*
D39*
X376208Y453152D03*
X360460Y453152D03*
D66*
X344712Y453152D03*
D38*
X325154Y453152D03*
D81*
X298484Y453152D03*
D21*
X487206Y453660D03*
D28*
X464346Y453660D03*
D36*
X453424Y453660D03*
D75*
X432088Y453660D03*
D19*
X408720Y453660D03*
D35*
X391702Y453660D03*
D19*
X375192Y453660D03*
D39*
X360460Y453660D03*
D41*
X344458Y453660D03*
D38*
X325154Y453660D03*
D81*
X298484Y453660D03*
D21*
X487206Y454168D03*
D39*
X464092Y454168D03*
D36*
X453932Y454168D03*
D88*
X432342Y454168D03*
D19*
X408212Y454168D03*
D35*
X391702Y454168D03*
D19*
X374684Y454168D03*
D39*
X359952Y454168D03*
D17*
X344204Y454168D03*
D38*
X324646Y454168D03*
D81*
X298484Y454168D03*
D19*
X486952Y454676D03*
D25*
X463838Y454676D03*
D38*
X454186Y454676D03*
D88*
X432342Y454676D03*
D21*
X407958Y454676D03*
D17*
X391448Y454676D03*
D21*
X374430Y454676D03*
D39*
X359952Y454676D03*
D35*
X343950Y454676D03*
D38*
X324646Y454676D03*
D82*
X298230Y454676D03*
D19*
X486952Y455184D03*
D70*
X457996Y455184D03*
D82*
X432342Y455184D03*
D25*
X407958Y455184D03*
D35*
X391194Y455184D03*
D23*
X374176Y455184D03*
X359952Y455184D03*
D19*
X343696Y455184D03*
D36*
X324392Y455184D03*
D82*
X298230Y455184D03*
D35*
X486698Y455692D03*
D26*
X473490Y455692D03*
D70*
X458504Y455692D03*
D82*
X432342Y455692D03*
D34*
X407704Y455692D03*
D17*
X390940Y455692D03*
D25*
X373922Y455692D03*
D23*
X359952Y455692D03*
X343696Y455692D03*
D41*
X325662Y455692D03*
D69*
X295436Y455692D03*
D17*
X486444Y456200D03*
D30*
X472982Y456200D03*
D70*
X458504Y456200D03*
D78*
X432342Y456200D03*
D27*
X407704Y456200D03*
D41*
X390686Y456200D03*
D34*
X373668Y456200D03*
D21*
X359698Y456200D03*
D37*
X343442Y456200D03*
D17*
X325916Y456200D03*
D20*
X294928Y456200D03*
D17*
X486444Y456708D03*
D28*
X472474Y456708D03*
D70*
X459012Y456708D03*
D78*
X432342Y456708D03*
D41*
X390686Y456708D03*
D19*
X359444Y456708D03*
D31*
X343188Y456708D03*
D19*
X325916Y456708D03*
D24*
X294420Y456708D03*
D41*
X486190Y457216D03*
D37*
X471966Y457216D03*
D70*
X459520Y457216D03*
D80*
X432596Y457216D03*
D66*
X390432Y457216D03*
D19*
X359444Y457216D03*
D21*
X326170Y457216D03*
D29*
X294166Y457216D03*
D66*
X485936Y457724D03*
D81*
X462568Y457724D03*
D79*
X432342Y457724D03*
D64*
X390178Y457724D03*
D35*
X359190Y457724D03*
D23*
X325916Y457724D03*
D29*
X294166Y457724D03*
D66*
X485936Y458232D03*
D78*
X462822Y458232D03*
D80*
X432088Y458232D03*
D64*
X390178Y458232D03*
D17*
X358936Y458232D03*
D23*
X325916Y458232D03*
D48*
X293912Y458232D03*
D64*
X485682Y458740D03*
D82*
X462822Y458740D03*
D80*
X431580Y458740D03*
D61*
X389924Y458740D03*
D66*
X358936Y458740D03*
D25*
X326170Y458740D03*
D48*
X293912Y458740D03*
D61*
X485428Y459248D03*
D75*
X462568Y459248D03*
D78*
X431326Y459248D03*
D36*
X389924Y459248D03*
D64*
X358682Y459248D03*
D25*
X325662Y459248D03*
D92*
X293658Y459248D03*
D58*
X485174Y459756D03*
D73*
X462568Y459756D03*
D78*
X431326Y459756D03*
D38*
X389670Y459756D03*
D58*
X358682Y459756D03*
D25*
X325662Y459756D03*
D92*
X293658Y459756D03*
D36*
X484920Y460264D03*
D72*
X462568Y460264D03*
D78*
X430818Y460264D03*
D40*
X389416Y460264D03*
D38*
X358682Y460264D03*
D25*
X325662Y460264D03*
D92*
X293658Y460264D03*
D38*
X484666Y460772D03*
D69*
X462568Y460772D03*
D81*
X430564Y460772D03*
D92*
X389162Y460772D03*
D40*
X358428Y460772D03*
D25*
X325662Y460772D03*
D92*
X293658Y460772D03*
D40*
X484412Y461280D03*
D22*
X462314Y461280D03*
D78*
X430310Y461280D03*
D29*
X389162Y461280D03*
D50*
X358428Y461280D03*
D23*
X325408Y461280D03*
D92*
X293658Y461280D03*
D32*
X484158Y461788D03*
D48*
X462568Y461788D03*
D81*
X430056Y461788D03*
D26*
X409990Y461788D03*
D22*
X389162Y461788D03*
D24*
X358428Y461788D03*
D26*
X336838Y461788D03*
D21*
X325662Y461788D03*
D48*
X293912Y461788D03*
D50*
X483904Y462296D03*
D38*
X462314Y462296D03*
D81*
X429548Y462296D03*
D31*
X409736Y462296D03*
D69*
X388908Y462296D03*
D20*
X358428Y462296D03*
D31*
X337092Y462296D03*
D35*
X325662Y462296D03*
D48*
X293912Y462296D03*
D92*
X483650Y462804D03*
D41*
X462314Y462804D03*
D81*
X429040Y462804D03*
D28*
X409482Y462804D03*
D93*
X388654Y462804D03*
D70*
X358428Y462804D03*
D34*
X337092Y462804D03*
D41*
X325154Y462804D03*
D29*
X294166Y462804D03*
D48*
X483396Y463312D03*
D34*
X462060Y463312D03*
D80*
X428532Y463312D03*
D25*
X409482Y463312D03*
D85*
X388654Y463312D03*
D73*
X358428Y463312D03*
D39*
X337092Y463312D03*
D61*
X325408Y463312D03*
D24*
X294420Y463312D03*
D29*
X483142Y463820D03*
D77*
X427516Y463820D03*
D41*
X409482Y463820D03*
D78*
X388146Y463820D03*
D81*
X358428Y463820D03*
D17*
X337092Y463820D03*
D50*
X324900Y463820D03*
D69*
X295436Y463820D03*
D22*
X482634Y464328D03*
D94*
X377478Y464328D03*
D72*
X296452Y464328D03*
D20*
X482380Y464836D03*
D95*
X377224Y464836D03*
D93*
X296198Y464836D03*
D69*
X481872Y465344D03*
D94*
X376970Y465344D03*
D93*
X296198Y465344D03*
D70*
X481364Y465852D03*
D94*
X376462Y465852D03*
D70*
X295944Y465852D03*
D93*
X481110Y466360D03*
D94*
X376462Y466360D03*
D70*
X295944Y466360D03*
D93*
X481110Y466868D03*
D96*
X376208Y466868D03*
D70*
X295944Y466868D03*
D93*
X481110Y467376D03*
D96*
X375700Y467376D03*
D18*
X295690Y467376D03*
D93*
X481110Y467884D03*
D97*
X375446Y467884D03*
D18*
X295690Y467884D03*
D93*
X481110Y468392D03*
D96*
X375192Y468392D03*
D18*
X295690Y468392D03*
D93*
X481110Y468900D03*
D97*
X374938Y468900D03*
D69*
X295436Y468900D03*
D93*
X481110Y469408D03*
D97*
X374430Y469408D03*
D69*
X295436Y469408D03*
D93*
X481110Y469916D03*
D97*
X374430Y469916D03*
D69*
X295436Y469916D03*
D93*
X481110Y470424D03*
D97*
X373922Y470424D03*
D69*
X295436Y470424D03*
D93*
X481110Y470932D03*
D26*
X447074Y470932D03*
D98*
X373668Y470932D03*
D69*
X295436Y470932D03*
D93*
X481110Y471440D03*
D34*
X445804Y471440D03*
D98*
X373160Y471440D03*
D18*
X295690Y471440D03*
D93*
X481110Y471948D03*
D21*
X444534Y471948D03*
D97*
X372906Y471948D03*
D18*
X295690Y471948D03*
D93*
X481110Y472456D03*
D64*
X443518Y472456D03*
D97*
X372398Y472456D03*
D70*
X295944Y472456D03*
D93*
X481110Y472964D03*
D38*
X442502Y472964D03*
D96*
X371636Y472964D03*
D93*
X296198Y472964D03*
X481110Y473472D03*
D48*
X441232Y473472D03*
D99*
X360206Y473472D03*
D93*
X481110Y473980D03*
D100*
X367572Y473980D03*
D70*
X481364Y474488D03*
D28*
X447074Y474488D03*
D89*
X365032Y474488D03*
D70*
X481364Y474996D03*
D27*
X462060Y474996D03*
D33*
X447328Y474996D03*
D91*
X364524Y474996D03*
D70*
X481364Y475504D03*
D31*
X462060Y475504D03*
D33*
X447328Y475504D03*
D101*
X364270Y475504D03*
D70*
X481364Y476012D03*
D33*
X462060Y476012D03*
X447328Y476012D03*
D102*
X364016Y476012D03*
D70*
X481364Y476520D03*
D34*
X462060Y476520D03*
X447328Y476520D03*
D103*
X363762Y476520D03*
D70*
X481364Y477028D03*
D39*
X462060Y477028D03*
D37*
X447074Y477028D03*
D104*
X363254Y477028D03*
D70*
X481364Y477536D03*
D23*
X462060Y477536D03*
D25*
X446566Y477536D03*
D58*
X433866Y477536D03*
D34*
X425484Y477536D03*
D25*
X419134Y477536D03*
D28*
X413038Y477536D03*
D23*
X406688Y477536D03*
D34*
X400592Y477536D03*
D23*
X393988Y477536D03*
D34*
X386876Y477536D03*
X381288Y477536D03*
D39*
X375192Y477536D03*
D23*
X367064Y477536D03*
D26*
X359190Y477536D03*
D37*
X355126Y477536D03*
D39*
X348776Y477536D03*
D37*
X342934Y477536D03*
D26*
X336330Y477536D03*
D30*
X332774Y477536D03*
D26*
X330234Y477536D03*
D19*
X323376Y477536D03*
D23*
X314232Y477536D03*
X306612Y477536D03*
D34*
X300516Y477536D03*
D61*
X291880Y477536D03*
D70*
X481364Y478044D03*
D19*
X462060Y478044D03*
D21*
X446566Y478044D03*
D61*
X434120Y478044D03*
D33*
X425484Y478044D03*
D39*
X418880Y478044D03*
D33*
X412784Y478044D03*
D39*
X406688Y478044D03*
D33*
X400592Y478044D03*
D39*
X393988Y478044D03*
D28*
X387130Y478044D03*
D34*
X381288Y478044D03*
D33*
X375700Y478044D03*
D34*
X366556Y478044D03*
D28*
X355126Y478044D03*
D37*
X349030Y478044D03*
D28*
X342934Y478044D03*
D26*
X332774Y478044D03*
D23*
X322868Y478044D03*
X314232Y478044D03*
D39*
X306612Y478044D03*
D33*
X300516Y478044D03*
D64*
X291626Y478044D03*
D70*
X481364Y478552D03*
D41*
X461806Y478552D03*
D35*
X446058Y478552D03*
D64*
X433866Y478552D03*
D30*
X425230Y478552D03*
D37*
X419134Y478552D03*
D30*
X413038Y478552D03*
D34*
X406688Y478552D03*
D33*
X400592Y478552D03*
D25*
X393734Y478552D03*
D28*
X387130Y478552D03*
X381034Y478552D03*
D30*
X375954Y478552D03*
D33*
X366556Y478552D03*
D28*
X355126Y478552D03*
D37*
X349030Y478552D03*
D33*
X343188Y478552D03*
D26*
X333282Y478552D03*
D39*
X322360Y478552D03*
D23*
X314232Y478552D03*
D39*
X306612Y478552D03*
D30*
X300262Y478552D03*
D64*
X291626Y478552D03*
D70*
X481364Y479060D03*
D66*
X462060Y479060D03*
D30*
X448598Y479060D03*
D28*
X443518Y479060D03*
D41*
X433866Y479060D03*
D31*
X425484Y479060D03*
D34*
X418880Y479060D03*
D30*
X413038Y479060D03*
D34*
X406688Y479060D03*
D31*
X400592Y479060D03*
D25*
X393226Y479060D03*
D34*
X387384Y479060D03*
D28*
X381034Y479060D03*
D31*
X376208Y479060D03*
D30*
X366302Y479060D03*
D34*
X355380Y479060D03*
X348776Y479060D03*
D30*
X343442Y479060D03*
D31*
X333028Y479060D03*
D25*
X321598Y479060D03*
D21*
X314486Y479060D03*
D37*
X306866Y479060D03*
D31*
X300516Y479060D03*
D66*
X291372Y479060D03*
D70*
X481364Y479568D03*
D58*
X461806Y479568D03*
D30*
X448598Y479568D03*
D33*
X442756Y479568D03*
D41*
X433866Y479568D03*
D31*
X425484Y479568D03*
D28*
X419134Y479568D03*
D31*
X412784Y479568D03*
D28*
X406434Y479568D03*
D31*
X400592Y479568D03*
D58*
X390686Y479568D03*
D33*
X381288Y479568D03*
D26*
X376462Y479568D03*
X366302Y479568D03*
D34*
X355380Y479568D03*
D37*
X349030Y479568D03*
D30*
X343442Y479568D03*
D31*
X333028Y479568D03*
D32*
X317534Y479568D03*
D37*
X306866Y479568D03*
D31*
X300516Y479568D03*
D66*
X291372Y479568D03*
D70*
X481364Y480076D03*
D40*
X462060Y480076D03*
D30*
X449106Y480076D03*
D33*
X442248Y480076D03*
D17*
X433612Y480076D03*
D26*
X425230Y480076D03*
D33*
X418880Y480076D03*
D26*
X413038Y480076D03*
D28*
X406434Y480076D03*
D26*
X400338Y480076D03*
D58*
X390686Y480076D03*
D33*
X381288Y480076D03*
D26*
X376462Y480076D03*
D28*
X371382Y480076D03*
D26*
X366302Y480076D03*
D33*
X361476Y480076D03*
D37*
X355634Y480076D03*
X349030Y480076D03*
D30*
X343442Y480076D03*
D28*
X338362Y480076D03*
D30*
X333282Y480076D03*
X328202Y480076D03*
D32*
X317534Y480076D03*
D37*
X306866Y480076D03*
D26*
X300262Y480076D03*
D41*
X291118Y480076D03*
D70*
X481364Y480584D03*
D50*
X462060Y480584D03*
D30*
X449106Y480584D03*
X441994Y480584D03*
D17*
X433612Y480584D03*
D26*
X425230Y480584D03*
D33*
X418880Y480584D03*
D27*
X412784Y480584D03*
D33*
X406688Y480584D03*
D27*
X400592Y480584D03*
D61*
X390432Y480584D03*
D33*
X381288Y480584D03*
D26*
X376970Y480584D03*
D39*
X371128Y480584D03*
D31*
X366556Y480584D03*
D28*
X361730Y480584D03*
D37*
X355634Y480584D03*
X349030Y480584D03*
D31*
X343696Y480584D03*
D28*
X338362Y480584D03*
D30*
X333282Y480584D03*
D37*
X328202Y480584D03*
D40*
X317280Y480584D03*
D37*
X306866Y480584D03*
D26*
X300262Y480584D03*
D41*
X291118Y480584D03*
D70*
X481364Y481092D03*
D39*
X466632Y481092D03*
D35*
X458758Y481092D03*
D33*
X448852Y481092D03*
D30*
X441486Y481092D03*
D19*
X433612Y481092D03*
D26*
X425230Y481092D03*
D33*
X418880Y481092D03*
D27*
X412784Y481092D03*
D30*
X406434Y481092D03*
D27*
X400592Y481092D03*
D61*
X390432Y481092D03*
D33*
X381288Y481092D03*
D26*
X376970Y481092D03*
D21*
X368842Y481092D03*
D28*
X361730Y481092D03*
D37*
X355634Y481092D03*
X349030Y481092D03*
D31*
X343696Y481092D03*
D34*
X338616Y481092D03*
D30*
X333282Y481092D03*
D39*
X327948Y481092D03*
D40*
X317280Y481092D03*
D34*
X307120Y481092D03*
D27*
X300008Y481092D03*
D41*
X291118Y481092D03*
D70*
X481364Y481600D03*
D39*
X467140Y481600D03*
D35*
X458250Y481600D03*
D28*
X448598Y481600D03*
D30*
X441486Y481600D03*
D19*
X433612Y481600D03*
D30*
X418626Y481600D03*
X406434Y481600D03*
D61*
X390432Y481600D03*
D33*
X381288Y481600D03*
D26*
X376970Y481600D03*
D39*
X368588Y481600D03*
D28*
X361730Y481600D03*
D37*
X355634Y481600D03*
X349030Y481600D03*
D31*
X343696Y481600D03*
D34*
X338616Y481600D03*
D30*
X333282Y481600D03*
D39*
X327948Y481600D03*
D40*
X317280Y481600D03*
D34*
X307120Y481600D03*
D17*
X290864Y481600D03*
D70*
X481364Y482108D03*
D25*
X467394Y482108D03*
D17*
X457996Y482108D03*
D39*
X448344Y482108D03*
D30*
X440978Y482108D03*
D21*
X433358Y482108D03*
D27*
X427516Y482108D03*
X422436Y482108D03*
D31*
X418880Y482108D03*
D27*
X410244Y482108D03*
D30*
X406434Y482108D03*
D64*
X390178Y482108D03*
D33*
X381288Y482108D03*
D26*
X376970Y482108D03*
D34*
X368080Y482108D03*
D28*
X361730Y482108D03*
D37*
X355634Y482108D03*
X349030Y482108D03*
D31*
X343696Y482108D03*
D34*
X338616Y482108D03*
D30*
X333282Y482108D03*
D39*
X327948Y482108D03*
D40*
X317280Y482108D03*
D34*
X307120Y482108D03*
D27*
X297468Y482108D03*
D17*
X290864Y482108D03*
D70*
X481364Y482616D03*
D25*
X467902Y482616D03*
D41*
X457742Y482616D03*
D25*
X448090Y482616D03*
D30*
X440978Y482616D03*
D21*
X433358Y482616D03*
D27*
X427516Y482616D03*
X422436Y482616D03*
D31*
X418880Y482616D03*
D27*
X415324Y482616D03*
X410244Y482616D03*
D30*
X406434Y482616D03*
D27*
X402624Y482616D03*
D26*
X397798Y482616D03*
D64*
X390178Y482616D03*
D30*
X381034Y482616D03*
D26*
X376970Y482616D03*
D28*
X367318Y482616D03*
X361730Y482616D03*
D37*
X355634Y482616D03*
X349030Y482616D03*
D31*
X343696Y482616D03*
D28*
X338362Y482616D03*
D30*
X333282Y482616D03*
D39*
X327948Y482616D03*
D40*
X317280Y482616D03*
D34*
X307120Y482616D03*
D27*
X302548Y482616D03*
X297468Y482616D03*
D17*
X290864Y482616D03*
D70*
X481364Y483124D03*
D23*
X468156Y483124D03*
D30*
X460790Y483124D03*
D39*
X455456Y483124D03*
X447328Y483124D03*
D30*
X440470Y483124D03*
D21*
X433358Y483124D03*
D27*
X427516Y483124D03*
X422436Y483124D03*
D31*
X418880Y483124D03*
D26*
X415070Y483124D03*
X409990Y483124D03*
X406434Y483124D03*
D27*
X402624Y483124D03*
D26*
X397798Y483124D03*
D64*
X390178Y483124D03*
D30*
X381034Y483124D03*
D26*
X376970Y483124D03*
D27*
X373160Y483124D03*
D33*
X367064Y483124D03*
D28*
X361730Y483124D03*
D37*
X355634Y483124D03*
X349030Y483124D03*
D30*
X343442Y483124D03*
D28*
X338362Y483124D03*
D30*
X333282Y483124D03*
D39*
X327948Y483124D03*
D40*
X317280Y483124D03*
D34*
X307120Y483124D03*
D27*
X302548Y483124D03*
X297468Y483124D03*
D17*
X290864Y483124D03*
D70*
X481364Y483632D03*
D21*
X468410Y483632D03*
D30*
X461298Y483632D03*
D37*
X455202Y483632D03*
D34*
X446820Y483632D03*
D30*
X440470Y483632D03*
D21*
X433358Y483632D03*
D26*
X427262Y483632D03*
X422690Y483632D03*
X418626Y483632D03*
X415070Y483632D03*
X409990Y483632D03*
X406434Y483632D03*
X402878Y483632D03*
X397798Y483632D03*
D64*
X390178Y483632D03*
D31*
X380780Y483632D03*
X376716Y483632D03*
D30*
X372398Y483632D03*
X366810Y483632D03*
D33*
X361476Y483632D03*
D37*
X355634Y483632D03*
X349030Y483632D03*
D30*
X343442Y483632D03*
D33*
X338108Y483632D03*
D30*
X333282Y483632D03*
D39*
X327948Y483632D03*
D40*
X317280Y483632D03*
D34*
X307120Y483632D03*
D26*
X302294Y483632D03*
X297214Y483632D03*
D35*
X290610Y483632D03*
D70*
X481364Y484140D03*
D19*
X468664Y484140D03*
D30*
X461298Y484140D03*
D34*
X455456Y484140D03*
X446312Y484140D03*
D30*
X440470Y484140D03*
D23*
X433612Y484140D03*
D26*
X427262Y484140D03*
D31*
X422436Y484140D03*
D26*
X418626Y484140D03*
X415070Y484140D03*
X409990Y484140D03*
X406434Y484140D03*
D31*
X402624Y484140D03*
D26*
X397798Y484140D03*
D66*
X389924Y484140D03*
D26*
X380526Y484140D03*
D31*
X376716Y484140D03*
D33*
X371636Y484140D03*
D30*
X366302Y484140D03*
X361222Y484140D03*
D37*
X355634Y484140D03*
X349030Y484140D03*
D30*
X343442Y484140D03*
X337854Y484140D03*
X333282Y484140D03*
D28*
X327694Y484140D03*
D40*
X317280Y484140D03*
D28*
X307374Y484140D03*
D26*
X302294Y484140D03*
D31*
X297468Y484140D03*
D35*
X290610Y484140D03*
D79*
X478062Y484648D03*
D30*
X461298Y484648D03*
D28*
X455710Y484648D03*
X446058Y484648D03*
D31*
X440216Y484648D03*
D25*
X433358Y484648D03*
D26*
X427262Y484648D03*
D31*
X422436Y484648D03*
D26*
X418626Y484648D03*
D31*
X414816Y484648D03*
X410244Y484648D03*
D27*
X406180Y484648D03*
D31*
X402624Y484648D03*
X397544Y484648D03*
D66*
X389924Y484648D03*
D30*
X376462Y484648D03*
X366302Y484648D03*
D33*
X356396Y484648D03*
D30*
X348014Y484648D03*
D33*
X343188Y484648D03*
D30*
X333282Y484648D03*
D36*
X318296Y484648D03*
D26*
X306358Y484648D03*
X302294Y484648D03*
D31*
X297468Y484648D03*
D35*
X290610Y484648D03*
D79*
X478062Y485156D03*
D30*
X461806Y485156D03*
D33*
X455964Y485156D03*
D28*
X446058Y485156D03*
D31*
X440216Y485156D03*
D25*
X433358Y485156D03*
D30*
X427262Y485156D03*
D31*
X422436Y485156D03*
D27*
X418880Y485156D03*
D31*
X414816Y485156D03*
D30*
X409990Y485156D03*
D27*
X406180Y485156D03*
D31*
X402624Y485156D03*
X397544Y485156D03*
D66*
X389924Y485156D03*
D30*
X376462Y485156D03*
D33*
X366048Y485156D03*
D26*
X356650Y485156D03*
D31*
X347760Y485156D03*
D28*
X342934Y485156D03*
D30*
X333282Y485156D03*
D58*
X319058Y485156D03*
D27*
X306104Y485156D03*
D31*
X302040Y485156D03*
X297468Y485156D03*
D19*
X290356Y485156D03*
D79*
X478062Y485664D03*
D30*
X461806Y485664D03*
D28*
X456218Y485664D03*
X445550Y485664D03*
D31*
X440216Y485664D03*
D25*
X433358Y485664D03*
D30*
X427262Y485664D03*
D31*
X422436Y485664D03*
X414816Y485664D03*
D30*
X409990Y485664D03*
D27*
X406180Y485664D03*
D30*
X402370Y485664D03*
X397798Y485664D03*
D66*
X389924Y485664D03*
D28*
X376462Y485664D03*
D34*
X366048Y485664D03*
D31*
X356904Y485664D03*
D26*
X347506Y485664D03*
D28*
X342934Y485664D03*
D30*
X333282Y485664D03*
D61*
X319312Y485664D03*
D30*
X302294Y485664D03*
X297214Y485664D03*
D19*
X290356Y485664D03*
D79*
X478062Y486172D03*
D30*
X461806Y486172D03*
D28*
X456218Y486172D03*
X445550Y486172D03*
D31*
X440216Y486172D03*
D25*
X433358Y486172D03*
D30*
X427262Y486172D03*
D33*
X422436Y486172D03*
X414816Y486172D03*
D30*
X409990Y486172D03*
D27*
X406180Y486172D03*
D30*
X402370Y486172D03*
X397798Y486172D03*
D41*
X389670Y486172D03*
D34*
X376208Y486172D03*
D39*
X366048Y486172D03*
D31*
X356904Y486172D03*
D26*
X347506Y486172D03*
D37*
X342426Y486172D03*
D33*
X333536Y486172D03*
D58*
X319566Y486172D03*
D27*
X306104Y486172D03*
D30*
X302294Y486172D03*
D33*
X297468Y486172D03*
D19*
X290356Y486172D03*
D79*
X478062Y486680D03*
D30*
X461806Y486680D03*
D28*
X456218Y486680D03*
X445550Y486680D03*
D31*
X440216Y486680D03*
D23*
X433104Y486680D03*
D33*
X427008Y486680D03*
X422436Y486680D03*
D26*
X418626Y486680D03*
D33*
X414816Y486680D03*
D28*
X409990Y486680D03*
D27*
X406180Y486680D03*
D28*
X402370Y486680D03*
X397798Y486680D03*
D64*
X389670Y486680D03*
D31*
X382304Y486680D03*
D25*
X375954Y486680D03*
D21*
X365794Y486680D03*
D33*
X357412Y486680D03*
D31*
X347760Y486680D03*
D25*
X341918Y486680D03*
D28*
X333790Y486680D03*
D27*
X329980Y486680D03*
D40*
X319820Y486680D03*
D26*
X305850Y486680D03*
D33*
X302040Y486680D03*
X297468Y486680D03*
D35*
X290610Y486680D03*
D79*
X478062Y487188D03*
D30*
X461806Y487188D03*
D28*
X456218Y487188D03*
D33*
X445804Y487188D03*
D31*
X440216Y487188D03*
D105*
X410498Y487188D03*
D53*
X368334Y487188D03*
D37*
X349030Y487188D03*
D32*
X338362Y487188D03*
D93*
X321090Y487188D03*
D76*
X297976Y487188D03*
D79*
X478062Y487696D03*
D30*
X461806Y487696D03*
D28*
X456218Y487696D03*
D33*
X445804Y487696D03*
D31*
X440216Y487696D03*
D106*
X395004Y487696D03*
D37*
X349030Y487696D03*
D32*
X338362Y487696D03*
D93*
X321090Y487696D03*
D76*
X297976Y487696D03*
D79*
X478062Y488204D03*
D30*
X461806Y488204D03*
D28*
X456218Y488204D03*
X446058Y488204D03*
D30*
X440470Y488204D03*
D106*
X395004Y488204D03*
D37*
X349030Y488204D03*
D32*
X338362Y488204D03*
D93*
X321090Y488204D03*
D76*
X297976Y488204D03*
D79*
X478062Y488712D03*
D31*
X461552Y488712D03*
D28*
X455710Y488712D03*
X446058Y488712D03*
D30*
X440470Y488712D03*
D106*
X395004Y488712D03*
D37*
X349030Y488712D03*
D32*
X338362Y488712D03*
D93*
X321090Y488712D03*
D76*
X297976Y488712D03*
D77*
X477808Y489220D03*
D30*
X461298Y489220D03*
D34*
X455456Y489220D03*
X446312Y489220D03*
D30*
X440978Y489220D03*
D106*
X395004Y489220D03*
D37*
X349030Y489220D03*
D32*
X338362Y489220D03*
D93*
X321090Y489220D03*
D82*
X298230Y489220D03*
D77*
X477808Y489728D03*
D30*
X461298Y489728D03*
D34*
X454948Y489728D03*
D39*
X446312Y489728D03*
D33*
X441232Y489728D03*
D106*
X395004Y489728D03*
D39*
X349284Y489728D03*
D32*
X338362Y489728D03*
D72*
X320836Y489728D03*
D82*
X298230Y489728D03*
D77*
X477808Y490236D03*
D31*
X461044Y490236D03*
D37*
X454186Y490236D03*
D61*
X444788Y490236D03*
D107*
X391956Y490236D03*
D32*
X338362Y490236D03*
D108*
X308644Y490236D03*
D77*
X477808Y490744D03*
D30*
X460790Y490744D03*
D20*
X447836Y490744D03*
D107*
X391956Y490744D03*
D32*
X338362Y490744D03*
D108*
X308644Y490744D03*
D74*
X477554Y491252D03*
D33*
X460536Y491252D03*
D24*
X447328Y491252D03*
D109*
X392210Y491252D03*
D32*
X338362Y491252D03*
D108*
X308644Y491252D03*
D74*
X477554Y491760D03*
D30*
X460282Y491760D03*
D24*
X446820Y491760D03*
D110*
X392210Y491760D03*
D92*
X338362Y491760D03*
D108*
X308644Y491760D03*
D74*
X477554Y492268D03*
D30*
X459774Y492268D03*
D111*
X370366Y492268D03*
D71*
X477300Y492776D03*
D33*
X459520Y492776D03*
D111*
X370366Y492776D03*
D67*
X477046Y493284D03*
D33*
X459012Y493284D03*
D112*
X370620Y493284D03*
D67*
X477046Y493792D03*
D28*
X458250Y493792D03*
D113*
X370874Y493792D03*
D63*
X476792Y494300D03*
D114*
X373160Y494300D03*
D60*
X476538Y494808D03*
D47*
X372906Y494808D03*
D60*
X476538Y495316D03*
D49*
X372398Y495316D03*
D57*
X476284Y495824D03*
D51*
X371890Y495824D03*
D55*
X476030Y496332D03*
D115*
X371636Y496332D03*
D116*
X475776Y496840D03*
D117*
X371382Y496840D03*
D118*
X475268Y497348D03*
D117*
X371382Y497348D03*
D119*
X475014Y497856D03*
D115*
X371636Y497856D03*
D120*
X474506Y498364D03*
D51*
X371890Y498364D03*
D16*
X388654Y498872D03*
M02*
