G04 EAGLE Gerber RS-274X export*
G75*
%MOMM*%
%FSLAX34Y34*%
%LPD*%
%INSolderpaste Bottom*%
%IPPOS*%
%AMOC8*
5,1,8,0,0,1.08239X$1,22.5*%
G01*
%ADD10R,1.500000X1.300000*%
%ADD11R,0.600000X1.200000*%
%ADD12R,1.300000X1.500000*%
%ADD13C,0.198000*%


D10*
X285000Y350500D03*
X285000Y369500D03*
X315000Y350500D03*
X315000Y369500D03*
X360000Y109500D03*
X360000Y90500D03*
X390000Y109500D03*
X390000Y90500D03*
X300000Y109500D03*
X300000Y90500D03*
X330000Y109500D03*
X330000Y90500D03*
D11*
X75550Y218000D03*
X88250Y218000D03*
X100950Y218000D03*
X113650Y218000D03*
X126350Y218000D03*
X139050Y218000D03*
X151750Y218000D03*
X164450Y218000D03*
X164450Y162000D03*
X151750Y162000D03*
X139050Y162000D03*
X126350Y162000D03*
X113650Y162000D03*
X100950Y162000D03*
X88250Y162000D03*
X75550Y162000D03*
D12*
X299500Y230000D03*
X280500Y230000D03*
D10*
X330000Y169500D03*
X330000Y150500D03*
X300000Y169500D03*
X300000Y150500D03*
X390000Y169500D03*
X390000Y150500D03*
D12*
X299500Y300000D03*
X280500Y300000D03*
D10*
X360000Y169500D03*
X360000Y150500D03*
D13*
X63010Y346010D02*
X61990Y346010D01*
X63010Y346010D02*
X63010Y331990D01*
X61990Y331990D01*
X61990Y346010D01*
X61990Y333871D02*
X63010Y333871D01*
X63010Y335752D02*
X61990Y335752D01*
X61990Y337633D02*
X63010Y337633D01*
X63010Y339514D02*
X61990Y339514D01*
X61990Y341395D02*
X63010Y341395D01*
X63010Y343276D02*
X61990Y343276D01*
X61990Y345157D02*
X63010Y345157D01*
X63010Y268010D02*
X61990Y268010D01*
X63010Y268010D02*
X63010Y253990D01*
X61990Y253990D01*
X61990Y268010D01*
X61990Y255871D02*
X63010Y255871D01*
X63010Y257752D02*
X61990Y257752D01*
X61990Y259633D02*
X63010Y259633D01*
X63010Y261514D02*
X61990Y261514D01*
X61990Y263395D02*
X63010Y263395D01*
X63010Y265276D02*
X61990Y265276D01*
X61990Y267157D02*
X63010Y267157D01*
X66990Y346010D02*
X68010Y346010D01*
X68010Y331990D01*
X66990Y331990D01*
X66990Y346010D01*
X66990Y333871D02*
X68010Y333871D01*
X68010Y335752D02*
X66990Y335752D01*
X66990Y337633D02*
X68010Y337633D01*
X68010Y339514D02*
X66990Y339514D01*
X66990Y341395D02*
X68010Y341395D01*
X68010Y343276D02*
X66990Y343276D01*
X66990Y345157D02*
X68010Y345157D01*
X71990Y346010D02*
X73010Y346010D01*
X73010Y331990D01*
X71990Y331990D01*
X71990Y346010D01*
X71990Y333871D02*
X73010Y333871D01*
X73010Y335752D02*
X71990Y335752D01*
X71990Y337633D02*
X73010Y337633D01*
X73010Y339514D02*
X71990Y339514D01*
X71990Y341395D02*
X73010Y341395D01*
X73010Y343276D02*
X71990Y343276D01*
X71990Y345157D02*
X73010Y345157D01*
X76990Y346010D02*
X78010Y346010D01*
X78010Y331990D01*
X76990Y331990D01*
X76990Y346010D01*
X76990Y333871D02*
X78010Y333871D01*
X78010Y335752D02*
X76990Y335752D01*
X76990Y337633D02*
X78010Y337633D01*
X78010Y339514D02*
X76990Y339514D01*
X76990Y341395D02*
X78010Y341395D01*
X78010Y343276D02*
X76990Y343276D01*
X76990Y345157D02*
X78010Y345157D01*
X81990Y346010D02*
X83010Y346010D01*
X83010Y331990D01*
X81990Y331990D01*
X81990Y346010D01*
X81990Y333871D02*
X83010Y333871D01*
X83010Y335752D02*
X81990Y335752D01*
X81990Y337633D02*
X83010Y337633D01*
X83010Y339514D02*
X81990Y339514D01*
X81990Y341395D02*
X83010Y341395D01*
X83010Y343276D02*
X81990Y343276D01*
X81990Y345157D02*
X83010Y345157D01*
X86990Y346010D02*
X88010Y346010D01*
X88010Y331990D01*
X86990Y331990D01*
X86990Y346010D01*
X86990Y333871D02*
X88010Y333871D01*
X88010Y335752D02*
X86990Y335752D01*
X86990Y337633D02*
X88010Y337633D01*
X88010Y339514D02*
X86990Y339514D01*
X86990Y341395D02*
X88010Y341395D01*
X88010Y343276D02*
X86990Y343276D01*
X86990Y345157D02*
X88010Y345157D01*
X91990Y346010D02*
X93010Y346010D01*
X93010Y331990D01*
X91990Y331990D01*
X91990Y346010D01*
X91990Y333871D02*
X93010Y333871D01*
X93010Y335752D02*
X91990Y335752D01*
X91990Y337633D02*
X93010Y337633D01*
X93010Y339514D02*
X91990Y339514D01*
X91990Y341395D02*
X93010Y341395D01*
X93010Y343276D02*
X91990Y343276D01*
X91990Y345157D02*
X93010Y345157D01*
X96990Y346010D02*
X98010Y346010D01*
X98010Y331990D01*
X96990Y331990D01*
X96990Y346010D01*
X96990Y333871D02*
X98010Y333871D01*
X98010Y335752D02*
X96990Y335752D01*
X96990Y337633D02*
X98010Y337633D01*
X98010Y339514D02*
X96990Y339514D01*
X96990Y341395D02*
X98010Y341395D01*
X98010Y343276D02*
X96990Y343276D01*
X96990Y345157D02*
X98010Y345157D01*
X101990Y346010D02*
X103010Y346010D01*
X103010Y331990D01*
X101990Y331990D01*
X101990Y346010D01*
X101990Y333871D02*
X103010Y333871D01*
X103010Y335752D02*
X101990Y335752D01*
X101990Y337633D02*
X103010Y337633D01*
X103010Y339514D02*
X101990Y339514D01*
X101990Y341395D02*
X103010Y341395D01*
X103010Y343276D02*
X101990Y343276D01*
X101990Y345157D02*
X103010Y345157D01*
X106990Y346010D02*
X108010Y346010D01*
X108010Y331990D01*
X106990Y331990D01*
X106990Y346010D01*
X106990Y333871D02*
X108010Y333871D01*
X108010Y335752D02*
X106990Y335752D01*
X106990Y337633D02*
X108010Y337633D01*
X108010Y339514D02*
X106990Y339514D01*
X106990Y341395D02*
X108010Y341395D01*
X108010Y343276D02*
X106990Y343276D01*
X106990Y345157D02*
X108010Y345157D01*
X111990Y346010D02*
X113010Y346010D01*
X113010Y331990D01*
X111990Y331990D01*
X111990Y346010D01*
X111990Y333871D02*
X113010Y333871D01*
X113010Y335752D02*
X111990Y335752D01*
X111990Y337633D02*
X113010Y337633D01*
X113010Y339514D02*
X111990Y339514D01*
X111990Y341395D02*
X113010Y341395D01*
X113010Y343276D02*
X111990Y343276D01*
X111990Y345157D02*
X113010Y345157D01*
X116990Y346010D02*
X118010Y346010D01*
X118010Y331990D01*
X116990Y331990D01*
X116990Y346010D01*
X116990Y333871D02*
X118010Y333871D01*
X118010Y335752D02*
X116990Y335752D01*
X116990Y337633D02*
X118010Y337633D01*
X118010Y339514D02*
X116990Y339514D01*
X116990Y341395D02*
X118010Y341395D01*
X118010Y343276D02*
X116990Y343276D01*
X116990Y345157D02*
X118010Y345157D01*
X121990Y346010D02*
X123010Y346010D01*
X123010Y331990D01*
X121990Y331990D01*
X121990Y346010D01*
X121990Y333871D02*
X123010Y333871D01*
X123010Y335752D02*
X121990Y335752D01*
X121990Y337633D02*
X123010Y337633D01*
X123010Y339514D02*
X121990Y339514D01*
X121990Y341395D02*
X123010Y341395D01*
X123010Y343276D02*
X121990Y343276D01*
X121990Y345157D02*
X123010Y345157D01*
X126990Y346010D02*
X128010Y346010D01*
X128010Y331990D01*
X126990Y331990D01*
X126990Y346010D01*
X126990Y333871D02*
X128010Y333871D01*
X128010Y335752D02*
X126990Y335752D01*
X126990Y337633D02*
X128010Y337633D01*
X128010Y339514D02*
X126990Y339514D01*
X126990Y341395D02*
X128010Y341395D01*
X128010Y343276D02*
X126990Y343276D01*
X126990Y345157D02*
X128010Y345157D01*
X131990Y346010D02*
X133010Y346010D01*
X133010Y331990D01*
X131990Y331990D01*
X131990Y346010D01*
X131990Y333871D02*
X133010Y333871D01*
X133010Y335752D02*
X131990Y335752D01*
X131990Y337633D02*
X133010Y337633D01*
X133010Y339514D02*
X131990Y339514D01*
X131990Y341395D02*
X133010Y341395D01*
X133010Y343276D02*
X131990Y343276D01*
X131990Y345157D02*
X133010Y345157D01*
X136990Y346010D02*
X138010Y346010D01*
X138010Y331990D01*
X136990Y331990D01*
X136990Y346010D01*
X136990Y333871D02*
X138010Y333871D01*
X138010Y335752D02*
X136990Y335752D01*
X136990Y337633D02*
X138010Y337633D01*
X138010Y339514D02*
X136990Y339514D01*
X136990Y341395D02*
X138010Y341395D01*
X138010Y343276D02*
X136990Y343276D01*
X136990Y345157D02*
X138010Y345157D01*
X141990Y346010D02*
X143010Y346010D01*
X143010Y331990D01*
X141990Y331990D01*
X141990Y346010D01*
X141990Y333871D02*
X143010Y333871D01*
X143010Y335752D02*
X141990Y335752D01*
X141990Y337633D02*
X143010Y337633D01*
X143010Y339514D02*
X141990Y339514D01*
X141990Y341395D02*
X143010Y341395D01*
X143010Y343276D02*
X141990Y343276D01*
X141990Y345157D02*
X143010Y345157D01*
X146990Y346010D02*
X148010Y346010D01*
X148010Y331990D01*
X146990Y331990D01*
X146990Y346010D01*
X146990Y333871D02*
X148010Y333871D01*
X148010Y335752D02*
X146990Y335752D01*
X146990Y337633D02*
X148010Y337633D01*
X148010Y339514D02*
X146990Y339514D01*
X146990Y341395D02*
X148010Y341395D01*
X148010Y343276D02*
X146990Y343276D01*
X146990Y345157D02*
X148010Y345157D01*
X151990Y346010D02*
X153010Y346010D01*
X153010Y331990D01*
X151990Y331990D01*
X151990Y346010D01*
X151990Y333871D02*
X153010Y333871D01*
X153010Y335752D02*
X151990Y335752D01*
X151990Y337633D02*
X153010Y337633D01*
X153010Y339514D02*
X151990Y339514D01*
X151990Y341395D02*
X153010Y341395D01*
X153010Y343276D02*
X151990Y343276D01*
X151990Y345157D02*
X153010Y345157D01*
X156990Y346010D02*
X158010Y346010D01*
X158010Y331990D01*
X156990Y331990D01*
X156990Y346010D01*
X156990Y333871D02*
X158010Y333871D01*
X158010Y335752D02*
X156990Y335752D01*
X156990Y337633D02*
X158010Y337633D01*
X158010Y339514D02*
X156990Y339514D01*
X156990Y341395D02*
X158010Y341395D01*
X158010Y343276D02*
X156990Y343276D01*
X156990Y345157D02*
X158010Y345157D01*
X161990Y346010D02*
X163010Y346010D01*
X163010Y331990D01*
X161990Y331990D01*
X161990Y346010D01*
X161990Y333871D02*
X163010Y333871D01*
X163010Y335752D02*
X161990Y335752D01*
X161990Y337633D02*
X163010Y337633D01*
X163010Y339514D02*
X161990Y339514D01*
X161990Y341395D02*
X163010Y341395D01*
X163010Y343276D02*
X161990Y343276D01*
X161990Y345157D02*
X163010Y345157D01*
X166990Y346010D02*
X168010Y346010D01*
X168010Y331990D01*
X166990Y331990D01*
X166990Y346010D01*
X166990Y333871D02*
X168010Y333871D01*
X168010Y335752D02*
X166990Y335752D01*
X166990Y337633D02*
X168010Y337633D01*
X168010Y339514D02*
X166990Y339514D01*
X166990Y341395D02*
X168010Y341395D01*
X168010Y343276D02*
X166990Y343276D01*
X166990Y345157D02*
X168010Y345157D01*
X171990Y346010D02*
X173010Y346010D01*
X173010Y331990D01*
X171990Y331990D01*
X171990Y346010D01*
X171990Y333871D02*
X173010Y333871D01*
X173010Y335752D02*
X171990Y335752D01*
X171990Y337633D02*
X173010Y337633D01*
X173010Y339514D02*
X171990Y339514D01*
X171990Y341395D02*
X173010Y341395D01*
X173010Y343276D02*
X171990Y343276D01*
X171990Y345157D02*
X173010Y345157D01*
X176990Y346010D02*
X178010Y346010D01*
X178010Y331990D01*
X176990Y331990D01*
X176990Y346010D01*
X176990Y333871D02*
X178010Y333871D01*
X178010Y335752D02*
X176990Y335752D01*
X176990Y337633D02*
X178010Y337633D01*
X178010Y339514D02*
X176990Y339514D01*
X176990Y341395D02*
X178010Y341395D01*
X178010Y343276D02*
X176990Y343276D01*
X176990Y345157D02*
X178010Y345157D01*
X68010Y268010D02*
X66990Y268010D01*
X68010Y268010D02*
X68010Y253990D01*
X66990Y253990D01*
X66990Y268010D01*
X66990Y255871D02*
X68010Y255871D01*
X68010Y257752D02*
X66990Y257752D01*
X66990Y259633D02*
X68010Y259633D01*
X68010Y261514D02*
X66990Y261514D01*
X66990Y263395D02*
X68010Y263395D01*
X68010Y265276D02*
X66990Y265276D01*
X66990Y267157D02*
X68010Y267157D01*
X71990Y268010D02*
X73010Y268010D01*
X73010Y253990D01*
X71990Y253990D01*
X71990Y268010D01*
X71990Y255871D02*
X73010Y255871D01*
X73010Y257752D02*
X71990Y257752D01*
X71990Y259633D02*
X73010Y259633D01*
X73010Y261514D02*
X71990Y261514D01*
X71990Y263395D02*
X73010Y263395D01*
X73010Y265276D02*
X71990Y265276D01*
X71990Y267157D02*
X73010Y267157D01*
X76990Y268010D02*
X78010Y268010D01*
X78010Y253990D01*
X76990Y253990D01*
X76990Y268010D01*
X76990Y255871D02*
X78010Y255871D01*
X78010Y257752D02*
X76990Y257752D01*
X76990Y259633D02*
X78010Y259633D01*
X78010Y261514D02*
X76990Y261514D01*
X76990Y263395D02*
X78010Y263395D01*
X78010Y265276D02*
X76990Y265276D01*
X76990Y267157D02*
X78010Y267157D01*
X81990Y268010D02*
X83010Y268010D01*
X83010Y253990D01*
X81990Y253990D01*
X81990Y268010D01*
X81990Y255871D02*
X83010Y255871D01*
X83010Y257752D02*
X81990Y257752D01*
X81990Y259633D02*
X83010Y259633D01*
X83010Y261514D02*
X81990Y261514D01*
X81990Y263395D02*
X83010Y263395D01*
X83010Y265276D02*
X81990Y265276D01*
X81990Y267157D02*
X83010Y267157D01*
X86990Y268010D02*
X88010Y268010D01*
X88010Y253990D01*
X86990Y253990D01*
X86990Y268010D01*
X86990Y255871D02*
X88010Y255871D01*
X88010Y257752D02*
X86990Y257752D01*
X86990Y259633D02*
X88010Y259633D01*
X88010Y261514D02*
X86990Y261514D01*
X86990Y263395D02*
X88010Y263395D01*
X88010Y265276D02*
X86990Y265276D01*
X86990Y267157D02*
X88010Y267157D01*
X91990Y268010D02*
X93010Y268010D01*
X93010Y253990D01*
X91990Y253990D01*
X91990Y268010D01*
X91990Y255871D02*
X93010Y255871D01*
X93010Y257752D02*
X91990Y257752D01*
X91990Y259633D02*
X93010Y259633D01*
X93010Y261514D02*
X91990Y261514D01*
X91990Y263395D02*
X93010Y263395D01*
X93010Y265276D02*
X91990Y265276D01*
X91990Y267157D02*
X93010Y267157D01*
X96990Y268010D02*
X98010Y268010D01*
X98010Y253990D01*
X96990Y253990D01*
X96990Y268010D01*
X96990Y255871D02*
X98010Y255871D01*
X98010Y257752D02*
X96990Y257752D01*
X96990Y259633D02*
X98010Y259633D01*
X98010Y261514D02*
X96990Y261514D01*
X96990Y263395D02*
X98010Y263395D01*
X98010Y265276D02*
X96990Y265276D01*
X96990Y267157D02*
X98010Y267157D01*
X101990Y268010D02*
X103010Y268010D01*
X103010Y253990D01*
X101990Y253990D01*
X101990Y268010D01*
X101990Y255871D02*
X103010Y255871D01*
X103010Y257752D02*
X101990Y257752D01*
X101990Y259633D02*
X103010Y259633D01*
X103010Y261514D02*
X101990Y261514D01*
X101990Y263395D02*
X103010Y263395D01*
X103010Y265276D02*
X101990Y265276D01*
X101990Y267157D02*
X103010Y267157D01*
X106990Y268010D02*
X108010Y268010D01*
X108010Y253990D01*
X106990Y253990D01*
X106990Y268010D01*
X106990Y255871D02*
X108010Y255871D01*
X108010Y257752D02*
X106990Y257752D01*
X106990Y259633D02*
X108010Y259633D01*
X108010Y261514D02*
X106990Y261514D01*
X106990Y263395D02*
X108010Y263395D01*
X108010Y265276D02*
X106990Y265276D01*
X106990Y267157D02*
X108010Y267157D01*
X111990Y268010D02*
X113010Y268010D01*
X113010Y253990D01*
X111990Y253990D01*
X111990Y268010D01*
X111990Y255871D02*
X113010Y255871D01*
X113010Y257752D02*
X111990Y257752D01*
X111990Y259633D02*
X113010Y259633D01*
X113010Y261514D02*
X111990Y261514D01*
X111990Y263395D02*
X113010Y263395D01*
X113010Y265276D02*
X111990Y265276D01*
X111990Y267157D02*
X113010Y267157D01*
X116990Y268010D02*
X118010Y268010D01*
X118010Y253990D01*
X116990Y253990D01*
X116990Y268010D01*
X116990Y255871D02*
X118010Y255871D01*
X118010Y257752D02*
X116990Y257752D01*
X116990Y259633D02*
X118010Y259633D01*
X118010Y261514D02*
X116990Y261514D01*
X116990Y263395D02*
X118010Y263395D01*
X118010Y265276D02*
X116990Y265276D01*
X116990Y267157D02*
X118010Y267157D01*
X121990Y268010D02*
X123010Y268010D01*
X123010Y253990D01*
X121990Y253990D01*
X121990Y268010D01*
X121990Y255871D02*
X123010Y255871D01*
X123010Y257752D02*
X121990Y257752D01*
X121990Y259633D02*
X123010Y259633D01*
X123010Y261514D02*
X121990Y261514D01*
X121990Y263395D02*
X123010Y263395D01*
X123010Y265276D02*
X121990Y265276D01*
X121990Y267157D02*
X123010Y267157D01*
X126990Y268010D02*
X128010Y268010D01*
X128010Y253990D01*
X126990Y253990D01*
X126990Y268010D01*
X126990Y255871D02*
X128010Y255871D01*
X128010Y257752D02*
X126990Y257752D01*
X126990Y259633D02*
X128010Y259633D01*
X128010Y261514D02*
X126990Y261514D01*
X126990Y263395D02*
X128010Y263395D01*
X128010Y265276D02*
X126990Y265276D01*
X126990Y267157D02*
X128010Y267157D01*
X131990Y268010D02*
X133010Y268010D01*
X133010Y253990D01*
X131990Y253990D01*
X131990Y268010D01*
X131990Y255871D02*
X133010Y255871D01*
X133010Y257752D02*
X131990Y257752D01*
X131990Y259633D02*
X133010Y259633D01*
X133010Y261514D02*
X131990Y261514D01*
X131990Y263395D02*
X133010Y263395D01*
X133010Y265276D02*
X131990Y265276D01*
X131990Y267157D02*
X133010Y267157D01*
X136990Y268010D02*
X138010Y268010D01*
X138010Y253990D01*
X136990Y253990D01*
X136990Y268010D01*
X136990Y255871D02*
X138010Y255871D01*
X138010Y257752D02*
X136990Y257752D01*
X136990Y259633D02*
X138010Y259633D01*
X138010Y261514D02*
X136990Y261514D01*
X136990Y263395D02*
X138010Y263395D01*
X138010Y265276D02*
X136990Y265276D01*
X136990Y267157D02*
X138010Y267157D01*
X141990Y268010D02*
X143010Y268010D01*
X143010Y253990D01*
X141990Y253990D01*
X141990Y268010D01*
X141990Y255871D02*
X143010Y255871D01*
X143010Y257752D02*
X141990Y257752D01*
X141990Y259633D02*
X143010Y259633D01*
X143010Y261514D02*
X141990Y261514D01*
X141990Y263395D02*
X143010Y263395D01*
X143010Y265276D02*
X141990Y265276D01*
X141990Y267157D02*
X143010Y267157D01*
X146990Y268010D02*
X148010Y268010D01*
X148010Y253990D01*
X146990Y253990D01*
X146990Y268010D01*
X146990Y255871D02*
X148010Y255871D01*
X148010Y257752D02*
X146990Y257752D01*
X146990Y259633D02*
X148010Y259633D01*
X148010Y261514D02*
X146990Y261514D01*
X146990Y263395D02*
X148010Y263395D01*
X148010Y265276D02*
X146990Y265276D01*
X146990Y267157D02*
X148010Y267157D01*
X151990Y268010D02*
X153010Y268010D01*
X153010Y253990D01*
X151990Y253990D01*
X151990Y268010D01*
X151990Y255871D02*
X153010Y255871D01*
X153010Y257752D02*
X151990Y257752D01*
X151990Y259633D02*
X153010Y259633D01*
X153010Y261514D02*
X151990Y261514D01*
X151990Y263395D02*
X153010Y263395D01*
X153010Y265276D02*
X151990Y265276D01*
X151990Y267157D02*
X153010Y267157D01*
X156990Y268010D02*
X158010Y268010D01*
X158010Y253990D01*
X156990Y253990D01*
X156990Y268010D01*
X156990Y255871D02*
X158010Y255871D01*
X158010Y257752D02*
X156990Y257752D01*
X156990Y259633D02*
X158010Y259633D01*
X158010Y261514D02*
X156990Y261514D01*
X156990Y263395D02*
X158010Y263395D01*
X158010Y265276D02*
X156990Y265276D01*
X156990Y267157D02*
X158010Y267157D01*
X161990Y268010D02*
X163010Y268010D01*
X163010Y253990D01*
X161990Y253990D01*
X161990Y268010D01*
X161990Y255871D02*
X163010Y255871D01*
X163010Y257752D02*
X161990Y257752D01*
X161990Y259633D02*
X163010Y259633D01*
X163010Y261514D02*
X161990Y261514D01*
X161990Y263395D02*
X163010Y263395D01*
X163010Y265276D02*
X161990Y265276D01*
X161990Y267157D02*
X163010Y267157D01*
X166990Y268010D02*
X168010Y268010D01*
X168010Y253990D01*
X166990Y253990D01*
X166990Y268010D01*
X166990Y255871D02*
X168010Y255871D01*
X168010Y257752D02*
X166990Y257752D01*
X166990Y259633D02*
X168010Y259633D01*
X168010Y261514D02*
X166990Y261514D01*
X166990Y263395D02*
X168010Y263395D01*
X168010Y265276D02*
X166990Y265276D01*
X166990Y267157D02*
X168010Y267157D01*
X171990Y268010D02*
X173010Y268010D01*
X173010Y253990D01*
X171990Y253990D01*
X171990Y268010D01*
X171990Y255871D02*
X173010Y255871D01*
X173010Y257752D02*
X171990Y257752D01*
X171990Y259633D02*
X173010Y259633D01*
X173010Y261514D02*
X171990Y261514D01*
X171990Y263395D02*
X173010Y263395D01*
X173010Y265276D02*
X171990Y265276D01*
X171990Y267157D02*
X173010Y267157D01*
X176990Y268010D02*
X178010Y268010D01*
X178010Y253990D01*
X176990Y253990D01*
X176990Y268010D01*
X176990Y255871D02*
X178010Y255871D01*
X178010Y257752D02*
X176990Y257752D01*
X176990Y259633D02*
X178010Y259633D01*
X178010Y261514D02*
X176990Y261514D01*
X176990Y263395D02*
X178010Y263395D01*
X178010Y265276D02*
X176990Y265276D01*
X176990Y267157D02*
X178010Y267157D01*
D12*
X74500Y470000D03*
X55500Y470000D03*
X209500Y470000D03*
X190500Y470000D03*
M02*
