G04 EAGLE Gerber RS-274X export*
G75*
%MOMM*%
%FSLAX34Y34*%
%LPD*%
%INSoldermask Bottom*%
%IPPOS*%
%AMOC8*
5,1,8,0,0,1.08239X$1,22.5*%
G01*
%ADD10R,1.703200X1.503200*%
%ADD11R,0.803200X1.403200*%
%ADD12R,1.503200X1.703200*%
%ADD13C,0.853200*%
%ADD14C,1.161200*%
%ADD15C,0.402559*%
%ADD16C,1.727200*%
%ADD17C,0.959600*%


D10*
X285000Y350500D03*
X285000Y369500D03*
X315000Y350500D03*
X315000Y369500D03*
X360000Y109500D03*
X360000Y90500D03*
X390000Y109500D03*
X390000Y90500D03*
X300000Y109500D03*
X300000Y90500D03*
X330000Y109500D03*
X330000Y90500D03*
D11*
X75550Y218000D03*
X88250Y218000D03*
X100950Y218000D03*
X113650Y218000D03*
X126350Y218000D03*
X139050Y218000D03*
X151750Y218000D03*
X164450Y218000D03*
X164450Y162000D03*
X151750Y162000D03*
X139050Y162000D03*
X126350Y162000D03*
X113650Y162000D03*
X100950Y162000D03*
X88250Y162000D03*
X75550Y162000D03*
D12*
X299500Y230000D03*
X280500Y230000D03*
D10*
X330000Y169500D03*
X330000Y150500D03*
X300000Y169500D03*
X300000Y150500D03*
X390000Y169500D03*
X390000Y150500D03*
D12*
X299500Y300000D03*
X280500Y300000D03*
D10*
X360000Y169500D03*
X360000Y150500D03*
D13*
X320000Y445250D03*
X280000Y445250D03*
D14*
X264250Y436790D02*
X264250Y427210D01*
X264250Y461710D02*
X264250Y471290D01*
X335750Y471290D02*
X335750Y461710D01*
X335750Y436790D02*
X335750Y427210D01*
D15*
X63003Y346003D02*
X61997Y346003D01*
X63003Y346003D02*
X63003Y331997D01*
X61997Y331997D01*
X61997Y346003D01*
X61997Y335822D02*
X63003Y335822D01*
X63003Y339647D02*
X61997Y339647D01*
X61997Y343472D02*
X63003Y343472D01*
X63003Y268003D02*
X61997Y268003D01*
X63003Y268003D02*
X63003Y253997D01*
X61997Y253997D01*
X61997Y268003D01*
X61997Y257822D02*
X63003Y257822D01*
X63003Y261647D02*
X61997Y261647D01*
X61997Y265472D02*
X63003Y265472D01*
X66997Y346003D02*
X68003Y346003D01*
X68003Y331997D01*
X66997Y331997D01*
X66997Y346003D01*
X66997Y335822D02*
X68003Y335822D01*
X68003Y339647D02*
X66997Y339647D01*
X66997Y343472D02*
X68003Y343472D01*
X71997Y346003D02*
X73003Y346003D01*
X73003Y331997D01*
X71997Y331997D01*
X71997Y346003D01*
X71997Y335822D02*
X73003Y335822D01*
X73003Y339647D02*
X71997Y339647D01*
X71997Y343472D02*
X73003Y343472D01*
X76997Y346003D02*
X78003Y346003D01*
X78003Y331997D01*
X76997Y331997D01*
X76997Y346003D01*
X76997Y335822D02*
X78003Y335822D01*
X78003Y339647D02*
X76997Y339647D01*
X76997Y343472D02*
X78003Y343472D01*
X81997Y346003D02*
X83003Y346003D01*
X83003Y331997D01*
X81997Y331997D01*
X81997Y346003D01*
X81997Y335822D02*
X83003Y335822D01*
X83003Y339647D02*
X81997Y339647D01*
X81997Y343472D02*
X83003Y343472D01*
X86997Y346003D02*
X88003Y346003D01*
X88003Y331997D01*
X86997Y331997D01*
X86997Y346003D01*
X86997Y335822D02*
X88003Y335822D01*
X88003Y339647D02*
X86997Y339647D01*
X86997Y343472D02*
X88003Y343472D01*
X91997Y346003D02*
X93003Y346003D01*
X93003Y331997D01*
X91997Y331997D01*
X91997Y346003D01*
X91997Y335822D02*
X93003Y335822D01*
X93003Y339647D02*
X91997Y339647D01*
X91997Y343472D02*
X93003Y343472D01*
X96997Y346003D02*
X98003Y346003D01*
X98003Y331997D01*
X96997Y331997D01*
X96997Y346003D01*
X96997Y335822D02*
X98003Y335822D01*
X98003Y339647D02*
X96997Y339647D01*
X96997Y343472D02*
X98003Y343472D01*
X101997Y346003D02*
X103003Y346003D01*
X103003Y331997D01*
X101997Y331997D01*
X101997Y346003D01*
X101997Y335822D02*
X103003Y335822D01*
X103003Y339647D02*
X101997Y339647D01*
X101997Y343472D02*
X103003Y343472D01*
X106997Y346003D02*
X108003Y346003D01*
X108003Y331997D01*
X106997Y331997D01*
X106997Y346003D01*
X106997Y335822D02*
X108003Y335822D01*
X108003Y339647D02*
X106997Y339647D01*
X106997Y343472D02*
X108003Y343472D01*
X111997Y346003D02*
X113003Y346003D01*
X113003Y331997D01*
X111997Y331997D01*
X111997Y346003D01*
X111997Y335822D02*
X113003Y335822D01*
X113003Y339647D02*
X111997Y339647D01*
X111997Y343472D02*
X113003Y343472D01*
X116997Y346003D02*
X118003Y346003D01*
X118003Y331997D01*
X116997Y331997D01*
X116997Y346003D01*
X116997Y335822D02*
X118003Y335822D01*
X118003Y339647D02*
X116997Y339647D01*
X116997Y343472D02*
X118003Y343472D01*
X121997Y346003D02*
X123003Y346003D01*
X123003Y331997D01*
X121997Y331997D01*
X121997Y346003D01*
X121997Y335822D02*
X123003Y335822D01*
X123003Y339647D02*
X121997Y339647D01*
X121997Y343472D02*
X123003Y343472D01*
X126997Y346003D02*
X128003Y346003D01*
X128003Y331997D01*
X126997Y331997D01*
X126997Y346003D01*
X126997Y335822D02*
X128003Y335822D01*
X128003Y339647D02*
X126997Y339647D01*
X126997Y343472D02*
X128003Y343472D01*
X131997Y346003D02*
X133003Y346003D01*
X133003Y331997D01*
X131997Y331997D01*
X131997Y346003D01*
X131997Y335822D02*
X133003Y335822D01*
X133003Y339647D02*
X131997Y339647D01*
X131997Y343472D02*
X133003Y343472D01*
X136997Y346003D02*
X138003Y346003D01*
X138003Y331997D01*
X136997Y331997D01*
X136997Y346003D01*
X136997Y335822D02*
X138003Y335822D01*
X138003Y339647D02*
X136997Y339647D01*
X136997Y343472D02*
X138003Y343472D01*
X141997Y346003D02*
X143003Y346003D01*
X143003Y331997D01*
X141997Y331997D01*
X141997Y346003D01*
X141997Y335822D02*
X143003Y335822D01*
X143003Y339647D02*
X141997Y339647D01*
X141997Y343472D02*
X143003Y343472D01*
X146997Y346003D02*
X148003Y346003D01*
X148003Y331997D01*
X146997Y331997D01*
X146997Y346003D01*
X146997Y335822D02*
X148003Y335822D01*
X148003Y339647D02*
X146997Y339647D01*
X146997Y343472D02*
X148003Y343472D01*
X151997Y346003D02*
X153003Y346003D01*
X153003Y331997D01*
X151997Y331997D01*
X151997Y346003D01*
X151997Y335822D02*
X153003Y335822D01*
X153003Y339647D02*
X151997Y339647D01*
X151997Y343472D02*
X153003Y343472D01*
X156997Y346003D02*
X158003Y346003D01*
X158003Y331997D01*
X156997Y331997D01*
X156997Y346003D01*
X156997Y335822D02*
X158003Y335822D01*
X158003Y339647D02*
X156997Y339647D01*
X156997Y343472D02*
X158003Y343472D01*
X161997Y346003D02*
X163003Y346003D01*
X163003Y331997D01*
X161997Y331997D01*
X161997Y346003D01*
X161997Y335822D02*
X163003Y335822D01*
X163003Y339647D02*
X161997Y339647D01*
X161997Y343472D02*
X163003Y343472D01*
X166997Y346003D02*
X168003Y346003D01*
X168003Y331997D01*
X166997Y331997D01*
X166997Y346003D01*
X166997Y335822D02*
X168003Y335822D01*
X168003Y339647D02*
X166997Y339647D01*
X166997Y343472D02*
X168003Y343472D01*
X171997Y346003D02*
X173003Y346003D01*
X173003Y331997D01*
X171997Y331997D01*
X171997Y346003D01*
X171997Y335822D02*
X173003Y335822D01*
X173003Y339647D02*
X171997Y339647D01*
X171997Y343472D02*
X173003Y343472D01*
X176997Y346003D02*
X178003Y346003D01*
X178003Y331997D01*
X176997Y331997D01*
X176997Y346003D01*
X176997Y335822D02*
X178003Y335822D01*
X178003Y339647D02*
X176997Y339647D01*
X176997Y343472D02*
X178003Y343472D01*
X68003Y268003D02*
X66997Y268003D01*
X68003Y268003D02*
X68003Y253997D01*
X66997Y253997D01*
X66997Y268003D01*
X66997Y257822D02*
X68003Y257822D01*
X68003Y261647D02*
X66997Y261647D01*
X66997Y265472D02*
X68003Y265472D01*
X71997Y268003D02*
X73003Y268003D01*
X73003Y253997D01*
X71997Y253997D01*
X71997Y268003D01*
X71997Y257822D02*
X73003Y257822D01*
X73003Y261647D02*
X71997Y261647D01*
X71997Y265472D02*
X73003Y265472D01*
X76997Y268003D02*
X78003Y268003D01*
X78003Y253997D01*
X76997Y253997D01*
X76997Y268003D01*
X76997Y257822D02*
X78003Y257822D01*
X78003Y261647D02*
X76997Y261647D01*
X76997Y265472D02*
X78003Y265472D01*
X81997Y268003D02*
X83003Y268003D01*
X83003Y253997D01*
X81997Y253997D01*
X81997Y268003D01*
X81997Y257822D02*
X83003Y257822D01*
X83003Y261647D02*
X81997Y261647D01*
X81997Y265472D02*
X83003Y265472D01*
X86997Y268003D02*
X88003Y268003D01*
X88003Y253997D01*
X86997Y253997D01*
X86997Y268003D01*
X86997Y257822D02*
X88003Y257822D01*
X88003Y261647D02*
X86997Y261647D01*
X86997Y265472D02*
X88003Y265472D01*
X91997Y268003D02*
X93003Y268003D01*
X93003Y253997D01*
X91997Y253997D01*
X91997Y268003D01*
X91997Y257822D02*
X93003Y257822D01*
X93003Y261647D02*
X91997Y261647D01*
X91997Y265472D02*
X93003Y265472D01*
X96997Y268003D02*
X98003Y268003D01*
X98003Y253997D01*
X96997Y253997D01*
X96997Y268003D01*
X96997Y257822D02*
X98003Y257822D01*
X98003Y261647D02*
X96997Y261647D01*
X96997Y265472D02*
X98003Y265472D01*
X101997Y268003D02*
X103003Y268003D01*
X103003Y253997D01*
X101997Y253997D01*
X101997Y268003D01*
X101997Y257822D02*
X103003Y257822D01*
X103003Y261647D02*
X101997Y261647D01*
X101997Y265472D02*
X103003Y265472D01*
X106997Y268003D02*
X108003Y268003D01*
X108003Y253997D01*
X106997Y253997D01*
X106997Y268003D01*
X106997Y257822D02*
X108003Y257822D01*
X108003Y261647D02*
X106997Y261647D01*
X106997Y265472D02*
X108003Y265472D01*
X111997Y268003D02*
X113003Y268003D01*
X113003Y253997D01*
X111997Y253997D01*
X111997Y268003D01*
X111997Y257822D02*
X113003Y257822D01*
X113003Y261647D02*
X111997Y261647D01*
X111997Y265472D02*
X113003Y265472D01*
X116997Y268003D02*
X118003Y268003D01*
X118003Y253997D01*
X116997Y253997D01*
X116997Y268003D01*
X116997Y257822D02*
X118003Y257822D01*
X118003Y261647D02*
X116997Y261647D01*
X116997Y265472D02*
X118003Y265472D01*
X121997Y268003D02*
X123003Y268003D01*
X123003Y253997D01*
X121997Y253997D01*
X121997Y268003D01*
X121997Y257822D02*
X123003Y257822D01*
X123003Y261647D02*
X121997Y261647D01*
X121997Y265472D02*
X123003Y265472D01*
X126997Y268003D02*
X128003Y268003D01*
X128003Y253997D01*
X126997Y253997D01*
X126997Y268003D01*
X126997Y257822D02*
X128003Y257822D01*
X128003Y261647D02*
X126997Y261647D01*
X126997Y265472D02*
X128003Y265472D01*
X131997Y268003D02*
X133003Y268003D01*
X133003Y253997D01*
X131997Y253997D01*
X131997Y268003D01*
X131997Y257822D02*
X133003Y257822D01*
X133003Y261647D02*
X131997Y261647D01*
X131997Y265472D02*
X133003Y265472D01*
X136997Y268003D02*
X138003Y268003D01*
X138003Y253997D01*
X136997Y253997D01*
X136997Y268003D01*
X136997Y257822D02*
X138003Y257822D01*
X138003Y261647D02*
X136997Y261647D01*
X136997Y265472D02*
X138003Y265472D01*
X141997Y268003D02*
X143003Y268003D01*
X143003Y253997D01*
X141997Y253997D01*
X141997Y268003D01*
X141997Y257822D02*
X143003Y257822D01*
X143003Y261647D02*
X141997Y261647D01*
X141997Y265472D02*
X143003Y265472D01*
X146997Y268003D02*
X148003Y268003D01*
X148003Y253997D01*
X146997Y253997D01*
X146997Y268003D01*
X146997Y257822D02*
X148003Y257822D01*
X148003Y261647D02*
X146997Y261647D01*
X146997Y265472D02*
X148003Y265472D01*
X151997Y268003D02*
X153003Y268003D01*
X153003Y253997D01*
X151997Y253997D01*
X151997Y268003D01*
X151997Y257822D02*
X153003Y257822D01*
X153003Y261647D02*
X151997Y261647D01*
X151997Y265472D02*
X153003Y265472D01*
X156997Y268003D02*
X158003Y268003D01*
X158003Y253997D01*
X156997Y253997D01*
X156997Y268003D01*
X156997Y257822D02*
X158003Y257822D01*
X158003Y261647D02*
X156997Y261647D01*
X156997Y265472D02*
X158003Y265472D01*
X161997Y268003D02*
X163003Y268003D01*
X163003Y253997D01*
X161997Y253997D01*
X161997Y268003D01*
X161997Y257822D02*
X163003Y257822D01*
X163003Y261647D02*
X161997Y261647D01*
X161997Y265472D02*
X163003Y265472D01*
X166997Y268003D02*
X168003Y268003D01*
X168003Y253997D01*
X166997Y253997D01*
X166997Y268003D01*
X166997Y257822D02*
X168003Y257822D01*
X168003Y261647D02*
X166997Y261647D01*
X166997Y265472D02*
X168003Y265472D01*
X171997Y268003D02*
X173003Y268003D01*
X173003Y253997D01*
X171997Y253997D01*
X171997Y268003D01*
X171997Y257822D02*
X173003Y257822D01*
X173003Y261647D02*
X171997Y261647D01*
X171997Y265472D02*
X173003Y265472D01*
X176997Y268003D02*
X178003Y268003D01*
X178003Y253997D01*
X176997Y253997D01*
X176997Y268003D01*
X176997Y257822D02*
X178003Y257822D01*
X178003Y261647D02*
X176997Y261647D01*
X176997Y265472D02*
X178003Y265472D01*
D12*
X74500Y470000D03*
X55500Y470000D03*
X209500Y470000D03*
X190500Y470000D03*
D16*
X138620Y451300D02*
X123380Y451300D01*
X123380Y476700D02*
X138620Y476700D01*
X72200Y43620D02*
X72200Y28380D01*
X97600Y28380D02*
X97600Y43620D01*
X123000Y43620D02*
X123000Y28380D01*
X148400Y28380D02*
X148400Y43620D01*
X173800Y43620D02*
X173800Y28380D01*
D17*
X370000Y343068D03*
X385068Y330932D03*
X381000Y345068D03*
X421041Y332959D03*
X402078Y358922D03*
X260068Y411000D03*
X417000Y431000D03*
X308423Y336423D03*
X297000Y247000D03*
X338000Y275000D03*
X356000Y240000D03*
X394000Y124000D03*
X407793Y56793D03*
X244000Y48000D03*
X247000Y27000D03*
X158932Y79928D03*
X171068Y79928D03*
X188932Y79928D03*
X201068Y79928D03*
X194000Y188000D03*
X192000Y167000D03*
X281000Y196000D03*
X191718Y328869D03*
X204000Y332000D03*
X163000Y423000D03*
X168157Y436157D03*
X184428Y341428D03*
X110000Y354000D03*
X136100Y352306D03*
X48000Y322500D03*
X108874Y291000D03*
X65908Y236092D03*
X136000Y278000D03*
X365514Y393068D03*
X393000Y322000D03*
X416000Y250000D03*
X399306Y309810D03*
X402088Y320000D03*
X288000Y122000D03*
X328000Y306068D03*
X327194Y237000D03*
X332000Y215806D03*
X339000Y340000D03*
X359854Y337000D03*
X322000Y294000D03*
X317000Y220932D03*
X360000Y187000D03*
X382174Y186826D03*
X440000Y213000D03*
X465000Y381000D03*
X423000Y276000D03*
X280000Y284000D03*
X296000Y339000D03*
X403000Y81000D03*
X180000Y458000D03*
X43000Y457000D03*
X91000Y356000D03*
X192718Y345720D03*
X139496Y290500D03*
X92068Y241000D03*
X63557Y172000D03*
X330000Y227000D03*
X347000Y182000D03*
X276000Y181000D03*
X76000Y188000D03*
X147000Y180000D03*
X172756Y158163D03*
X355000Y267000D03*
X347000Y332932D03*
X152510Y244510D03*
X327000Y339000D03*
X354000Y382000D03*
X108073Y172927D03*
X138694Y71000D03*
X195000Y120000D03*
X205791Y149791D03*
X204000Y167000D03*
X165000Y120000D03*
X217000Y151116D03*
X123000Y176000D03*
X53432Y236508D03*
X108874Y312878D03*
X69625Y180625D03*
X76000Y206000D03*
X123000Y241088D03*
X88000Y206000D03*
X132080Y236000D03*
X101000Y205000D03*
X146168Y238000D03*
X115000Y205000D03*
X163796Y237520D03*
X127000Y206000D03*
X172884Y238332D03*
X142000Y202000D03*
X181000Y232068D03*
X155000Y206000D03*
X45000Y370000D03*
X72000Y380000D03*
X79000Y400000D03*
X106000Y375000D03*
X136000Y375000D03*
X167000Y373000D03*
X197000Y376000D03*
X232000Y357000D03*
X43000Y270000D03*
X72806Y274306D03*
X102806Y277000D03*
X132806Y301000D03*
X162806Y279000D03*
X167496Y288500D03*
X210000Y241000D03*
X225000Y271000D03*
X195000Y243000D03*
X114000Y449000D03*
X87000Y457000D03*
M02*
