M48
;GenerationSoftware,Autodesk,EAGLE,9.6.2*%
;CreationDate,2024-02-05T07:17:19Z*%
FMAT,2
ICI,OFF
METRIC,TZ,000.000
T4C0.350
T3C0.450
T2C0.650
T1C1.016
%
G90
M71
T1
X17380Y3600
X13100Y45130
X13100Y47670
X7220Y3600
X9760Y3600
X12300Y3600
X14840Y3600
T2
X32000Y44525
X28000Y44525
T3
X26425Y43200
X26425Y46650
X33575Y46650
X33575Y43200
T4
X24400Y4800
X24700Y2700
X15893Y7993
X17107Y7993
X18893Y7993
X20107Y7993
X19400Y18800
X19200Y16700
X28100Y19600
X19172Y32887
X20400Y33200
X16300Y42300
X16816Y43616
X18443Y34143
X11000Y35400
X13610Y35231
X4800Y32250
X10887Y29100
X6591Y23609
X13600Y27800
X36551Y39307
X39300Y32200
X41600Y25000
X39931Y30981
X40209Y32000
X28800Y12200
X32800Y30607
X32719Y23700
X33200Y21581
X33900Y34000
X35985Y33700
X32200Y29400
X31700Y22093
X36000Y18700
X38217Y18683
X44000Y21300
X46500Y38100
X42300Y27600
X28000Y28400
X29600Y33900
X40300Y8100
X18000Y45800
X4300Y45700
X9100Y35600
X19272Y34572
X13950Y29050
X9207Y24100
X6356Y17200
X33000Y22700
X34700Y18200
X27600Y18100
X7600Y18800
X14700Y18000
X17276Y15816
X35500Y26700
X34700Y33293
X15251Y24451
X32700Y33900
X35400Y38200
X10807Y17293
X13869Y7100
X19500Y12000
X20579Y14979
X20400Y16700
X16500Y12000
X21700Y15112
X12300Y17600
X5343Y23651
X10887Y31288
X6962Y18063
X7600Y20600
X12300Y24109
X8800Y20600
X13208Y23600
X10100Y20500
X14617Y23800
X11500Y20500
X16380Y23752
X12700Y20600
X17288Y23833
X14200Y20200
X18100Y23207
X37000Y34307
X4500Y37000
X7200Y38000
X7900Y40000
X10600Y37500
X13600Y37500
X16700Y37300
X19700Y37600
X23200Y35700
X4300Y27000
X7281Y27431
X10281Y27700
X13281Y30100
X16281Y27900
X16750Y28850
X21000Y24100
X15500Y20600
X19500Y24300
X11400Y44900
X8700Y45700
X38507Y33093
X38100Y34507
X42104Y33296
X40208Y35892
X26007Y41100
X41700Y43100
X30842Y33642
X29700Y24700
X33800Y27500
X35600Y24000
X39400Y12400
X40779Y5679
X22500Y27100
M30